<svg width="73" height="98" viewBox="0 0 73 98" fill="none" xmlns="http://www.w3.org/2000/svg">
<g clip-path="url(#clip0)">
<path d="M25.8468 24.4435H47.0344C49.6487 24.4435 51.7754 22.2966 51.7754 19.6576V9.16689H48.0072C46.7356 3.91166 42.0317 0 36.4404 0C30.8486 0 26.1449 3.91166 24.873 9.16689H21.1054V19.6576C21.1054 22.2966 23.2323 24.4435 25.8468 24.4435Z" fill="#427FE0"/>
<path d="M62.1681 9.16699H57.4271V19.6577C57.4271 25.4425 52.7648 30.1487 47.0343 30.1487H25.8468C20.1159 30.1487 15.4536 25.4425 15.4536 19.6577V9.16699H10.7126C4.98193 9.16699 0.319824 13.873 0.319824 19.6577V86.8773C0.319824 92.6621 4.98193 97.3685 10.7126 97.3685H62.1681C67.8986 97.3685 72.5609 92.6621 72.5609 86.8773V19.6577C72.5609 13.873 67.8986 9.16699 62.1681 9.16699ZM26.3317 81.0527L20.2781 87.1635C19.7265 87.7205 19.0031 87.9991 18.2802 87.9991C17.557 87.9991 16.8342 87.7207 16.2822 87.1638L13.2547 84.1089C12.1511 82.9953 12.1508 81.189 13.254 80.0748C14.3574 78.9608 16.1467 78.9604 17.2503 80.074L18.2799 81.1127L22.3354 77.0187C23.4388 75.9049 25.2281 75.9049 26.3317 77.0187C27.4353 78.1326 27.4353 79.9388 26.3317 81.0527ZM26.3319 62.72L20.2783 68.831C19.7265 69.388 19.0031 69.6664 18.2802 69.6664C17.5572 69.6664 16.8342 69.388 16.2822 68.8312L13.2547 65.7765C12.1511 64.6626 12.1508 62.8565 13.254 61.7423C14.3574 60.6283 16.1465 60.6277 17.2503 61.7416L18.2797 62.7801L22.3354 58.6859C23.439 57.572 25.2281 57.5716 26.3317 58.6859C27.4353 59.7997 27.4353 61.6058 26.3319 62.72ZM26.3319 44.3879L20.2783 50.4989C19.7265 51.056 19.0031 51.3344 18.2802 51.3344C17.5568 51.3344 16.8338 51.056 16.2822 50.4991L13.2547 47.4436C12.151 46.3298 12.151 44.5235 13.2544 43.4095C14.3578 42.2953 16.1469 42.2953 17.2507 43.4091L18.2799 44.448L22.3354 40.354C23.439 39.2401 25.2281 39.2398 26.3317 40.354C27.4353 41.4678 27.4353 43.2739 26.3319 44.3879ZM57.6281 87.9989H36.4411C34.8803 87.9989 33.6153 86.7217 33.6153 85.1463C33.6153 83.5709 34.8803 82.2937 36.4411 82.2937H57.6279C59.1884 82.2937 60.4538 83.5709 60.4538 85.1463C60.4538 86.7219 59.1885 87.9989 57.6281 87.9989ZM57.6281 69.6664H36.4411C34.8803 69.6664 33.6153 68.3892 33.6153 66.8139C33.6153 65.2385 34.8803 63.9613 36.4411 63.9613H57.6279C59.1884 63.9613 60.4538 65.2385 60.4538 66.8139C60.4538 68.3892 59.1885 69.6664 57.6281 69.6664ZM57.6281 51.3344H36.4411C34.8803 51.3344 33.6153 50.0572 33.6153 48.4818C33.6153 46.9064 34.8803 45.6292 36.4411 45.6292H57.6279C59.1884 45.6292 60.4538 46.9064 60.4538 48.4818C60.4538 50.0574 59.1885 51.3344 57.6281 51.3344Z" fill="#427FE0"/>
</g>
<defs>
<clipPath id="clip0">
<rect width="72.2411" height="97.3684" fill="white" transform="translate(0.319824)"/>
</clipPath>
</defs>
</svg>
