<svg width="98" height="83" viewBox="0 0 98 83" fill="none" xmlns="http://www.w3.org/2000/svg">
<path fill-rule="evenodd" clip-rule="evenodd" d="M12.7213 50.4258H2.25195L1.37518 50.5977L0.659424 51.0667L0.17688 51.7623L0 52.6137V79.6497L0.17688 80.502L0.659424 81.1978L1.37518 81.667L2.25195 81.8391H12.7213L13.5982 81.667L14.3144 81.1978L14.7975 80.502L14.9745 79.6497V52.6137L14.7975 51.7623L14.3144 51.0667L13.5982 50.5977L12.7213 50.4258Z" fill="#427FE0"/>
<path fill-rule="evenodd" clip-rule="evenodd" d="M35.7714 40.2267L35.5941 39.3707L35.1115 38.6707L34.3955 38.1987L33.5195 38.0254H23.0502L22.1714 38.1987L21.4554 38.6707L20.9728 39.3707L20.7969 40.2267V79.6373L20.9728 80.4947L21.4554 81.1947L22.1714 81.6667L23.0502 81.8387H33.5195L34.3955 81.6667L35.1115 81.1947L35.5941 80.4947L35.7714 79.6373V40.2267Z" fill="#427FE0"/>
<path fill-rule="evenodd" clip-rule="evenodd" d="M64.8873 24.48L64.63 23.624L50.0967 0.77597L49.4647 0.193298L48.666 0L47.866 0.193298L47.2354 0.77597L32.702 23.624L32.4434 24.48L32.6553 25.2906L33.246 25.8946L34.1207 26.132H41.2607L41.2646 78.856L41.4354 79.6826L41.9114 80.3746L42.6207 80.8413L43.486 81.012H53.8246L54.6913 80.8413L55.3994 80.3746L55.874 79.692L56.05 78.856L53.254 75.1187L51.154 70.924L49.834 66.3519L49.3753 61.4813L49.834 56.624L51.1567 52.0586L53.2634 47.8667L56.0714 44.128V26.132H63.2113L64.0847 25.8946L64.6754 25.2906L64.8873 24.48Z" fill="#427FE0"/>
<path fill-rule="evenodd" clip-rule="evenodd" d="M97.3333 61.9987L96.784 57.2587L96.3826 56.144L95.2199 52.908L92.7653 49.0707L89.5453 45.8707L85.684 43.432L83.7586 42.7494V65.0186L83.7573 66.74L81.7759 70.9267L78.4306 72.5494L78.16 72.86L78.2014 73.4801V75.8586L77.9307 76.1494L76.7226 76.1907H76.0573L74.828 76.1494L74.5574 75.8387V74.3907L74.5427 74.0801L74.5373 72.9427L74.4959 72.9014L73.5373 72.756L72.624 72.5947L69.0413 71.1014L69.6653 68.8254L70.124 67.3774L70.3319 67.2947L71.0599 67.6667L71.996 68.096L72.9614 68.4254L73.9546 68.6654L74.9747 68.8254L75.8693 68.9293L76.7226 68.8467L77.5347 68.4947L78.432 67.8214L78.6586 67.2947L78.828 66.9054L75.544 63.7534L74.5253 63.344L73.5226 62.9026L70.1279 60.176L69.3533 57.0134L69.7399 55.0987L70.6252 53.556L71.9666 52.368L73.7253 51.5107L74.7866 51.1173L74.8079 51.1374V51.1173V48.904L74.828 48.056L74.9747 47.9307L75.8066 47.8893H78.3679V50.9307L79.6373 51.1173L83.0933 52.5027L82.9266 53.02L82.6973 53.7854L82.4893 54.5507L82.24 55.316L82.0107 56.0401L81.7813 56.144L81.0732 55.8134L80.0146 55.3867L78.9307 55.1L77.8199 54.952L76.6813 54.944L76.2853 54.9653L75.8907 55.0267L75.516 55.192L74.7293 55.7707L74.3853 56.5454L74.5013 57.3774L77.9026 59.5653L78.784 59.9387L79.6479 60.3387L80.4907 60.7787L82.6586 62.6214L83.7586 65.0186V42.7494L81.3053 41.8787L76.5359 41.332L71.7653 41.8787L67.3867 43.432L63.524 45.8707L60.304 49.0707L57.8493 52.908L56.2853 57.2587L55.7373 61.9987L56.2853 66.74L57.8493 71.0907L60.304 74.928L63.524 78.1281L67.3867 80.5667L71.7653 82.1201L76.5359 82.6654L81.3053 82.1201L85.684 80.5667L89.5453 78.1281L91.4947 76.1907L92.7653 74.928L95.2199 71.0907L96.784 66.74L97.3333 61.9987Z" fill="#427FE0"/>
</svg>
