<svg width="350" height="261" viewBox="0 0 350 261" fill="none" xmlns="http://www.w3.org/2000/svg">
<path d="M216.863 248.306H248.931" stroke="#427FE0" stroke-width="1.68165"/>
<path d="M234.233 179.493V167.022C234.233 166.038 233.435 165.241 232.451 165.241H217.753" stroke="#427FE0" stroke-width="1.68165"/>
<path d="M225.548 192.187V200.649C225.548 201.633 226.346 202.431 227.33 202.431H254.276" stroke="#427FE0" stroke-width="1.68165"/>
<path d="M206.619 210.225V218.688C206.619 219.671 207.416 220.469 208.4 220.469H235.346" stroke="#427FE0" stroke-width="1.68165"/>
<path d="M168.315 189.515V177.934C168.315 176.95 167.517 176.153 166.533 176.153H133.352" stroke="#427FE0" stroke-width="1.68165"/>
<path d="M201.051 200.872H180.786C179.802 200.872 179.004 201.67 179.004 202.654V219.801C179.004 220.785 178.207 221.583 177.223 221.583H156.958" stroke="#427FE0" stroke-width="1.68165"/>
<path d="M193.702 207.553H186.658C185.674 207.553 184.876 208.35 184.876 209.334V235.167C184.876 236.151 184.078 236.949 183.094 236.949H169.651" stroke="#427FE0" stroke-width="1.68165"/>
<path d="M197.488 215.347V252.092C197.488 253.076 196.691 253.874 195.707 253.874H182.79" stroke="#427FE0" stroke-width="1.68165"/>
<path d="M83.4305 39.384L84.415 38.9176L85.3478 38.5031L86.2287 38.244L87.1097 38.0885H88.3534L89.3898 38.3994L90.6335 39.1249L91.929 40.3168L92.9654 41.5604L93.6908 42.9596L94.3127 44.2551L95.4527 45.7579L96.6446 46.3797L98.6656 46.8461L101.205 46.6906L103.537 46.5352H104.78L105.506 46.2761L105.765 46.0688L105.869 44.8769L105.713 43.996L105.402 43.3741C105.402 43.3741 105.247 43.0632 105.039 43.0632C104.832 43.0632 104.21 42.9078 104.21 42.9078L103.692 42.7005L103.485 42.0786L103.692 40.3168L104.107 39.1767L104.832 37.8294L105.92 36.4821L106.646 35.5493L106.853 34.9793L107.32 34.7202L108.408 34.6165L109.133 34.6684H109.6L109.859 34.3056L109.6 33.5801L109.133 32.5437L109.081 31.3519L109.289 30.2637L109.755 29.2273L110.791 28.1908L112.346 27.2581L114.523 26.7399L116.336 26.4808L118.461 26.2735L119.964 26.118L122.036 25.9108L123.85 25.5998L125.146 24.8225L125.975 23.7343L126.286 22.6979L126.182 21.4024L125.819 20.6769L125.197 19.8996L124.472 19.2778L123.902 19.0705L123.021 19.1223L122.399 19.0705L122.036 18.7596L122.088 18.0859L122.606 17.4641L123.177 16.9977L123.902 16.8422L124.679 16.9977L126.13 17.775L127.788 19.0705L128.825 19.6405L129.499 20.366L129.809 20.6769H130.224L130.483 20.0033L130.431 19.1223L130.328 18.3968L130.69 18.2414L131.105 18.5523L131.52 19.3814L131.882 20.0551L131.986 20.4696L132.452 20.7806H133.437L134.214 21.0915L135.717 21.7651L136.909 22.387L138.101 22.5425L143.127 22.5943L143.49 22.6461L143.749 23.2161L144.06 24.0452L144.734 24.6671L145.615 25.0298L146.91 25.0816L148.517 25.1335L149.398 25.2371L150.123 25.3407L150.486 25.0298L150.589 24.6671L151.263 24.4598L151.988 24.5116L152.559 24.5634L152.714 24.8744L152.869 25.7035L153.077 26.3771L153.699 26.6362L154.269 26.7399L154.839 26.6881L155.253 26.5326L155.564 25.9108L155.771 25.2889L156.186 24.978L156.963 24.6671L157.741 24.6153L158.466 24.8225L159.088 25.1335L159.451 25.5998L159.502 26.4808L159.295 28.0354L159.14 29.7455L158.829 31.4037V31.8701L158.621 32.181L158.362 32.4401L157.274 32.5437L154.994 32.4401H153.647L153.025 32.5437L152.714 32.9583L152.196 35.5493L151.678 38.0885L150.745 39.9022L149.19 41.975L147.895 43.3223L147.066 43.996L146.651 44.3587L146.755 44.7215L147.947 44.5142L149.449 44.7215L151.315 45.2397L153.595 46.2243L158.259 49.0744L160.694 50.7326L162.456 51.8208L164.736 52.8054L166.861 53.5827L168.623 54.5155L169.815 55.5001L171.369 56.951L173.027 58.1947L174.116 59.0238L175.204 59.542L175.774 59.853L175.981 60.7339L176.81 62.3921L177.484 63.2213L178.831 64.1022L180.282 64.4649H183.34L185.775 64.4131L187.071 64.3613L187.382 64.2058L187.693 63.1694L188.055 61.2521L188.625 58.972L189.714 56.5365L190.75 54.0491L191.475 51.8208L191.786 49.5407L191.994 46.4834L192.045 43.0114L193.03 36.1193L193.289 33.9947L193.393 32.3883V31.3519L193.704 30.8337L193.963 30.6264L194.636 30.5228L195.103 30.3155L195.207 29.7455L195.466 26.999L195.88 24.5116L196.709 22.3352L197.383 20.6251L198.212 18.915L198.575 17.9305L198.886 17.205L199.093 16.7904L199.663 16.4795L200.803 16.5313L201.684 17.1013L202.461 18.1896L203.083 19.8478L203.342 21.506L203.446 22.6979V23.9934L203.55 24.4598L203.809 24.6153L204.741 24.5116L205.571 24.4598L205.881 24.5116L206.296 24.5634L206.4 25.0298L206.141 25.7035L205.933 26.3253V27.8281L206.037 28.9163L206.607 30.4709L207.384 32.3365L208.317 34.5129L208.887 36.223L209.25 38.0367L209.353 40.0577V41.7677L209.405 42.6487L209.561 43.2187L210.131 43.3741H211.374L212.411 43.115C212.411 43.115 213.136 43.0114 213.344 43.0114C213.551 43.0114 214.587 42.9596 214.587 42.9596L215.572 43.2187L216.349 43.8405L217.178 44.9806L218.111 46.6388L219.096 48.2452L219.51 49.178L219.769 50.629L219.821 52.7536L220.08 55.5519L220.287 57.0547L220.443 58.1429L221.065 59.5939L221.738 60.2675L222.308 60.9412L223.397 61.3039L223.811 61.8221L224.174 63.584L224.381 65.8123L224.433 70.0097L224.589 72.4971L225.107 74.8808L226.195 76.6945L227.594 78.5082L229.356 80.0628L230.548 80.7883L231.532 81.0992H232.31L232.621 81.151L232.88 81.6174L233.139 83.0684L233.605 83.6384L234.642 84.2602L236.352 85.2448L237.647 86.074L238.787 87.3176L239.875 88.8722L240.756 91.1523L242.156 94.1579L243.555 96.8007L244.539 99.0808L245.576 101.672L246.146 104.159L246.042 104.936L246.198 105.351L246.508 105.196L246.612 104.315L246.819 103.589L247.234 103.434L247.959 103.641L248.322 104.056L248.789 105.351L249.255 106.543L249.618 107.476L249.825 107.994L250.343 108.098L250.654 107.165L250.499 105.507L250.602 104.263L250.758 103.796L251.431 103.641H252.001L252.312 103.952L252.468 105.04L252.52 108.564L252.727 110.74L253.09 112.969L253.711 114.938L254.489 116.181L255.629 117.425L256.562 118.617L257.857 120.327L259.671 123.281L261.225 125.665L262.417 127.116L263.661 128.256L264.283 128.566L264.956 128.618C264.956 128.618 265.423 128.566 265.423 128.307C265.423 128.048 265.475 127.53 265.475 127.53C265.475 127.53 265.526 126.701 265.734 126.597C265.941 126.494 266.252 126.079 266.252 126.079L267.133 125.768H268.117L268.636 126.079L268.791 126.442L268.48 127.271L268.117 128.307L267.962 129.344L267.444 130.743L266.459 131.417L265.786 131.468L265.319 131.52C265.319 131.52 264.956 131.468 264.905 131.728C264.853 131.987 264.542 132.971 264.542 132.971L264.749 134.992L264.956 139.397L264.853 143.698L265.112 147.118L265.319 148.828L265.112 151.886L264.749 154.684L263.868 157.482L262.78 160.747L261.64 163.131L260.863 164.841L260.396 166.654L259.93 170.178L259.619 172.976L259.204 175.049L258.272 177.07L256.147 178.884L253.815 180.49L252.26 181.63L250.758 183.029L249.877 184.221L249.151 185.569L248.426 187.382L247.752 189.455L246.612 191.787L244.798 194.223L243.814 195.57L242.777 197.021L241.948 199.042L240.342 201.063L238.58 202.617L237.336 203.965L236.714 205.001L236.663 206.815L236.714 208.732L236.3 211.116L235.73 213.085L235.108 214.329L233.813 215.728L231.74 216.402L228.734 216.453L224.796 216.609L222.049 217.075L219.925 217.697L217.645 218.993L216.505 219.666L215.675 219.77L214.95 219.977L214.587 220.599L214.432 222.05L214.38 222.568L213.965 222.827H212.981L211.219 222.205L209.613 221.895C209.613 221.895 209.146 221.687 209.146 221.48C209.146 221.273 209.146 220.34 209.146 220.34L208.68 219.044L208.006 218.371L207.488 218.112L207.177 218.578L207.229 219.925L207.281 221.065L207.073 221.376L206.503 221.221L205.571 220.495L204.586 219.718L203.964 219.044L204.12 218.837H204.897L205.156 218.267L205.26 217.127L204.949 216.298L204.068 214.951L203.757 214.795L203.187 215.313L203.135 217.075L203.187 218.474L202.617 219.563L201.58 220.288L201.01 220.755H197.383L194.636 220.599L193.859 220.133C193.859 220.133 192.978 218.993 192.771 218.837C192.564 218.682 191.735 218.526 191.527 218.371C191.32 218.215 190.543 218.267 190.284 218.164C190.024 218.06 188.263 218.06 188.263 218.06L187.278 218.008L185.257 217.179L183.651 216.246L182.096 215.624L180.49 215.469C180.49 215.469 179.039 215.573 178.78 215.417C178.52 215.262 177.225 214.743 177.225 214.743L175.567 212.826L175.1 211.375L175.204 209.147L175.256 206.349L175.359 203.602L174.738 201.685C174.738 201.685 173.908 200.804 173.701 200.648C173.494 200.493 172.509 200.026 172.509 200.026L171.162 199.664L170.385 199.042L170.333 198.576V197.798L170.436 197.176L170.229 196.969L169.763 197.176L168.156 198.161L167.275 198.679C167.275 198.679 166.654 198.99 166.343 198.99C166.032 198.99 165.203 199.042 164.995 199.042C164.788 199.042 163.959 198.938 163.959 198.938L163.752 198.576L163.7 197.539L163.752 196.347L163.855 195.777L164.633 195.259L165.306 194.482L165.617 193.393L165.514 191.735L165.358 190.181L165.306 188.73L165.151 187.849L164.788 187.434L164.063 187.227L163.389 187.486L163.026 187.641L162.767 188.263L162.871 189.766L162.663 191.062L162.456 192.202L161.99 192.979L161.42 193.704L160.435 194.223L159.502 194.378L157.585 194.482L156.601 194.43L156.341 194.015L156.497 193.29L157.378 192.461L158.518 191.321L159.813 190.284L161.212 188.781L162.042 187.641L162.819 185.983L163.389 183.807L163.544 181.941L163.441 179.92L163.596 178.21L163.493 176.966L163.389 176.086L162.974 175.93L162.612 176.604L161.679 178.366L160.332 180.231L157.741 183.34L156.652 184.688L154.787 186.398L153.543 187.382L152.818 187.901L152.299 188.574L151.781 189.3L151.626 190.181L151.729 191.372V192.305L151.315 192.668L150.175 192.72L148.931 191.839L147.636 190.388L146.599 188.056L145.926 185.361L145.356 183.081L144.526 181.423L142.92 179.765L141.728 179.298L140.484 179.247L139.966 178.936L139.655 178.21L140.018 177.381C140.018 177.381 140.329 177.174 140.64 176.915C140.951 176.656 141.417 176.552 141.417 176.552L141.832 176.345L142.039 175.826L142.091 175.049L141.728 174.738L140.744 174.531L140.018 174.583L139.344 174.427C139.344 174.427 139.033 174.065 138.982 173.857C138.93 173.65 138.982 172.665 138.982 172.665L138.878 172.095L137.842 171.888L136.028 171.836L134.266 171.214L132.297 170.955L129.499 171.059H127.788L126.804 170.748L126.182 170.178L125.975 169.504L126.027 168.52C126.027 168.52 126.234 168.105 126.027 167.898C125.819 167.691 125.457 167.276 125.457 167.276L123.954 166.602L122.192 166.188L120.637 166.24L118.72 166.343L117.476 166.654L114.782 167.38L110.481 169.09L108.045 170.282L105.558 171.422L103.018 172.199L101.049 172.51H98.3028L96.8519 172.614L95.9709 173.08L95.09 174.065C95.09 174.065 94.7272 174.738 94.4681 174.738C94.209 174.738 91.929 175.308 91.929 175.308L88.4052 175.878L85.5551 176.915L82.4459 178.158L79.8549 179.661L78.0412 180.749L77.0566 181.993L76.3311 183.444L75.6056 184.791L75.2429 185.569L74.9319 186.035L73.5846 186.501L70.9936 187.175C70.9936 187.175 68.1953 187.382 67.729 187.434C67.2626 187.486 64.1534 187.486 64.1534 187.486L61.8733 187.279L59.1786 187.434L57.1576 187.693L54.463 188.73L50.7838 190.388L48.8146 192.046L47.4673 193.031L46.6381 193.86L45.7054 195.259L44.5653 196.762L43.4771 197.539L42.4925 197.954L40.5234 198.005L35.1859 198.057L33.3722 198.005L31.0403 197.487L29.4339 196.347L27.672 195L26.791 194.43L24.77 194.274L23.06 193.393L22.2827 192.564L22.0754 191.943L22.1272 190.181L22.179 189.3C22.179 189.3 22.0236 188.885 22.2309 188.678C22.4381 188.471 23.4227 187.952 23.4227 187.952C23.4227 187.952 23.9927 187.849 24.2 187.693C24.4073 187.538 25.1328 187.123 25.1328 187.123L25.7028 186.398V184.377L25.651 183.029L25.2882 182.252L24.9255 181.371L24.9773 179.817L25.0291 177.122L24.9255 174.842V174.375L24.5628 173.598L23.0082 171.836L21.609 170.489L20.469 169.453L19.588 168.52L19.2771 167.794L18.9144 166.706C18.9144 166.706 18.8107 165.462 18.6553 165.203C18.4998 164.944 18.0334 163.701 18.0334 163.701C18.0334 163.701 17.4116 162.82 17.2043 162.612C16.997 162.405 15.857 161.11 15.857 161.11L14.976 160.177L14.6133 159.607C14.6133 159.607 14.3024 158.933 14.3542 158.726C14.406 158.519 14.5097 157.275 14.5097 157.275L14.3542 156.187L13.8878 155.72L12.7478 155.202L11.5041 154.373L10.7268 153.699L10.0013 152.87L9.53491 151.834L9.37946 150.435L9.32763 149.243L9.53491 148.465L9.37946 148.103L8.4467 148.051C8.4467 148.051 7.82485 147.895 7.56574 147.792C7.30666 147.688 6.8921 147.429 6.8921 147.429L6.32208 146.548V145.408V144.579L6.06297 143.905L5.54477 143.283L3.88651 142.092L1.96917 140.071L0.880958 138.775L0.25911 138.101L0.0518279 137.531L0 136.91L0.466393 136.443L1.34735 136.391L2.33191 136.806L3.26469 138.05L4.66381 139.345L5.85568 140.226L6.73664 140.485L7.46212 140.381L7.72123 139.915L7.77303 138.775L7.72123 137.117C7.72123 137.117 7.6694 136.391 7.56574 136.184C7.46212 135.977 7.56574 135.977 7.04755 135.666C6.52936 135.355 6.01114 135.251 6.01114 135.251L5.23383 135.303L4.76747 134.94L4.8711 131.365L4.8193 131.054L4.24928 130.639L3.52377 130.536L2.28011 129.707L1.2437 128.1L0.518221 126.39L0.25911 125.457L0.673676 124.473L1.34735 123.125L1.50281 121.778L1.65826 119.083L1.60643 113.746V111.362L1.76189 109.652L1.86554 108.875L2.021 108.357L2.28011 108.305L2.74647 108.512L3.16104 109.6L3.52377 110.948L3.99017 111.673L4.3529 111.725L4.8193 111.051L5.07838 109.808L5.75206 107.994L6.84027 105.817L9.63857 103.175L11.815 100.584L13.1623 99.2881L14.976 97.8889L17.1007 96.7489L19.1216 96.2307H21.5054L23.3191 95.8161C23.3191 95.8161 24.6664 95.0907 24.8737 94.987C25.081 94.8834 26.0656 93.8988 26.0656 93.8988L27.4647 92.966L29.0711 92.4996L30.5221 91.6705L31.8176 90.4268L32.4394 89.4941L33.5795 88.3022L35.0823 87.4731L36.3259 87.1622L37.9842 87.1104L40.1088 86.9549L42.7516 86.3849L44.8763 85.8148L46.9491 84.5712L49.1773 82.8611L51.5092 80.0628L52.8047 78.4046L53.8411 76.1245L54.3593 74.1035L54.5148 71.5125L54.5666 68.7142L54.8257 66.5896L55.7067 64.4649L56.7431 63.014L57.624 62.0294L58.2459 61.4076L58.7641 61.3557L59.2823 61.8221L60.4741 63.4286L61.3032 64.2058L62.1842 64.9832L62.7542 65.3977C62.7542 65.3977 62.9615 65.6568 63.117 65.3977C63.2724 65.1386 63.4279 64.8795 63.4279 64.8795L63.5315 62.9103L63.2724 59.6457L63.3242 58.5575L63.7906 58.0392L65.1379 57.9356L67.1589 58.0392H68.299L68.7654 57.7802L68.9726 56.5883L69.0245 54.8782L68.9208 54.1009L68.3508 53.8936H67.729L67.2107 53.6864C67.2107 53.6864 67.1071 53.2718 67.2626 53.0127C67.418 52.7536 68.2471 51.9763 68.2471 51.9763L69.1281 50.9917L69.6981 49.9553L69.9572 49.3335C69.9572 49.3335 70.0609 49.1262 70.2681 48.9189C70.4754 48.7116 71.1491 48.6598 71.1491 48.6598L73.1701 48.8153H74.1028L74.621 48.5043L74.6729 46.8979L74.621 45.8615C74.621 45.8615 74.5692 45.3951 74.7765 45.2397C74.9838 45.0842 75.2947 44.7733 75.502 44.7733C75.7092 44.7733 76.5384 44.8769 76.5384 44.8769L77.6784 45.0324L78.093 44.7215V43.8405L78.1448 42.7523L79.0776 41.9232L80.5285 40.9386L83.4305 39.384Z" fill="#427FE0" fill-opacity="0.3"/>
<path d="M110.104 18.2742L110.764 17.6512L111.46 17.3947H112.339L113.109 17.6512L114.355 17.9077L115.894 17.9444L117.066 17.8711L117.946 17.468C117.946 17.468 118.275 17.1382 118.422 17.1016C118.569 17.065 118.898 17.0283 118.898 17.0283L119.448 17.1749L119.778 17.6146L119.814 18.6406L119.851 19.3734L119.595 19.8864L119.008 20.5093L118.459 20.7292C118.459 20.7292 118.092 20.8391 117.909 20.8391C117.726 20.8391 117.323 20.9491 117.323 20.9491L116.846 21.3521L115.857 21.9018L115.198 22.1216L114.538 22.1583L113.988 22.1216C113.988 22.1216 113.439 21.9018 113.292 21.7185C113.146 21.5353 112.596 20.8025 112.596 20.8025L111.973 20.3261L111.094 19.8864L110.397 19.3001L110.104 18.6039V18.2742Z" fill="#427FE0" fill-opacity="0.3"/>
<path d="M155.064 35.6795H154.478L154.185 35.4596V34.9466L154.331 34.5802L154.551 34.397L154.954 34.4703L155.174 34.8733L155.247 35.3863L155.064 35.6795Z" fill="#427FE0" fill-opacity="0.3"/>
<path d="M156.31 37.2548V36.3387L156.567 35.7524L156.97 35.2028L157.373 34.9463L157.996 34.9097L158.436 34.983L159.022 35.1662L159.388 35.386L159.572 35.7158L159.462 36.0089L159.132 36.3387L158.912 36.7418L158.839 37.2548L159.059 37.6578L159.388 38.0243L159.718 38.2808L159.901 38.6105L159.865 39.1968C159.865 39.1968 159.828 39.5999 159.681 39.6365C159.535 39.6732 159.388 39.8197 159.242 39.8197C159.095 39.8197 158.362 39.7831 158.362 39.7831L157.52 39.38L156.823 38.867L156.347 38.2075L156.274 37.5479L156.31 37.2548Z" fill="#427FE0" fill-opacity="0.3"/>
<path d="M175.657 56.5573L176.072 55.9355L176.875 55.5727L177.393 55.2618L177.989 55.0286L178.43 54.8731L178.896 54.7954L179.259 54.8731L179.518 55.0804L179.363 55.4691L179 55.6764L178.378 56.0391L177.808 56.2205L177.367 56.5055L176.797 56.8423L176.461 56.9978L176.046 57.0496L175.683 56.9719L175.528 56.7646L175.657 56.5573Z" fill="#427FE0" fill-opacity="0.3"/>
<path d="M221.181 229.584L221.13 229.092L221.156 228.652L221.389 228.367H221.674L222.114 228.47L222.684 229.248L223.125 229.947L223.436 230.543L223.721 230.958L224.032 231.113L224.135 231.424L223.85 231.709L223.462 231.994L223.28 232.201L222.969 232.331C222.969 232.331 222.632 232.357 222.529 232.305C222.425 232.253 222.244 232.15 222.244 232.02C222.244 231.89 222.322 231.45 222.322 231.45C222.322 231.45 222.296 231.243 222.244 231.139C222.192 231.035 222.011 230.647 222.011 230.647L221.726 230.232L221.441 229.921L221.285 229.792L221.181 229.584V229.584Z" fill="#427FE0" fill-opacity="0.3"/>
<path d="M222.399 233.497L222.606 233.057L222.762 232.772L223.047 232.59H223.617L224.057 232.564L224.394 232.59L224.575 232.616L224.757 233.031L224.653 233.342L224.239 233.523L223.979 233.653L223.591 233.756H222.995L222.425 233.705L222.399 233.497H222.399Z" fill="#427FE0" fill-opacity="0.3"/>
<path d="M198.044 228.729L197.966 228.211L198.07 227.563L198.122 226.786C198.122 226.786 198.303 226.579 198.329 226.449C198.355 226.32 198.303 226.19 198.381 226.06C198.459 225.931 198.795 225.724 198.795 225.724C198.795 225.724 199.003 225.75 199.106 225.75C199.21 225.75 199.521 226.009 199.521 226.009L199.625 226.605C199.625 226.605 199.676 226.812 199.676 227.019C199.676 227.226 199.702 227.719 199.676 227.848C199.65 227.978 199.417 228.366 199.417 228.366L199.08 228.729C199.08 228.729 198.925 228.859 198.77 228.885C198.614 228.911 198.303 228.885 198.303 228.885L198.044 228.729Z" fill="#427FE0" fill-opacity="0.3"/>
<path d="M202.26 234.904L202.699 234.134C202.699 234.134 203.029 233.768 203.176 233.768C203.322 233.768 203.689 233.768 203.689 233.768L204.275 234.244L204.421 234.611L205.081 234.831L206.144 234.941L206.876 235.234L207.793 236.003L208.819 236.773L209.735 237.542L210.651 238.055L211.713 238.165C211.713 238.165 212.593 238.202 212.739 238.092C212.886 237.982 213.142 237.762 213.326 237.689C213.509 237.616 214.242 237.396 214.242 237.396L215.194 237.286L216.074 237.103L217.466 236.993L218.712 236.809L219.518 236.626L220.178 236.223L220.837 235.857H221.533L222.303 236.15L222.779 236.443L223.146 237.139L223.219 238.092L223.182 239.081L222.999 240.071L222.633 241.243L222.34 242.013L222.266 243.075L222.303 244.284L222.376 245.017L222.193 245.347L221.497 245.53L221.057 245.567L220.471 246.043L220.068 246.593L219.701 247.143L219.591 247.875L219.775 248.425L220.288 248.645L220.544 248.938V249.231L220.507 249.671L220.031 249.927L219.885 250.404V251.027C219.885 251.027 219.885 251.393 219.885 251.613C219.885 251.833 219.738 252.089 219.738 252.089L219.665 252.272L219.188 252.309L218.675 252.272C218.675 252.272 218.492 251.759 218.529 251.613C218.565 251.466 218.455 251.063 218.382 250.917C218.309 250.77 218.199 250.624 218.016 250.624C217.833 250.624 217.466 250.624 217.466 250.624L217.063 250.733L216.404 251.21L215.964 251.54L215.304 252.382L214.718 252.895L214.242 254.031L213.948 254.618L213.362 254.911L212.666 254.874L211.86 254.544L211.274 254.068L210.944 253.811H210.651C210.651 253.811 210.394 253.811 210.248 253.811C210.101 253.811 209.845 253.848 209.845 253.848L209.588 253.775C209.588 253.775 209.295 253.775 209.185 253.592C209.075 253.408 208.965 253.298 208.965 253.298L208.525 253.042C208.525 253.042 208.562 253.079 208.196 252.822C207.829 252.566 207.389 252.309 207.389 252.309C207.389 252.309 207.06 252.089 207.023 251.943C206.986 251.796 206.4 251.027 206.4 251.027L205.814 249.891L205.521 248.975L205.447 248.059L205.484 247.216L205.264 246.593L204.825 246.153C204.825 246.153 204.348 245.97 204.275 245.787C204.202 245.604 204.128 245.237 204.128 245.237L204.385 244.871C204.385 244.871 204.605 244.688 204.825 244.614C205.044 244.541 205.118 244.468 205.118 244.468C205.118 244.468 205.191 244.358 205.191 244.138C205.191 243.918 205.191 243.625 205.191 243.625L204.898 242.965C204.898 242.965 204.825 242.599 204.788 242.452C204.751 242.306 204.092 241.097 204.092 241.097L203.322 240.51L202.736 239.851L202.406 239.448L202.223 238.385L202.26 237.103L202.296 235.637L202.26 234.904Z" fill="#427FE0" fill-opacity="0.3"/>
<path d="M155.687 197.382L156.347 196.649L156.823 196.1L157.483 195.696L158.142 195.623L158.545 195.44H159.498L160.451 195.403L161.074 195.587C161.074 195.587 161.513 195.696 161.88 195.806C162.246 195.916 162.356 195.953 162.503 195.953C162.649 195.953 162.942 195.953 162.942 195.953L163.345 196.063L163.529 196.283L163.419 196.796C163.419 196.796 163.235 197.235 163.089 197.309C162.942 197.382 162.576 197.565 162.576 197.565L162.173 197.895C162.173 197.895 162.356 198.078 162.063 198.152C161.77 198.225 161.587 198.261 161.587 198.261L161.183 198.042V197.858L160.707 197.822H160.267L159.938 198.152L158.252 198.078L156.713 198.115L156.09 197.895L155.614 197.712L155.541 197.565L155.687 197.382Z" fill="#427FE0" fill-opacity="0.3"/>
<path d="M264.978 136.31L285.911 136.533" stroke="#427FE0" stroke-width="1.68165"/>
<path d="M257.852 128.071V112.259C257.852 111.275 258.649 110.478 259.633 110.478H274.999" stroke="#427FE0" stroke-width="1.68165"/>
<path d="M109.968 42.7577V9.79866C109.968 8.81473 110.766 8.01709 111.75 8.01709H130.902" stroke="#427FE0" stroke-width="1.68165"/>
<path d="M19.3248 218.796H20.7211V216.446H22.3928C23.8088 216.446 24.5955 215.492 24.5955 214.351C24.5955 213.201 23.8187 212.237 22.3928 212.237H19.3248V218.796ZM23.1697 214.341C23.1697 214.892 22.7567 215.246 22.206 215.246H20.7211V213.437H22.206C22.7567 213.437 23.1697 213.801 23.1697 214.341ZM24.8652 216.416C24.8652 217.94 25.9567 218.914 27.4022 218.914C28.1397 218.914 28.8772 218.698 29.359 218.255L28.8084 217.449C28.5035 217.744 27.9823 217.921 27.5398 217.921C26.7335 217.921 26.2517 217.419 26.173 216.819H29.7032V216.544C29.7032 214.99 28.7395 213.928 27.3235 213.928C25.878 213.928 24.8652 215.04 24.8652 216.416ZM27.3235 214.922C28.1495 214.922 28.4642 215.521 28.4937 215.974H26.1533C26.2123 215.502 26.5467 214.922 27.3235 214.922ZM30.5069 218.796H31.7558V215.659C31.9623 215.354 32.5129 215.128 32.9259 215.128C33.0636 215.128 33.1816 215.138 33.2701 215.158V213.938C32.6801 213.938 32.0901 214.273 31.7558 214.695V214.046H30.5069V218.796ZM35.5451 218.914C36.0663 218.914 36.4006 218.776 36.5874 218.609L36.3219 217.665C36.2531 217.734 36.0761 217.803 35.8893 217.803C35.6139 217.803 35.4566 217.577 35.4566 217.282V215.138H36.4203V214.046H35.4566V212.748H34.1979V214.046H33.4112V215.138H34.1979V217.616C34.1979 218.462 34.6699 218.914 35.5451 218.914ZM40.3919 218.796H41.6407V215.423C41.6407 214.499 41.1392 213.928 40.0969 213.928C39.32 213.928 38.73 214.302 38.4252 214.666V212.237H37.1764V218.796H38.4252V215.6C38.6415 215.315 39.025 215.04 39.5069 215.04C40.0477 215.04 40.3919 215.246 40.3919 215.905V218.796Z" fill="#082258"/>
<path d="M259.633 155.017V163.702C259.633 164.686 260.431 165.483 261.415 165.483H280.789" stroke="#427FE0" stroke-width="1.68165"/>
<path d="M297.688 188.03C298.308 188.649 299.213 189.072 300.471 189.072C302.241 189.072 303.097 188.167 303.097 186.968C303.097 185.512 301.72 185.188 300.638 184.942C299.881 184.765 299.331 184.627 299.331 184.185C299.331 183.792 299.665 183.516 300.294 183.516C300.933 183.516 301.641 183.742 302.172 184.234L302.949 183.211C302.3 182.612 301.435 182.297 300.393 182.297C298.849 182.297 297.905 183.182 297.905 184.273C297.905 185.739 299.281 186.034 300.353 186.279C301.11 186.456 301.681 186.624 301.681 187.115C301.681 187.489 301.307 187.853 300.54 187.853C299.635 187.853 298.918 187.45 298.455 186.968L297.688 188.03ZM303.862 189.692L303.675 190.813C303.832 190.852 304.147 190.881 304.294 190.881C305.11 190.862 305.74 190.626 306.094 189.731L308.326 184.205H306.979L305.74 187.509L304.501 184.205H303.163L305.091 189.023L304.914 189.426C304.796 189.682 304.579 189.77 304.255 189.77C304.137 189.77 303.97 189.741 303.862 189.692ZM312.05 188.954H313.308V182.395H312.05V184.814C311.676 184.332 311.145 184.087 310.585 184.087C309.375 184.087 308.48 185.031 308.48 186.584C308.48 188.167 309.385 189.072 310.585 189.072C311.155 189.072 311.676 188.816 312.05 188.354V188.954ZM312.05 187.42C311.833 187.735 311.391 187.961 310.968 187.961C310.26 187.961 309.768 187.4 309.768 186.584C309.768 185.758 310.26 185.198 310.968 185.198C311.391 185.198 311.833 185.424 312.05 185.739V187.42ZM317.654 188.954H318.903V185.601C318.903 184.677 318.402 184.087 317.359 184.087C316.582 184.087 316.002 184.46 315.697 184.824V184.205H314.449V188.954H315.697V185.758C315.904 185.473 316.287 185.198 316.779 185.198C317.31 185.198 317.654 185.424 317.654 186.083V188.954ZM319.74 186.574C319.74 188.099 320.831 189.072 322.277 189.072C323.014 189.072 323.752 188.856 324.234 188.413L323.683 187.607C323.378 187.902 322.857 188.079 322.415 188.079C321.608 188.079 321.126 187.577 321.048 186.978H324.578V186.702C324.578 185.149 323.614 184.087 322.198 184.087C320.753 184.087 319.74 185.198 319.74 186.574ZM322.198 185.08C323.024 185.08 323.339 185.68 323.368 186.132H321.028C321.087 185.66 321.421 185.08 322.198 185.08ZM325.401 189.692L325.214 190.813C325.372 190.852 325.686 190.881 325.834 190.881C326.65 190.862 327.28 190.626 327.634 189.731L329.866 184.205H328.519L327.28 187.509L326.041 184.205H324.703L326.631 189.023L326.454 189.426C326.336 189.682 326.119 189.77 325.795 189.77C325.677 189.77 325.509 189.741 325.401 189.692Z" fill="#082258"/>
<path d="M286.246 164.746C286.246 166.811 287.819 168.149 289.737 168.149C290.926 168.149 291.861 167.657 292.529 166.91V164.402H289.402V165.602H291.153V166.398C290.867 166.654 290.336 166.9 289.737 166.9C288.547 166.9 287.681 165.985 287.681 164.746C287.681 163.507 288.547 162.593 289.737 162.593C290.425 162.593 290.985 162.957 291.29 163.419L292.451 162.79C291.949 162.013 291.094 161.354 289.737 161.354C287.819 161.354 286.246 162.672 286.246 164.746ZM295.713 168.139C297.286 168.139 298.23 166.998 298.23 165.641C298.23 164.294 297.286 163.153 295.713 163.153C294.149 163.153 293.205 164.294 293.205 165.641C293.205 166.998 294.149 168.139 295.713 168.139ZM295.713 167.028C294.936 167.028 294.503 166.389 294.503 165.641C294.503 164.904 294.936 164.265 295.713 164.265C296.489 164.265 296.932 164.904 296.932 165.641C296.932 166.389 296.489 167.028 295.713 167.028ZM299.058 168.021H300.307V161.462H299.058V168.021ZM304.712 168.021H305.97V161.462H304.712V163.881C304.338 163.399 303.807 163.153 303.246 163.153C302.037 163.153 301.142 164.097 301.142 165.651C301.142 167.234 302.047 168.139 303.246 168.139C303.817 168.139 304.338 167.883 304.712 167.421V168.021ZM304.712 166.487C304.495 166.802 304.053 167.028 303.63 167.028C302.922 167.028 302.43 166.467 302.43 165.651C302.43 164.825 302.922 164.265 303.63 164.265C304.053 164.265 304.495 164.491 304.712 164.805V166.487ZM312.685 168.139C314.179 168.139 315.005 167.342 315.477 166.526L314.278 165.946C314.002 166.487 313.412 166.9 312.685 166.9C311.544 166.9 310.679 165.985 310.679 164.746C310.679 163.507 311.544 162.593 312.685 162.593C313.412 162.593 314.002 163.016 314.278 163.547L315.477 162.957C315.015 162.141 314.179 161.354 312.685 161.354C310.767 161.354 309.243 162.731 309.243 164.746C309.243 166.762 310.767 168.139 312.685 168.139ZM318.383 168.139C319.957 168.139 320.901 166.998 320.901 165.641C320.901 164.294 319.957 163.153 318.383 163.153C316.82 163.153 315.876 164.294 315.876 165.641C315.876 166.998 316.82 168.139 318.383 168.139ZM318.383 167.028C317.606 167.028 317.174 166.389 317.174 165.641C317.174 164.904 317.606 164.265 318.383 164.265C319.16 164.265 319.603 164.904 319.603 165.641C319.603 166.389 319.16 167.028 318.383 167.028ZM324.58 168.021H325.829V164.953C325.829 163.586 324.836 163.153 323.754 163.153C323.007 163.153 322.26 163.389 321.68 163.901L322.152 164.737C322.555 164.363 323.027 164.176 323.538 164.176C324.167 164.176 324.58 164.491 324.58 164.973V165.631C324.266 165.248 323.705 165.051 323.076 165.051C322.319 165.051 321.424 165.454 321.424 166.566C321.424 167.628 322.319 168.139 323.076 168.139C323.695 168.139 324.256 167.913 324.58 167.529V168.021ZM324.58 166.88C324.374 167.156 323.981 167.293 323.577 167.293C323.086 167.293 322.683 167.038 322.683 166.595C322.683 166.143 323.086 165.877 323.577 165.877C323.981 165.877 324.374 166.015 324.58 166.29V166.88ZM326.557 167.401C327.058 167.864 327.855 168.139 328.681 168.139C329.998 168.139 330.736 167.49 330.736 166.615C330.736 165.435 329.644 165.218 328.828 165.061C328.297 164.953 327.924 164.845 327.924 164.55C327.924 164.274 328.219 164.107 328.671 164.107C329.251 164.107 329.792 164.353 330.077 164.658L330.569 163.802C330.107 163.429 329.467 163.153 328.661 163.153C327.412 163.153 326.714 163.852 326.714 164.648C326.714 165.779 327.766 165.976 328.582 166.133C329.123 166.241 329.536 166.359 329.536 166.693C329.536 166.988 329.281 167.175 328.74 167.175C328.15 167.175 327.442 166.851 327.098 166.526L326.557 167.401ZM333.151 168.139C333.672 168.139 334.006 168.001 334.193 167.834L333.927 166.89C333.859 166.959 333.682 167.028 333.495 167.028C333.219 167.028 333.062 166.802 333.062 166.507V164.363H334.026V163.271H333.062V161.973H331.803V163.271H331.017V164.363H331.803V166.841C331.803 167.687 332.275 168.139 333.151 168.139Z" fill="#082258"/>
<path d="M295.914 139.07H299.474C300.722 139.07 301.381 138.284 301.381 137.3C301.381 136.474 300.821 135.796 300.123 135.688C300.742 135.56 301.253 135.009 301.253 134.183C301.253 133.308 300.614 132.511 299.365 132.511H295.914V139.07ZM297.31 135.147V133.701H299.061C299.533 133.701 299.828 134.016 299.828 134.419C299.828 134.842 299.533 135.147 299.061 135.147H297.31ZM297.31 137.88V136.337H299.11C299.66 136.337 299.955 136.691 299.955 137.104C299.955 137.576 299.641 137.88 299.11 137.88H297.31ZM302.306 139.07H303.555V135.933C303.762 135.629 304.312 135.402 304.725 135.402C304.863 135.402 304.981 135.412 305.07 135.432V134.213C304.48 134.213 303.89 134.547 303.555 134.97V134.321H302.306V139.07ZM306.371 133.623C306.784 133.623 307.118 133.288 307.118 132.875C307.118 132.462 306.784 132.128 306.371 132.128C305.968 132.128 305.624 132.462 305.624 132.875C305.624 133.288 305.968 133.623 306.371 133.623ZM305.752 139.07H307V134.321H305.752V139.07ZM307.727 138.451C308.229 138.913 309.025 139.188 309.851 139.188C311.169 139.188 311.907 138.539 311.907 137.664C311.907 136.484 310.815 136.268 309.999 136.11C309.468 136.002 309.094 135.894 309.094 135.599C309.094 135.324 309.389 135.157 309.842 135.157C310.422 135.157 310.963 135.402 311.248 135.707L311.739 134.852C311.277 134.478 310.638 134.203 309.832 134.203C308.583 134.203 307.885 134.901 307.885 135.697C307.885 136.828 308.937 137.025 309.753 137.182C310.294 137.29 310.707 137.408 310.707 137.743C310.707 138.038 310.451 138.225 309.91 138.225C309.32 138.225 308.612 137.9 308.268 137.576L307.727 138.451ZM312.728 139.07H313.977V138.47C314.351 138.933 314.872 139.188 315.442 139.188C316.642 139.188 317.547 138.284 317.547 136.7C317.547 135.147 316.652 134.203 315.442 134.203C314.882 134.203 314.351 134.449 313.977 134.93V132.511H312.728V139.07ZM313.977 137.546V135.865C314.184 135.55 314.646 135.314 315.049 135.314C315.777 135.314 316.259 135.874 316.259 136.7C316.259 137.526 315.777 138.077 315.049 138.077C314.646 138.077 314.184 137.851 313.977 137.546ZM321.243 139.07H322.492V136.002C322.492 134.635 321.499 134.203 320.417 134.203C319.67 134.203 318.923 134.439 318.343 134.95L318.815 135.786C319.218 135.412 319.69 135.225 320.201 135.225C320.83 135.225 321.243 135.54 321.243 136.022V136.681C320.929 136.297 320.368 136.101 319.739 136.101C318.982 136.101 318.087 136.504 318.087 137.615C318.087 138.677 318.982 139.188 319.739 139.188C320.358 139.188 320.919 138.962 321.243 138.579V139.07ZM321.243 137.93C321.037 138.205 320.644 138.343 320.24 138.343C319.749 138.343 319.346 138.087 319.346 137.644C319.346 137.192 319.749 136.927 320.24 136.927C320.644 136.927 321.037 137.064 321.243 137.34V137.93ZM326.838 139.07H328.087V135.717C328.087 134.793 327.586 134.203 326.543 134.203C325.767 134.203 325.186 134.576 324.882 134.94V134.321H323.633V139.07H324.882V135.874C325.088 135.589 325.472 135.314 325.963 135.314C326.494 135.314 326.838 135.54 326.838 136.199V139.07ZM328.924 136.691C328.924 138.215 330.016 139.188 331.461 139.188C332.199 139.188 332.936 138.972 333.418 138.529L332.867 137.723C332.562 138.018 332.041 138.195 331.599 138.195C330.792 138.195 330.311 137.694 330.232 137.094H333.762V136.818C333.762 135.265 332.798 134.203 331.382 134.203C329.937 134.203 328.924 135.314 328.924 136.691ZM331.382 135.196C332.208 135.196 332.523 135.796 332.553 136.248H330.212C330.271 135.776 330.606 135.196 331.382 135.196Z" fill="#082258"/>
<path d="M281.209 112.313C281.829 112.933 282.733 113.356 283.992 113.356C285.762 113.356 286.618 112.451 286.618 111.251C286.618 109.796 285.241 109.472 284.159 109.226C283.402 109.049 282.851 108.911 282.851 108.469C282.851 108.075 283.186 107.8 283.815 107.8C284.454 107.8 285.162 108.026 285.693 108.518L286.47 107.495C285.821 106.895 284.956 106.581 283.913 106.581C282.369 106.581 281.425 107.466 281.425 108.557C281.425 110.022 282.802 110.317 283.874 110.563C284.631 110.74 285.201 110.907 285.201 111.399C285.201 111.773 284.828 112.136 284.061 112.136C283.156 112.136 282.438 111.733 281.976 111.251L281.209 112.313ZM290.636 113.238H291.884V108.488H290.636V111.704C290.419 111.979 290.036 112.245 289.554 112.245C289.023 112.245 288.679 112.028 288.679 111.369V108.488H287.43V111.861C287.43 112.785 287.922 113.356 288.964 113.356C289.741 113.356 290.311 113.002 290.636 112.638V113.238ZM296.232 113.238H297.481V109.885C297.481 108.96 296.979 108.37 295.937 108.37C295.16 108.37 294.58 108.744 294.275 109.108V108.488H293.026V113.238H294.275V110.042C294.481 109.757 294.865 109.481 295.357 109.481C295.888 109.481 296.232 109.708 296.232 110.366V113.238ZM298.209 112.618C298.711 113.08 299.507 113.356 300.333 113.356C301.651 113.356 302.388 112.707 302.388 111.832C302.388 110.652 301.297 110.435 300.481 110.278C299.95 110.17 299.576 110.062 299.576 109.767C299.576 109.491 299.871 109.324 300.323 109.324C300.904 109.324 301.444 109.57 301.73 109.875L302.221 109.019C301.759 108.646 301.12 108.37 300.314 108.37C299.065 108.37 298.367 109.068 298.367 109.865C298.367 110.996 299.419 111.192 300.235 111.35C300.776 111.458 301.189 111.576 301.189 111.91C301.189 112.205 300.933 112.392 300.392 112.392C299.802 112.392 299.094 112.068 298.75 111.743L298.209 112.618ZM306.426 113.238H307.675V109.865C307.675 108.941 307.173 108.37 306.131 108.37C305.354 108.37 304.764 108.744 304.459 109.108V106.679H303.21V113.238H304.459V110.042C304.675 109.757 305.059 109.481 305.541 109.481C306.082 109.481 306.426 109.688 306.426 110.347V113.238ZM309.435 107.79C309.848 107.79 310.183 107.456 310.183 107.043C310.183 106.63 309.848 106.295 309.435 106.295C309.032 106.295 308.688 106.63 308.688 107.043C308.688 107.456 309.032 107.79 309.435 107.79ZM308.816 113.238H310.065V108.488H308.816V113.238ZM314.411 113.238H315.659V109.885C315.659 108.96 315.158 108.37 314.116 108.37C313.339 108.37 312.758 108.744 312.454 109.108V108.488H311.205V113.238H312.454V110.042C312.66 109.757 313.044 109.481 313.535 109.481C314.066 109.481 314.411 109.708 314.411 110.366V113.238ZM316.496 110.858C316.496 112.382 317.588 113.356 319.033 113.356C319.771 113.356 320.508 113.139 320.99 112.697L320.439 111.891C320.135 112.186 319.613 112.363 319.171 112.363C318.365 112.363 317.883 111.861 317.804 111.261H321.334V110.986C321.334 109.432 320.371 108.37 318.955 108.37C317.509 108.37 316.496 109.481 316.496 110.858ZM318.955 109.363C319.781 109.363 320.095 109.963 320.125 110.416H317.784C317.843 109.944 318.178 109.363 318.955 109.363ZM327.712 113.356C329.207 113.356 330.033 112.559 330.505 111.743L329.305 111.163C329.03 111.704 328.44 112.117 327.712 112.117C326.571 112.117 325.706 111.202 325.706 109.963C325.706 108.724 326.571 107.81 327.712 107.81C328.44 107.81 329.03 108.233 329.305 108.764L330.505 108.174C330.043 107.357 329.207 106.571 327.712 106.571C325.795 106.571 324.27 107.947 324.27 109.963C324.27 111.979 325.795 113.356 327.712 113.356ZM333.411 113.356C334.984 113.356 335.928 112.215 335.928 110.858C335.928 109.511 334.984 108.37 333.411 108.37C331.847 108.37 330.903 109.511 330.903 110.858C330.903 112.215 331.847 113.356 333.411 113.356ZM333.411 112.245C332.634 112.245 332.201 111.605 332.201 110.858C332.201 110.121 332.634 109.481 333.411 109.481C334.188 109.481 334.63 110.121 334.63 110.858C334.63 111.605 334.188 112.245 333.411 112.245ZM339.608 113.238H340.857V110.17C340.857 108.803 339.864 108.37 338.782 108.37C338.035 108.37 337.287 108.606 336.707 109.118L337.179 109.953C337.582 109.58 338.054 109.393 338.566 109.393C339.195 109.393 339.608 109.708 339.608 110.189V110.848C339.293 110.465 338.733 110.268 338.104 110.268C337.346 110.268 336.452 110.671 336.452 111.782C336.452 112.844 337.346 113.356 338.104 113.356C338.723 113.356 339.284 113.13 339.608 112.746V113.238ZM339.608 112.097C339.402 112.372 339.008 112.51 338.605 112.51C338.113 112.51 337.71 112.254 337.71 111.812C337.71 111.36 338.113 111.094 338.605 111.094C339.008 111.094 339.402 111.232 339.608 111.507V112.097ZM341.584 112.618C342.086 113.08 342.882 113.356 343.708 113.356C345.026 113.356 345.763 112.707 345.763 111.832C345.763 110.652 344.672 110.435 343.856 110.278C343.325 110.17 342.951 110.062 342.951 109.767C342.951 109.491 343.246 109.324 343.698 109.324C344.279 109.324 344.819 109.57 345.105 109.875L345.596 109.019C345.134 108.646 344.495 108.37 343.689 108.37C342.44 108.37 341.742 109.068 341.742 109.865C341.742 110.996 342.794 111.192 343.61 111.35C344.151 111.458 344.564 111.576 344.564 111.91C344.564 112.205 344.308 112.392 343.767 112.392C343.177 112.392 342.469 112.068 342.125 111.743L341.584 112.618ZM348.178 113.356C348.699 113.356 349.034 113.218 349.221 113.051L348.955 112.107C348.886 112.176 348.709 112.245 348.522 112.245C348.247 112.245 348.09 112.018 348.09 111.723V109.58H349.053V108.488H348.09V107.19H346.831V108.488H346.044V109.58H346.831V112.058C346.831 112.903 347.303 113.356 348.178 113.356Z" fill="#082258"/>
<path d="M138.232 11H140.818C142.873 11 144.299 9.70199 144.299 7.72547C144.299 5.74895 142.873 4.44111 140.818 4.44111H138.232V11ZM139.628 9.77082V5.67029H140.818C142.165 5.67029 142.873 6.56513 142.873 7.72547C142.873 8.83665 142.116 9.77082 140.818 9.77082H139.628ZM148.014 11H149.263V7.93197C149.263 6.56513 148.269 6.13246 147.188 6.13246C146.44 6.13246 145.693 6.36846 145.113 6.8798L145.585 7.71564C145.988 7.34197 146.46 7.15513 146.971 7.15513C147.601 7.15513 148.014 7.4698 148.014 7.95164V8.61048C147.699 8.22698 147.139 8.03031 146.509 8.03031C145.752 8.03031 144.857 8.43348 144.857 9.54465C144.857 10.6067 145.752 11.118 146.509 11.118C147.129 11.118 147.689 10.8918 148.014 10.5083V11ZM148.014 9.85932C147.807 10.1347 147.414 10.2723 147.011 10.2723C146.519 10.2723 146.116 10.0167 146.116 9.57415C146.116 9.12182 146.519 8.85631 147.011 8.85631C147.414 8.85631 147.807 8.99398 148.014 9.26932V9.85932ZM150.403 11H151.652V7.86314C151.858 7.5583 152.409 7.33213 152.822 7.33213C152.96 7.33213 153.078 7.34197 153.166 7.36163V6.14229C152.576 6.14229 151.986 6.47663 151.652 6.89946V6.25046H150.403V11ZM158.018 11H159.345L160.791 6.25046H159.493L158.608 9.44632L157.565 6.25046H156.454L155.412 9.44632L154.527 6.25046H153.229L154.674 11H156.012L157.015 7.7648L158.018 11ZM161.927 5.55228C162.34 5.55228 162.674 5.21795 162.674 4.80494C162.674 4.39194 162.34 4.0576 161.927 4.0576C161.524 4.0576 161.18 4.39194 161.18 4.80494C161.18 5.21795 161.524 5.55228 161.927 5.55228ZM161.307 11H162.556V6.25046H161.307V11ZM166.902 11H168.151V7.6468C168.151 6.72246 167.649 6.13246 166.607 6.13246C165.83 6.13246 165.25 6.50613 164.945 6.86996V6.25046H163.696V11H164.945V7.80414C165.152 7.51897 165.535 7.24363 166.027 7.24363C166.558 7.24363 166.902 7.4698 166.902 8.12864V11Z" fill="#082258"/>
<path d="M259.419 252.403H260.825V245.844H259.419V248.42H256.321V245.844H254.925V252.403H256.321V249.649H259.419V252.403ZM264.192 252.521C265.765 252.521 266.709 251.38 266.709 250.023C266.709 248.676 265.765 247.535 264.192 247.535C262.629 247.535 261.685 248.676 261.685 250.023C261.685 251.38 262.629 252.521 264.192 252.521ZM264.192 251.41C263.415 251.41 262.983 250.77 262.983 250.023C262.983 249.286 263.415 248.646 264.192 248.646C264.969 248.646 265.411 249.286 265.411 250.023C265.411 250.77 264.969 251.41 264.192 251.41ZM267.538 252.403H268.786V251.803C269.16 252.265 269.681 252.521 270.252 252.521C271.451 252.521 272.356 251.616 272.356 250.033C272.356 248.479 271.461 247.535 270.252 247.535C269.691 247.535 269.16 247.781 268.786 248.263V245.844H267.538V252.403ZM268.786 250.879V249.197C268.993 248.882 269.455 248.646 269.858 248.646C270.586 248.646 271.068 249.207 271.068 250.033C271.068 250.859 270.586 251.41 269.858 251.41C269.455 251.41 268.993 251.183 268.786 250.879ZM276.053 252.403H277.302V249.335C277.302 247.968 276.308 247.535 275.227 247.535C274.479 247.535 273.732 247.771 273.152 248.283L273.624 249.118C274.027 248.745 274.499 248.558 275.01 248.558C275.64 248.558 276.053 248.873 276.053 249.354V250.013C275.738 249.63 275.178 249.433 274.548 249.433C273.791 249.433 272.896 249.836 272.896 250.947C272.896 252.009 273.791 252.521 274.548 252.521C275.168 252.521 275.728 252.295 276.053 251.911V252.403ZM276.053 251.262C275.846 251.537 275.453 251.675 275.05 251.675C274.558 251.675 274.155 251.419 274.155 250.977C274.155 250.525 274.558 250.259 275.05 250.259C275.453 250.259 275.846 250.397 276.053 250.672V251.262ZM278.442 252.403H279.691V249.266C279.897 248.961 280.448 248.735 280.861 248.735C280.999 248.735 281.117 248.745 281.205 248.764V247.545C280.615 247.545 280.025 247.879 279.691 248.302V247.653H278.442V252.403ZM283.48 252.521C284.001 252.521 284.336 252.383 284.522 252.216L284.257 251.272C284.188 251.341 284.011 251.41 283.824 251.41C283.549 251.41 283.392 251.183 283.392 250.888V248.745H284.355V247.653H283.392V246.355H282.133V247.653H281.346V248.745H282.133V251.223C282.133 252.068 282.605 252.521 283.48 252.521Z" fill="#082258"/>
<path d="M32.0381 182.631V205.346" stroke="#427FE0" stroke-width="1.68165"/>
<circle cx="31.9272" cy="182.743" r="5.2338" fill="#427FE0"/>
<circle cx="109.858" cy="42.6469" r="5.2338" fill="#427FE0"/>
<circle cx="168.204" cy="189.181" r="5.2338" fill="#427FE0"/>
<path d="M168.519 166.887H169.915V164.537H171.587C173.003 164.537 173.789 163.583 173.789 162.443C173.789 161.292 173.013 160.328 171.587 160.328H168.519V166.887ZM172.364 162.433C172.364 162.983 171.95 163.337 171.4 163.337H169.915V161.528H171.4C171.95 161.528 172.364 161.892 172.364 162.433ZM177.187 166.887H178.436V163.819C178.436 162.452 177.442 162.02 176.361 162.02C175.613 162.02 174.866 162.256 174.286 162.767L174.758 163.603C175.161 163.229 175.633 163.042 176.144 163.042C176.774 163.042 177.187 163.357 177.187 163.839V164.498C176.872 164.114 176.312 163.918 175.682 163.918C174.925 163.918 174.03 164.321 174.03 165.432C174.03 166.494 174.925 167.005 175.682 167.005C176.302 167.005 176.862 166.779 177.187 166.396V166.887ZM177.187 165.747C176.98 166.022 176.587 166.16 176.184 166.16C175.692 166.16 175.289 165.904 175.289 165.461C175.289 165.009 175.692 164.744 176.184 164.744C176.587 164.744 176.98 164.881 177.187 165.157V165.747ZM179.576 166.887H180.825V163.75C181.031 163.446 181.582 163.219 181.995 163.219C182.133 163.219 182.251 163.229 182.339 163.249V162.029C181.749 162.029 181.159 162.364 180.825 162.787V162.138H179.576V166.887ZM185.873 166.887H187.122V163.819C187.122 162.452 186.128 162.02 185.047 162.02C184.299 162.02 183.552 162.256 182.972 162.767L183.444 163.603C183.847 163.229 184.319 163.042 184.83 163.042C185.46 163.042 185.873 163.357 185.873 163.839V164.498C185.558 164.114 184.998 163.918 184.368 163.918C183.611 163.918 182.716 164.321 182.716 165.432C182.716 166.494 183.611 167.005 184.368 167.005C184.988 167.005 185.548 166.779 185.873 166.396V166.887ZM185.873 165.747C185.666 166.022 185.273 166.16 184.87 166.16C184.378 166.16 183.975 165.904 183.975 165.461C183.975 165.009 184.378 164.744 184.87 164.744C185.273 164.744 185.666 164.881 185.873 165.157V165.747ZM194.152 166.887H195.411V163.455C195.411 162.482 194.89 162.02 194.015 162.02C193.287 162.02 192.658 162.452 192.382 162.885C192.205 162.344 191.763 162.02 191.065 162.02C190.337 162.02 189.708 162.472 189.511 162.757V162.138H188.262V166.887H189.511V163.691C189.698 163.426 190.062 163.131 190.494 163.131C191.006 163.131 191.202 163.446 191.202 163.888V166.887H192.461V163.682C192.638 163.426 193.002 163.131 193.444 163.131C193.956 163.131 194.152 163.446 194.152 163.888V166.887ZM199.389 166.887H200.638V163.819C200.638 162.452 199.645 162.02 198.563 162.02C197.816 162.02 197.068 162.256 196.488 162.767L196.96 163.603C197.363 163.229 197.835 163.042 198.347 163.042C198.976 163.042 199.389 163.357 199.389 163.839V164.498C199.074 164.114 198.514 163.918 197.885 163.918C197.127 163.918 196.233 164.321 196.233 165.432C196.233 166.494 197.127 167.005 197.885 167.005C198.504 167.005 199.065 166.779 199.389 166.396V166.887ZM199.389 165.747C199.183 166.022 198.789 166.16 198.386 166.16C197.894 166.16 197.491 165.904 197.491 165.461C197.491 165.009 197.894 164.744 198.386 164.744C198.789 164.744 199.183 164.881 199.389 165.157V165.747ZM203.371 167.005C203.893 167.005 204.227 166.868 204.414 166.7L204.148 165.756C204.079 165.825 203.902 165.894 203.716 165.894C203.44 165.894 203.283 165.668 203.283 165.373V163.229H204.247V162.138H203.283V160.84H202.024V162.138H201.237V163.229H202.024V165.707C202.024 166.553 202.496 167.005 203.371 167.005ZM206.596 167.005C207.117 167.005 207.451 166.868 207.638 166.7L207.372 165.756C207.304 165.825 207.127 165.894 206.94 165.894C206.664 165.894 206.507 165.668 206.507 165.373V163.229H207.471V162.138H206.507V160.84H205.248V162.138H204.462V163.229H205.248V165.707C205.248 166.553 205.72 167.005 206.596 167.005ZM211.079 166.887H212.327V163.819C212.327 162.452 211.334 162.02 210.253 162.02C209.505 162.02 208.758 162.256 208.178 162.767L208.65 163.603C209.053 163.229 209.525 163.042 210.036 163.042C210.666 163.042 211.079 163.357 211.079 163.839V164.498C210.764 164.114 210.203 163.918 209.574 163.918C208.817 163.918 207.922 164.321 207.922 165.432C207.922 166.494 208.817 167.005 209.574 167.005C210.194 167.005 210.754 166.779 211.079 166.396V166.887ZM211.079 165.747C210.872 166.022 210.479 166.16 210.076 166.16C209.584 166.16 209.181 165.904 209.181 165.461C209.181 165.009 209.584 164.744 210.076 164.744C210.479 164.744 210.872 164.881 211.079 165.157V165.747Z" fill="#082258"/>
<path d="M95.167 178.022H96.6912L94.164 171.464H92.4136L89.8766 178.022H91.4106L91.8236 176.892H94.754L95.167 178.022ZM93.2888 172.673L94.3705 175.682H92.1973L93.2888 172.673ZM100.434 178.022H101.692V171.464H100.434V173.883C100.06 173.401 99.529 173.155 98.9685 173.155C97.759 173.155 96.8642 174.099 96.8642 175.653C96.8642 177.236 97.7689 178.14 98.9685 178.14C99.5389 178.14 100.06 177.885 100.434 177.423V178.022ZM100.434 176.488C100.217 176.803 99.7749 177.029 99.352 177.029C98.644 177.029 98.1524 176.469 98.1524 175.653C98.1524 174.827 98.644 174.266 99.352 174.266C99.7749 174.266 100.217 174.492 100.434 174.807V176.488ZM102.528 175.643C102.528 177.167 103.619 178.14 105.065 178.14C105.802 178.14 106.54 177.924 107.021 177.482L106.471 176.675C106.166 176.97 105.645 177.147 105.202 177.147C104.396 177.147 103.914 176.646 103.835 176.046H107.366V175.771C107.366 174.217 106.402 173.155 104.986 173.155C103.54 173.155 102.528 174.266 102.528 175.643ZM104.986 174.148C105.812 174.148 106.127 174.748 106.156 175.2H103.816C103.875 174.728 104.209 174.148 104.986 174.148ZM108.169 178.022H109.418V171.464H108.169V178.022ZM113.41 178.022H114.659V174.954C114.659 173.588 113.666 173.155 112.584 173.155C111.837 173.155 111.089 173.391 110.509 173.902L110.981 174.738C111.384 174.364 111.856 174.178 112.368 174.178C112.997 174.178 113.41 174.492 113.41 174.974V175.633C113.095 175.249 112.535 175.053 111.905 175.053C111.148 175.053 110.253 175.456 110.253 176.567C110.253 177.629 111.148 178.14 111.905 178.14C112.525 178.14 113.085 177.914 113.41 177.531V178.022ZM113.41 176.882C113.203 177.157 112.81 177.295 112.407 177.295C111.915 177.295 111.512 177.039 111.512 176.597C111.512 176.144 111.915 175.879 112.407 175.879C112.81 175.879 113.203 176.016 113.41 176.292V176.882ZM116.419 172.575C116.832 172.575 117.166 172.24 117.166 171.827C117.166 171.414 116.832 171.08 116.419 171.08C116.015 171.08 115.671 171.414 115.671 171.827C115.671 172.24 116.015 172.575 116.419 172.575ZM115.799 178.022H117.048V173.273H115.799V178.022ZM121.453 178.022H122.711V171.464H121.453V173.883C121.079 173.401 120.548 173.155 119.987 173.155C118.778 173.155 117.883 174.099 117.883 175.653C117.883 177.236 118.788 178.14 119.987 178.14C120.558 178.14 121.079 177.885 121.453 177.423V178.022ZM121.453 176.488C121.236 176.803 120.794 177.029 120.371 177.029C119.663 177.029 119.171 176.469 119.171 175.653C119.171 174.827 119.663 174.266 120.371 174.266C120.794 174.266 121.236 174.492 121.453 174.807V176.488ZM123.547 175.643C123.547 177.167 124.638 178.14 126.084 178.14C126.821 178.14 127.559 177.924 128.04 177.482L127.49 176.675C127.185 176.97 126.664 177.147 126.221 177.147C125.415 177.147 124.933 176.646 124.854 176.046H128.385V175.771C128.385 174.217 127.421 173.155 126.005 173.155C124.559 173.155 123.547 174.266 123.547 175.643ZM126.005 174.148C126.831 174.148 127.146 174.748 127.175 175.2H124.835C124.894 174.728 125.228 174.148 126.005 174.148Z" fill="#082258"/>
<path d="M264.287 204.864C265.782 204.864 266.608 204.067 267.08 203.251L265.88 202.671C265.605 203.212 265.015 203.625 264.287 203.625C263.147 203.625 262.281 202.71 262.281 201.471C262.281 200.232 263.147 199.318 264.287 199.318C265.015 199.318 265.605 199.74 265.88 200.271L267.08 199.681C266.618 198.865 265.782 198.079 264.287 198.079C262.37 198.079 260.846 199.455 260.846 201.471C260.846 203.487 262.37 204.864 264.287 204.864ZM270.635 204.746H271.884V201.678C271.884 200.311 270.891 199.878 269.809 199.878C269.062 199.878 268.314 200.114 267.734 200.625L268.206 201.461C268.609 201.088 269.081 200.901 269.593 200.901C270.222 200.901 270.635 201.215 270.635 201.697V202.356C270.32 201.973 269.76 201.776 269.13 201.776C268.373 201.776 267.478 202.179 267.478 203.29C267.478 204.352 268.373 204.864 269.13 204.864C269.75 204.864 270.31 204.637 270.635 204.254V204.746ZM270.635 203.605C270.428 203.88 270.035 204.018 269.632 204.018C269.14 204.018 268.737 203.762 268.737 203.32C268.737 202.867 269.14 202.602 269.632 202.602C270.035 202.602 270.428 202.74 270.635 203.015V203.605ZM276.23 204.746H277.479V201.392C277.479 200.468 276.977 199.878 275.935 199.878C275.158 199.878 274.578 200.252 274.273 200.616V199.996H273.024V204.746H274.273V201.55C274.48 201.265 274.863 200.989 275.355 200.989C275.886 200.989 276.23 201.215 276.23 201.874V204.746ZM278.62 204.746H279.869V204.146C280.243 204.608 280.764 204.864 281.334 204.864C282.534 204.864 283.439 203.959 283.439 202.376C283.439 200.822 282.544 199.878 281.334 199.878C280.774 199.878 280.243 200.124 279.869 200.606V198.187H278.62V204.746ZM279.869 203.221V201.54C280.076 201.225 280.538 200.989 280.941 200.989C281.669 200.989 282.151 201.55 282.151 202.376C282.151 203.202 281.669 203.752 280.941 203.752C280.538 203.752 280.076 203.526 279.869 203.221ZM283.979 202.366C283.979 203.89 285.071 204.864 286.516 204.864C287.254 204.864 287.991 204.647 288.473 204.205L287.922 203.398C287.617 203.693 287.096 203.87 286.654 203.87C285.847 203.87 285.366 203.369 285.287 202.769H288.817V202.494C288.817 200.94 287.853 199.878 286.437 199.878C284.992 199.878 283.979 200.989 283.979 202.366ZM286.437 200.871C287.263 200.871 287.578 201.471 287.608 201.923H285.267C285.326 201.451 285.661 200.871 286.437 200.871ZM289.621 204.746H290.87V201.609C291.076 201.304 291.627 201.078 292.04 201.078C292.177 201.078 292.295 201.088 292.384 201.107V199.888C291.794 199.888 291.204 200.222 290.87 200.645V199.996H289.621V204.746ZM293.066 204.746H294.315V201.609C294.521 201.304 295.072 201.078 295.485 201.078C295.623 201.078 295.741 201.088 295.829 201.107V199.888C295.239 199.888 294.649 200.222 294.315 200.645V199.996H293.066V204.746ZM299.363 204.746H300.612V201.678C300.612 200.311 299.618 199.878 298.537 199.878C297.789 199.878 297.042 200.114 296.462 200.625L296.934 201.461C297.337 201.088 297.809 200.901 298.32 200.901C298.95 200.901 299.363 201.215 299.363 201.697V202.356C299.048 201.973 298.488 201.776 297.858 201.776C297.101 201.776 296.206 202.179 296.206 203.29C296.206 204.352 297.101 204.864 297.858 204.864C298.478 204.864 299.038 204.637 299.363 204.254V204.746ZM299.363 203.605C299.156 203.88 298.763 204.018 298.36 204.018C297.868 204.018 297.465 203.762 297.465 203.32C297.465 202.867 297.868 202.602 298.36 202.602C298.763 202.602 299.156 202.74 299.363 203.015V203.605Z" fill="#082258"/>
<path d="M244.149 223.007H245.555V216.448H243.588L241.995 220.539L240.402 216.448H238.445V223.007H239.841V218.287L241.69 223.007H242.3L244.149 218.287V223.007ZM246.425 220.627C246.425 222.151 247.516 223.125 248.962 223.125C249.699 223.125 250.437 222.909 250.919 222.466L250.368 221.66C250.063 221.955 249.542 222.132 249.099 222.132C248.293 222.132 247.811 221.63 247.733 221.03H251.263V220.755C251.263 219.201 250.299 218.139 248.883 218.139C247.438 218.139 246.425 219.25 246.425 220.627ZM248.883 219.132C249.709 219.132 250.024 219.732 250.053 220.185H247.713C247.772 219.713 248.106 219.132 248.883 219.132ZM252.066 223.007H253.315V216.448H252.066V223.007ZM254.455 223.007H255.704V222.407C256.078 222.869 256.599 223.125 257.169 223.125C258.369 223.125 259.274 222.22 259.274 220.637C259.274 219.083 258.379 218.139 257.169 218.139C256.609 218.139 256.078 218.385 255.704 218.867V216.448H254.455V223.007ZM255.704 221.483V219.801C255.911 219.486 256.373 219.25 256.776 219.25C257.504 219.25 257.985 219.811 257.985 220.637C257.985 221.463 257.504 222.014 256.776 222.014C256.373 222.014 255.911 221.787 255.704 221.483ZM262.321 223.125C263.895 223.125 264.839 221.984 264.839 220.627C264.839 219.28 263.895 218.139 262.321 218.139C260.758 218.139 259.814 219.28 259.814 220.627C259.814 221.984 260.758 223.125 262.321 223.125ZM262.321 222.014C261.545 222.014 261.112 221.374 261.112 220.627C261.112 219.89 261.545 219.25 262.321 219.25C263.098 219.25 263.541 219.89 263.541 220.627C263.541 221.374 263.098 222.014 262.321 222.014ZM268.873 223.007H270.121V218.257H268.873V221.473C268.656 221.748 268.273 222.014 267.791 222.014C267.26 222.014 266.916 221.797 266.916 221.138V218.257H265.667V221.63C265.667 222.554 266.159 223.125 267.201 223.125C267.978 223.125 268.548 222.771 268.873 222.407V223.007ZM271.263 223.007H272.512V219.87C272.718 219.565 273.269 219.339 273.682 219.339C273.82 219.339 273.938 219.349 274.026 219.368V218.149C273.436 218.149 272.846 218.483 272.512 218.906V218.257H271.263V223.007ZM277.914 223.007H279.163V219.654C279.163 218.729 278.661 218.139 277.619 218.139C276.842 218.139 276.262 218.513 275.957 218.877V218.257H274.708V223.007H275.957V219.811C276.164 219.526 276.547 219.25 277.039 219.25C277.57 219.25 277.914 219.477 277.914 220.135V223.007ZM280 220.627C280 222.151 281.091 223.125 282.537 223.125C283.274 223.125 284.012 222.909 284.494 222.466L283.943 221.66C283.638 221.955 283.117 222.132 282.674 222.132C281.868 222.132 281.386 221.63 281.307 221.03H284.838V220.755C284.838 219.201 283.874 218.139 282.458 218.139C281.012 218.139 280 219.25 280 220.627ZM282.458 219.132C283.284 219.132 283.599 219.732 283.628 220.185H281.288C281.347 219.713 281.681 219.132 282.458 219.132Z" fill="#082258"/>
<path d="M115.071 223.007H118.631C119.88 223.007 120.539 222.22 120.539 221.237C120.539 220.411 119.978 219.732 119.28 219.624C119.9 219.496 120.411 218.946 120.411 218.12C120.411 217.244 119.772 216.448 118.523 216.448H115.071V223.007ZM116.468 219.083V217.638H118.218C118.69 217.638 118.985 217.952 118.985 218.356C118.985 218.778 118.69 219.083 118.218 219.083H116.468ZM116.468 221.817V220.273H118.267C118.818 220.273 119.113 220.627 119.113 221.04C119.113 221.512 118.798 221.817 118.267 221.817H116.468ZM121.159 220.627C121.159 222.151 122.251 223.125 123.696 223.125C124.434 223.125 125.171 222.909 125.653 222.466L125.102 221.66C124.797 221.955 124.276 222.132 123.834 222.132C123.027 222.132 122.546 221.63 122.467 221.03H125.997V220.755C125.997 219.201 125.033 218.139 123.617 218.139C122.172 218.139 121.159 219.25 121.159 220.627ZM123.617 219.132C124.443 219.132 124.758 219.732 124.788 220.185H122.447C122.506 219.713 122.841 219.132 123.617 219.132ZM130.007 223.007H131.255V219.654C131.255 218.729 130.754 218.139 129.712 218.139C128.935 218.139 128.355 218.513 128.05 218.877V218.257H126.801V223.007H128.05V219.811C128.256 219.526 128.64 219.25 129.131 219.25C129.662 219.25 130.007 219.477 130.007 220.135V223.007ZM135.662 223.007H136.92V216.448H135.662V218.867C135.288 218.385 134.757 218.139 134.197 218.139C132.987 218.139 132.092 219.083 132.092 220.637C132.092 222.22 132.997 223.125 134.197 223.125C134.767 223.125 135.288 222.869 135.662 222.407V223.007ZM135.662 221.473C135.445 221.787 135.003 222.014 134.58 222.014C133.872 222.014 133.38 221.453 133.38 220.637C133.38 219.811 133.872 219.25 134.58 219.25C135.003 219.25 135.445 219.477 135.662 219.791V221.473ZM138.68 217.559C139.093 217.559 139.427 217.225 139.427 216.812C139.427 216.399 139.093 216.064 138.68 216.064C138.277 216.064 137.933 216.399 137.933 216.812C137.933 217.225 138.277 217.559 138.68 217.559ZM138.061 223.007H139.309V218.257H138.061V223.007ZM140.351 224.226C140.941 224.747 141.58 224.934 142.396 224.934C143.567 224.934 144.963 224.492 144.963 222.682V218.257H143.704V218.867C143.321 218.385 142.809 218.139 142.239 218.139C141.039 218.139 140.145 219.005 140.145 220.558C140.145 222.141 141.049 222.977 142.239 222.977C142.819 222.977 143.331 222.702 143.704 222.23V222.712C143.704 223.646 142.996 223.912 142.396 223.912C141.797 223.912 141.295 223.744 140.912 223.322L140.351 224.226ZM143.704 221.325C143.498 221.63 143.045 221.866 142.632 221.866C141.924 221.866 141.433 221.374 141.433 220.558C141.433 219.742 141.924 219.25 142.632 219.25C143.045 219.25 143.498 219.477 143.704 219.791V221.325ZM148.306 223.125C149.879 223.125 150.823 221.984 150.823 220.627C150.823 219.28 149.879 218.139 148.306 218.139C146.742 218.139 145.798 219.28 145.798 220.627C145.798 221.984 146.742 223.125 148.306 223.125ZM148.306 222.014C147.529 222.014 147.096 221.374 147.096 220.627C147.096 219.89 147.529 219.25 148.306 219.25C149.083 219.25 149.525 219.89 149.525 220.627C149.525 221.374 149.083 222.014 148.306 222.014Z" fill="#082258"/>
<path d="M129.324 239.486H132.884C134.132 239.486 134.791 238.7 134.791 237.716C134.791 236.89 134.231 236.212 133.533 236.104C134.152 235.976 134.663 235.425 134.663 234.599C134.663 233.724 134.024 232.927 132.775 232.927H129.324V239.486ZM130.72 235.563V234.117H132.471C132.943 234.117 133.238 234.432 133.238 234.835C133.238 235.258 132.943 235.563 132.471 235.563H130.72ZM130.72 238.296V236.753H132.52C133.07 236.753 133.365 237.107 133.365 237.52C133.365 237.992 133.051 238.296 132.52 238.296H130.72ZM138.568 239.486H139.817V236.418C139.817 235.051 138.824 234.619 137.742 234.619C136.995 234.619 136.247 234.855 135.667 235.366L136.139 236.202C136.542 235.828 137.014 235.641 137.526 235.641C138.155 235.641 138.568 235.956 138.568 236.438V237.097C138.253 236.713 137.693 236.517 137.064 236.517C136.306 236.517 135.412 236.92 135.412 238.031C135.412 239.093 136.306 239.604 137.064 239.604C137.683 239.604 138.244 239.378 138.568 238.995V239.486ZM138.568 238.346C138.362 238.621 137.968 238.759 137.565 238.759C137.073 238.759 136.67 238.503 136.67 238.06C136.67 237.608 137.073 237.343 137.565 237.343C137.968 237.343 138.362 237.48 138.568 237.756V238.346ZM140.957 239.486H142.206V232.927H140.957V239.486ZM143.346 239.486H144.595V232.927H143.346V239.486ZM148.587 239.486H149.835V236.418C149.835 235.051 148.842 234.619 147.761 234.619C147.013 234.619 146.266 234.855 145.686 235.366L146.158 236.202C146.561 235.828 147.033 235.641 147.544 235.641C148.174 235.641 148.587 235.956 148.587 236.438V237.097C148.272 236.713 147.711 236.517 147.082 236.517C146.325 236.517 145.43 236.92 145.43 238.031C145.43 239.093 146.325 239.604 147.082 239.604C147.702 239.604 148.262 239.378 148.587 238.995V239.486ZM148.587 238.346C148.38 238.621 147.987 238.759 147.584 238.759C147.092 238.759 146.689 238.503 146.689 238.06C146.689 237.608 147.092 237.343 147.584 237.343C147.987 237.343 148.38 237.48 148.587 237.756V238.346ZM150.976 239.486H152.225V236.349C152.431 236.045 152.982 235.818 153.395 235.818C153.533 235.818 153.651 235.828 153.739 235.848V234.629C153.149 234.629 152.559 234.963 152.225 235.386V234.737H150.976V239.486ZM157.273 239.486H158.522V236.418C158.522 235.051 157.528 234.619 156.447 234.619C155.699 234.619 154.952 234.855 154.372 235.366L154.844 236.202C155.247 235.828 155.719 235.641 156.23 235.641C156.86 235.641 157.273 235.956 157.273 236.438V237.097C156.958 236.713 156.398 236.517 155.768 236.517C155.011 236.517 154.116 236.92 154.116 238.031C154.116 239.093 155.011 239.604 155.768 239.604C156.388 239.604 156.948 239.378 157.273 238.995V239.486ZM157.273 238.346C157.066 238.621 156.673 238.759 156.27 238.759C155.778 238.759 155.375 238.503 155.375 238.06C155.375 237.608 155.778 237.343 156.27 237.343C156.673 237.343 157.066 237.48 157.273 237.756V238.346ZM161.255 239.604C161.776 239.604 162.11 239.467 162.297 239.299L162.032 238.355C161.963 238.424 161.786 238.493 161.599 238.493C161.324 238.493 161.166 238.267 161.166 237.972V235.828H162.13V234.737H161.166V233.439H159.908V234.737H159.121V235.828H159.908V238.306C159.908 239.152 160.38 239.604 161.255 239.604Z" fill="#082258"/>
<path d="M141.48 251.801C141.48 253.866 143.053 255.203 144.971 255.203C146.161 255.203 147.095 254.711 147.764 253.964V251.456H144.637V252.656H146.387V253.453C146.102 253.708 145.571 253.954 144.971 253.954C143.781 253.954 142.916 253.04 142.916 251.801C142.916 250.562 143.781 249.647 144.971 249.647C145.659 249.647 146.22 250.011 146.525 250.473L147.685 249.844C147.183 249.067 146.328 248.408 144.971 248.408C143.053 248.408 141.48 249.726 141.48 251.801ZM148.439 252.696C148.439 254.22 149.531 255.193 150.976 255.193C151.714 255.193 152.451 254.977 152.933 254.534L152.383 253.728C152.078 254.023 151.557 254.2 151.114 254.2C150.308 254.2 149.826 253.699 149.747 253.099H153.278V252.823C153.278 251.27 152.314 250.208 150.898 250.208C149.452 250.208 148.439 251.319 148.439 252.696ZM150.898 251.201C151.724 251.201 152.038 251.801 152.068 252.253H149.728C149.787 251.781 150.121 251.201 150.898 251.201ZM153.776 252.696C153.776 254.22 154.868 255.193 156.313 255.193C157.051 255.193 157.788 254.977 158.27 254.534L157.72 253.728C157.415 254.023 156.894 254.2 156.451 254.2C155.645 254.2 155.163 253.699 155.084 253.099H158.614V252.823C158.614 251.27 157.651 250.208 156.235 250.208C154.789 250.208 153.776 251.319 153.776 252.696ZM156.235 251.201C157.061 251.201 157.375 251.801 157.405 252.253H155.065C155.124 251.781 155.458 251.201 156.235 251.201ZM159.418 255.075H160.667V248.516H159.418V255.075ZM164.01 255.193C165.583 255.193 166.527 254.053 166.527 252.696C166.527 251.348 165.583 250.208 164.01 250.208C162.446 250.208 161.502 251.348 161.502 252.696C161.502 254.053 162.446 255.193 164.01 255.193ZM164.01 254.082C163.233 254.082 162.8 253.443 162.8 252.696C162.8 251.958 163.233 251.319 164.01 251.319C164.787 251.319 165.229 251.958 165.229 252.696C165.229 253.443 164.787 254.082 164.01 254.082ZM170.561 255.075H171.81V251.722C171.81 250.798 171.308 250.208 170.266 250.208C169.489 250.208 168.909 250.581 168.604 250.945V250.326H167.355V255.075H168.604V251.879C168.811 251.594 169.194 251.319 169.686 251.319C170.217 251.319 170.561 251.545 170.561 252.204V255.075ZM172.853 256.295C173.443 256.816 174.082 257.003 174.898 257.003C176.069 257.003 177.465 256.56 177.465 254.751V250.326H176.206V250.935C175.823 250.453 175.311 250.208 174.741 250.208C173.541 250.208 172.647 251.073 172.647 252.627C172.647 254.21 173.551 255.046 174.741 255.046C175.321 255.046 175.833 254.77 176.206 254.298V254.78C176.206 255.714 175.498 255.98 174.898 255.98C174.299 255.98 173.797 255.813 173.414 255.39L172.853 256.295ZM176.206 253.394C176 253.699 175.547 253.935 175.134 253.935C174.426 253.935 173.935 253.443 173.935 252.627C173.935 251.81 174.426 251.319 175.134 251.319C175.547 251.319 176 251.545 176.206 251.86V253.394Z" fill="#082258"/>
<circle cx="256.85" cy="127.514" r="5.2338" fill="#427FE0"/>
<circle cx="259.522" cy="154.683" r="5.2338" fill="#427FE0"/>
<circle cx="264.867" cy="135.976" r="5.2338" fill="#427FE0"/>
<circle cx="244.825" cy="185.415" r="5.2338" fill="#427FE0"/>
<circle cx="225.214" cy="191.853" r="5.2338" fill="#427FE0"/>
<circle cx="234.344" cy="181.386" r="3.2291" fill="#427FE0"/>
<circle cx="206.507" cy="210.114" r="5.23336" fill="#427FE0"/>
<circle cx="217.197" cy="247.527" r="5.2338" fill="#427FE0"/>
<circle cx="193.813" cy="207.219" r="3.2291" fill="#427FE0"/>
<circle cx="200.94" cy="201.429" r="3.2291" fill="#427FE0"/>
<circle cx="197.822" cy="215.236" r="3.2291" fill="#427FE0"/>
<path d="M244.936 185.526H291.259" stroke="#427FE0" stroke-width="1.68165"/>
</svg>
