<svg width="786" height="586" viewBox="0 0 786 586" fill="none" xmlns="http://www.w3.org/2000/svg">
<path d="M487 557.5H559" stroke="#427FE0" stroke-width="3.77565"/>
<path d="M526 403V375C526 372.791 524.209 371 522 371H489" stroke="#427FE0" stroke-width="3.77565"/>
<path d="M506.5 431.5V450.5C506.5 452.709 508.291 454.5 510.5 454.5H571" stroke="#427FE0" stroke-width="3.77565"/>
<path d="M464 472V491C464 493.209 465.791 495 468 495H528.5" stroke="#427FE0" stroke-width="3.77565"/>
<path d="M378 425.5V399.5C378 397.291 376.209 395.5 374 395.5H299.5" stroke="#427FE0" stroke-width="3.77565"/>
<path d="M451.5 451H406C403.791 451 402 452.791 402 455V493.5C402 495.709 400.209 497.5 398 497.5H352.5" stroke="#427FE0" stroke-width="3.77565"/>
<path d="M435 466H419.183C416.974 466 415.183 467.791 415.183 470V528C415.183 530.209 413.393 532 411.183 532H381" stroke="#427FE0" stroke-width="3.77565"/>
<path d="M443.5 483.5V566C443.5 568.209 441.709 570 439.5 570H410.5" stroke="#427FE0" stroke-width="3.77565"/>
<path d="M187.417 88.4254L189.627 87.3783L191.721 86.4475L193.699 85.8658L195.677 85.5168H198.47L200.797 86.2149L203.589 87.8437L206.498 90.5197L208.824 93.312L210.453 96.4534L211.85 99.3621L214.409 102.736L217.085 104.132L221.623 105.179L227.324 104.83L232.559 104.481H235.352L236.98 103.9L237.562 103.434L237.795 100.758L237.446 98.7803L236.748 97.3842C236.748 97.3842 236.399 96.6861 235.933 96.6861C235.468 96.6861 234.072 96.3371 234.072 96.3371L232.908 95.8717L232.443 94.4755L232.908 90.5197L233.839 87.9601L235.468 84.935L237.911 81.91L239.54 79.8158L240.006 78.5359L241.053 77.9542L243.496 77.7215L245.125 77.8379H246.172L246.754 77.0234L246.172 75.3946L245.125 73.0676L245.008 70.3916L245.474 67.9483L246.521 65.6214L248.848 63.2945L252.338 61.2002L257.225 60.0367L261.297 59.455L266.067 58.9896L269.441 58.6406L274.095 58.1752L278.167 57.4771L281.076 55.7319L282.938 53.2886L283.636 50.9617L283.403 48.053L282.589 46.4241L281.192 44.6789L279.564 43.2827L278.284 42.8174L276.306 42.9337L274.91 42.8174L274.095 42.1193L274.212 40.6068L275.375 39.2106L276.655 38.1635L278.284 37.8144L280.029 38.1635L283.287 39.9087L287.01 42.8174L289.337 44.0972L290.849 45.726L291.547 46.4241H292.478L293.06 44.9116L292.943 42.9337L292.711 41.3048L293.525 40.9558L294.456 41.6539L295.387 43.5154L296.201 45.028L296.434 45.9587L297.481 46.6568H299.692L301.437 47.3549L304.811 48.8674L307.487 50.2636L310.163 50.6126L321.449 50.729L322.263 50.8453L322.845 52.1251L323.543 53.9867L325.055 55.3829L327.033 56.1973L329.942 56.3136L333.549 56.43L335.527 56.6627L337.155 56.8954L337.97 56.1973L338.203 55.3829L339.715 54.9175L341.344 55.0338L342.624 55.1502L342.973 55.8482L343.322 57.7098L343.787 59.2223L345.183 59.804L346.463 60.0367L347.743 59.9204L348.674 59.5714L349.372 58.1752L349.837 56.779L350.768 56.0809L352.513 55.3829L354.258 55.2665L355.887 55.7319L357.283 56.43L358.098 57.4771L358.214 59.455L357.749 62.9454L357.4 66.7849L356.702 70.508V71.5551L356.236 72.2532L355.655 72.8349L353.211 73.0676L348.092 72.8349H345.067L343.671 73.0676L342.973 73.9984L341.809 79.8158L340.646 85.5168L338.552 89.5889L335.061 94.2428L332.152 97.2678L330.291 98.7803L329.36 99.5948L329.593 100.409L332.269 99.9438L335.643 100.409L339.831 101.573L344.951 103.783L355.422 110.182L360.89 113.905L364.846 116.349L369.965 118.559L374.736 120.305L378.691 122.399L381.367 124.609L384.858 127.867L388.581 130.659L391.024 132.521L393.467 133.684L394.747 134.383L395.213 136.36L397.074 140.084L398.587 141.945L401.612 143.923L404.869 144.737H411.734L417.202 144.621L420.111 144.505L420.809 144.156L421.507 141.829L422.322 137.524L423.601 132.405L426.045 126.936L428.372 121.352L430 116.349L430.699 111.229L431.164 104.365L431.28 96.5697L433.491 81.0956L434.073 76.3253L434.305 72.7186V70.3916L435.003 69.2282L435.585 68.7628L437.098 68.5301L438.145 68.0647L438.377 66.7849L438.959 60.6185L439.89 55.0338L441.751 50.1472L443.264 46.3078L445.126 42.4683L445.94 40.2577L446.638 38.6289L447.103 37.6981L448.383 37L450.943 37.1163L452.921 38.3962L454.666 40.8395L456.062 44.5626L456.644 48.2857L456.877 50.9617V53.8703L457.109 54.9175L457.691 55.2665L459.785 55.0338L461.647 54.9175L462.345 55.0338L463.276 55.1502L463.508 56.1973L462.927 57.7098L462.461 59.106V62.48L462.694 64.9233L463.974 68.4137L465.719 72.6022L467.813 77.4888L469.093 81.3283L469.907 85.4004L470.14 89.938V93.7774L470.257 95.7553L470.606 97.0351L471.885 97.3842H474.678L477.005 96.8024C477.005 96.8024 478.634 96.5697 479.099 96.5697C479.564 96.5697 481.891 96.4534 481.891 96.4534L484.102 97.0351L485.847 98.4313L487.709 100.991L489.803 104.714L492.013 108.321L492.944 110.415L493.526 113.673L493.642 118.443L494.224 124.726L494.689 128.1L495.038 130.543L496.435 133.801L497.947 135.313L499.227 136.826L501.67 137.64L502.601 138.804L503.415 142.76L503.881 147.762L503.997 157.187L504.346 162.771L505.51 168.123L507.953 172.195L511.094 176.268L515.05 179.758L517.726 181.387L519.937 182.085H521.682L522.38 182.201L522.962 183.248L523.544 186.506L524.591 187.786L526.918 189.182L530.757 191.393L533.666 193.254L536.225 196.047L538.669 199.537L540.647 204.656L543.788 211.404L546.929 217.338L549.14 222.457L551.467 228.275L552.747 233.859L552.514 235.605L552.863 236.535L553.561 236.186L553.794 234.208L554.259 232.58L555.19 232.231L556.819 232.696L557.633 233.627L558.68 236.535L559.727 239.211L560.542 241.306L561.007 242.469L562.171 242.702L562.869 240.608L562.52 236.884L562.753 234.092L563.102 233.045L564.614 232.696H565.894L566.592 233.394L566.941 235.837L567.057 243.749L567.523 248.635L568.337 253.638L569.733 258.06L571.479 260.852L574.038 263.644L576.132 266.32L579.041 270.16L583.113 276.791L586.604 282.143L589.28 285.401L592.072 287.961L593.468 288.659L594.981 288.775C594.981 288.775 596.028 288.659 596.028 288.077C596.028 287.495 596.144 286.332 596.144 286.332C596.144 286.332 596.26 284.47 596.726 284.238C597.191 284.005 597.889 283.074 597.889 283.074L599.867 282.376H602.078L603.241 283.074L603.59 283.889L602.892 285.75L602.078 288.077L601.729 290.404L600.565 293.545L598.355 295.058L596.842 295.174L595.795 295.291C595.795 295.291 594.981 295.174 594.864 295.756C594.748 296.338 594.05 298.548 594.05 298.548L594.515 303.086L594.981 312.975L594.748 322.632L595.33 330.311L595.795 334.151L595.33 341.015L594.515 347.298L592.537 353.581L590.094 360.91L587.534 366.262L585.789 370.102L584.742 374.174L583.695 382.086L582.997 388.368L582.066 393.022L579.972 397.56L575.202 401.632L569.966 405.239L566.476 407.798L563.102 410.94L561.124 413.616L559.495 416.641L557.866 420.713L556.353 425.367L553.794 430.602L549.722 436.071L547.511 439.096L545.184 442.353L543.323 446.891L539.716 451.429L535.76 454.919L532.968 457.944L531.571 460.271L531.455 464.343L531.571 468.648L530.641 474L529.361 478.421L527.965 481.213L525.056 484.355L520.402 485.867L513.654 485.984L504.812 486.333L498.645 487.38L493.875 488.776L488.756 491.685L486.196 493.197L484.335 493.43L482.706 493.895L481.891 495.291L481.542 498.549L481.426 499.713L480.495 500.294H478.284L474.329 498.898L470.722 498.2C470.722 498.2 469.675 497.735 469.675 497.269C469.675 496.804 469.675 494.71 469.675 494.71L468.628 491.801L467.115 490.289L465.952 489.707L465.254 490.754L465.37 493.779L465.486 496.339L465.021 497.037L463.741 496.688L461.647 495.059L459.436 493.314L458.04 491.801L458.389 491.336H460.134L460.716 490.056L460.949 487.496L460.251 485.635L458.273 482.61L457.575 482.261L456.295 483.424L456.179 487.38L456.295 490.521L455.015 492.965L452.688 494.593L451.408 495.64H443.264L437.098 495.291L435.352 494.244C435.352 494.244 433.375 491.685 432.909 491.336C432.444 490.987 430.582 490.638 430.117 490.289C429.651 489.94 427.906 490.056 427.324 489.823C426.743 489.59 422.787 489.59 422.787 489.59L420.576 489.474L416.039 487.613L412.432 485.518L408.942 484.122L405.335 483.773C405.335 483.773 402.077 484.006 401.495 483.657C400.914 483.308 398.005 482.144 398.005 482.144L394.282 477.839L393.235 474.582L393.467 469.579L393.584 463.296L393.816 457.13L392.42 452.825C392.42 452.825 390.559 450.847 390.093 450.498C389.628 450.149 387.417 449.102 387.417 449.102L384.392 448.287L382.647 446.891L382.531 445.844V444.099L382.763 442.703L382.298 442.237L381.251 442.703L377.644 444.913L375.666 446.077C375.666 446.077 374.27 446.775 373.572 446.775C372.874 446.775 371.012 446.891 370.547 446.891C370.082 446.891 368.22 446.658 368.22 446.658L367.755 445.844L367.638 443.517L367.755 440.841L367.987 439.561L369.733 438.398L371.245 436.652L371.943 434.209L371.71 430.486L371.361 426.996L371.245 423.738L370.896 421.76L370.082 420.829L368.453 420.364L366.94 420.946L366.126 421.295L365.544 422.691L365.777 426.065L365.311 428.974L364.846 431.533L363.799 433.278L362.519 434.907L360.308 436.071L358.214 436.42L353.909 436.652L351.699 436.536L351.117 435.605L351.466 433.977L353.444 432.115L356.004 429.555L358.912 427.228L362.054 423.854L363.915 421.295L365.66 417.572L366.94 412.685L367.289 408.496L367.057 403.959L367.406 400.119L367.173 397.327L366.94 395.349L366.009 395L365.195 396.513L363.101 400.469L360.076 404.657L354.258 411.638L351.815 414.663L347.627 418.502L344.834 420.713L343.205 421.876L342.042 423.389L340.878 425.018L340.529 426.996L340.762 429.672V431.766L339.831 432.58L337.272 432.697L334.479 430.719L331.571 427.461L329.244 422.225L327.731 416.175L326.451 411.056L324.59 407.333L320.983 403.61L318.307 402.563L315.515 402.446L314.351 401.748L313.653 400.119L314.468 398.258C314.468 398.258 315.166 397.793 315.864 397.211C316.562 396.629 317.609 396.396 317.609 396.396L318.54 395.931L319.005 394.768L319.122 393.022L318.307 392.324L316.097 391.859L314.468 391.975L312.955 391.626C312.955 391.626 312.257 390.812 312.141 390.346C312.024 389.881 312.141 387.67 312.141 387.67L311.908 386.391L309.581 385.925L305.509 385.809L301.553 384.413L297.132 383.831L290.849 384.064H287.01L284.799 383.365L283.403 382.086L282.938 380.573L283.054 378.363C283.054 378.363 283.519 377.432 283.054 376.966C282.589 376.501 281.774 375.57 281.774 375.57L278.4 374.058L274.444 373.127L270.954 373.243L266.649 373.476L263.857 374.174L257.807 375.803L248.15 379.642L242.681 382.318L237.097 384.878L231.396 386.623L226.975 387.321H220.808L217.551 387.554L215.573 388.601L213.595 390.812C213.595 390.812 212.78 392.324 212.199 392.324C211.617 392.324 206.498 393.604 206.498 393.604L198.586 394.884L192.187 397.211L185.206 400.003L179.389 403.377L175.316 405.82L173.106 408.613L171.477 411.871L169.848 414.896L169.034 416.641L168.336 417.688L165.311 418.735L159.493 420.248C159.493 420.248 153.211 420.713 152.163 420.829C151.116 420.946 144.135 420.946 144.135 420.946L139.016 420.48L132.966 420.829L128.429 421.411L122.379 423.738L114.118 427.461L109.697 431.184L106.672 433.395L104.81 435.256L102.716 438.398L100.156 441.772L97.7129 443.517L95.5024 444.448L91.0812 444.564L79.0974 444.68L75.0253 444.564L69.7896 443.401L66.1829 440.841L62.2271 437.816L60.2492 436.536L55.7116 436.187L51.8722 434.209L50.127 432.348L49.6616 430.951L49.7779 426.996L49.8943 425.018C49.8943 425.018 49.5452 424.087 50.0106 423.622C50.476 423.156 52.6866 421.993 52.6866 421.993C52.6866 421.993 53.9664 421.76 54.4318 421.411C54.8972 421.062 56.5261 420.131 56.5261 420.131L57.8059 418.502V413.965L57.6895 410.94L56.8751 409.195L56.0607 407.217L56.177 403.726L56.2934 397.676L56.0607 392.557V391.51L55.2462 389.765L51.7558 385.809L48.6145 382.784L46.0548 380.457L44.0769 378.363L43.3788 376.734L42.5644 374.29C42.5644 374.29 42.3317 371.498 41.9827 370.916C41.6336 370.335 40.5865 367.542 40.5865 367.542C40.5865 367.542 39.1903 365.564 38.725 365.099C38.2596 364.634 35.6999 361.725 35.6999 361.725L33.722 359.631L32.9076 358.351C32.9076 358.351 32.2095 356.838 32.3258 356.373C32.4422 355.908 32.6749 353.115 32.6749 353.115L32.3258 350.672L31.2787 349.625L28.7191 348.461L25.9267 346.6L24.1815 345.087L22.5527 343.226L21.5055 340.899L21.1565 337.757L21.0401 335.081L21.5055 333.336L21.1565 332.522L19.0623 332.405C19.0623 332.405 17.6661 332.056 17.0843 331.824C16.5027 331.591 15.5719 331.009 15.5719 331.009L14.292 329.031V326.472V324.61L13.7103 323.098L12.5468 321.701L8.82369 319.026L4.51886 314.488L2.07559 311.579L0.679414 310.067L0.214021 308.787L0.0976562 307.391L1.14481 306.344L3.12274 306.227L5.33328 307.158L7.42758 309.95L10.5689 312.859L13.2449 314.837L15.2228 315.419L16.8517 315.186L17.4334 314.139L17.5497 311.579L17.4334 307.856C17.4334 307.856 17.3171 306.227 17.0843 305.762C16.8517 305.297 17.0843 305.297 15.9209 304.598C14.7574 303.9 13.5939 303.668 13.5939 303.668L11.8487 303.784L10.8016 302.97L11.0343 294.942L10.918 294.244L9.63818 293.313L8.00927 293.08L5.21698 291.219L2.89001 287.612L1.26117 283.772L0.679414 281.678L1.6102 279.467L3.12274 276.442L3.47177 273.417L3.8208 267.367L3.70444 255.384V250.032L4.05346 246.192L4.28619 244.447L4.63522 243.284L5.21698 243.167L6.26407 243.633L7.19485 246.076L8.00927 249.101L9.05642 250.73L9.87084 250.846L10.918 249.334L11.4997 246.541L13.0122 242.469L15.4555 237.582L21.7383 231.649L26.6249 225.831L29.6499 222.923L33.722 219.781L38.4922 217.222L43.0298 216.058H48.3818L52.4539 215.127C52.4539 215.127 55.4789 213.499 55.9443 213.266C56.4097 213.033 58.6203 210.823 58.6203 210.823L61.7617 208.728L65.3684 207.681L68.6262 205.82L71.5348 203.027L72.931 200.933L75.4906 198.257L78.8647 196.396L81.657 195.698L85.3801 195.581L90.1504 195.232L96.0841 193.952L100.854 192.672L105.508 189.88L110.511 186.041L115.747 179.758L118.655 176.035L120.982 170.916L122.146 166.378L122.495 160.561L122.611 154.278L123.193 149.508L125.171 144.737L127.498 141.48L129.476 139.269L130.872 137.873L132.035 137.757L133.199 138.804L135.875 142.411L137.736 144.156L139.714 145.901L140.994 146.832C140.994 146.832 141.459 147.413 141.809 146.832C142.158 146.25 142.507 145.668 142.507 145.668L142.739 141.247L142.158 133.917L142.274 131.474L143.321 130.31L146.346 130.078L150.884 130.31H153.443L154.49 129.729L154.956 127.053L155.072 123.213L154.839 121.468L153.56 121.003H152.163L151 120.537C151 120.537 150.767 119.606 151.116 119.025C151.465 118.443 153.327 116.698 153.327 116.698L155.305 114.487L156.585 112.16L157.166 110.764C157.166 110.764 157.399 110.299 157.864 109.833C158.33 109.368 159.842 109.252 159.842 109.252L164.38 109.601H166.474L167.638 108.903L167.754 105.296L167.638 102.969C167.638 102.969 167.521 101.922 167.987 101.573C168.452 101.224 169.15 100.526 169.615 100.526C170.081 100.526 171.942 100.758 171.942 100.758L174.502 101.107L175.433 100.409V98.4313L175.549 95.988L177.643 94.1265L180.901 91.9159L187.417 88.4254Z" fill="#427FE0" fill-opacity="0.3"/>
<path d="M247.305 41.0296L248.786 39.631L250.349 39.0551H252.323L254.051 39.631L256.848 40.2069L260.303 40.2892L262.936 40.1246L264.91 39.2197C264.91 39.2197 265.651 38.4792 265.98 38.397C266.309 38.3147 267.049 38.2324 267.049 38.2324L268.283 38.5615L269.024 39.5487L269.106 41.8523L269.188 43.4977L268.613 44.6495L267.296 46.0481L266.062 46.5417C266.062 46.5417 265.24 46.7885 264.828 46.7885C264.417 46.7885 263.512 47.0353 263.512 47.0353L262.442 47.9403L260.221 49.1743L258.74 49.6679L257.259 49.7502L256.025 49.6679C256.025 49.6679 254.791 49.1743 254.462 48.763C254.133 48.3516 252.899 46.7062 252.899 46.7062L251.5 45.6367L249.526 44.6495L247.963 43.3332L247.305 41.77V41.0296Z" fill="#427FE0" fill-opacity="0.3"/>
<path d="M348.249 80.108H346.933L346.274 79.6143V78.4626L346.604 77.6399L347.097 77.2285L348.002 77.3931L348.496 78.298L348.66 79.4498L348.249 80.108Z" fill="#427FE0" fill-opacity="0.3"/>
<path d="M351.047 83.6451V81.5884L351.623 80.2721L352.528 79.038L353.433 78.4622L354.832 78.3799L355.819 78.5444L357.135 78.9558L357.958 79.4494L358.369 80.1898L358.122 80.848L357.382 81.5884L356.888 82.4934L356.724 83.6451L357.217 84.5501L357.958 85.3728L358.698 85.9487L359.11 86.6891L359.027 88.0055C359.027 88.0055 358.945 88.9104 358.616 88.9927C358.287 89.075 357.958 89.404 357.629 89.404C357.3 89.404 355.654 89.3218 355.654 89.3218L353.762 88.4168L352.199 87.265L351.129 85.7842L350.965 84.3033L351.047 83.6451Z" fill="#427FE0" fill-opacity="0.3"/>
<path d="M394.486 126.983L395.417 125.587L397.22 124.773L398.384 124.074L399.722 123.551L400.711 123.202L401.758 123.027L402.572 123.202L403.154 123.667L402.805 124.54L401.991 125.005L400.594 125.82L399.315 126.227L398.326 126.867L397.046 127.623L396.29 127.972L395.359 128.088L394.544 127.914L394.195 127.449L394.486 126.983Z" fill="#427FE0" fill-opacity="0.3"/>
<path d="M496.696 515.466L496.58 514.36L496.638 513.371L497.162 512.731H497.802L498.791 512.964L500.071 514.709L501.059 516.28L501.758 517.618L502.397 518.549L503.096 518.898L503.328 519.596L502.688 520.236L501.816 520.876L501.409 521.341L500.71 521.632C500.71 521.632 499.954 521.69 499.721 521.574C499.489 521.457 499.082 521.225 499.082 520.934C499.082 520.643 499.256 519.654 499.256 519.654C499.256 519.654 499.198 519.189 499.082 518.956C498.965 518.723 498.558 517.851 498.558 517.851L497.918 516.92L497.278 516.222L496.929 515.931L496.696 515.466V515.466Z" fill="#427FE0" fill-opacity="0.3"/>
<path d="M499.431 524.251L499.896 523.262L500.245 522.622L500.885 522.214H502.165L503.154 522.156L503.91 522.214L504.317 522.273L504.724 523.203L504.492 523.901L503.561 524.309L502.979 524.6L502.107 524.832H500.769L499.489 524.716L499.431 524.251H499.431Z" fill="#427FE0" fill-opacity="0.3"/>
<path d="M444.748 513.546L444.573 512.383L444.806 510.928L444.922 509.183C444.922 509.183 445.329 508.718 445.388 508.427C445.446 508.136 445.329 507.845 445.504 507.554C445.679 507.263 446.435 506.798 446.435 506.798C446.435 506.798 446.9 506.856 447.133 506.856C447.366 506.856 448.064 507.438 448.064 507.438L448.296 508.776C448.296 508.776 448.413 509.241 448.413 509.707C448.413 510.172 448.471 511.277 448.413 511.568C448.355 511.859 447.831 512.732 447.831 512.732L447.075 513.546C447.075 513.546 446.726 513.837 446.377 513.895C446.028 513.953 445.33 513.895 445.33 513.895L444.748 513.546Z" fill="#427FE0" fill-opacity="0.3"/>
<path d="M454.213 527.409L455.2 525.681C455.2 525.681 455.941 524.858 456.27 524.858C456.599 524.858 457.422 524.858 457.422 524.858L458.738 525.928L459.067 526.751L460.548 527.244L462.934 527.491L464.579 528.149L466.636 529.877L468.939 531.605L470.996 533.332L473.053 534.484L475.439 534.731C475.439 534.731 477.413 534.813 477.742 534.566C478.071 534.319 478.647 533.826 479.059 533.661C479.47 533.497 481.115 533.003 481.115 533.003L483.254 532.756L485.229 532.345L488.355 532.098L491.152 531.687L492.962 531.275L494.443 530.371L495.924 529.548H497.487L499.215 530.206L500.284 530.864L501.107 532.427L501.271 534.566L501.189 536.788L500.778 539.009L499.955 541.641L499.297 543.369L499.132 545.755L499.215 548.47L499.379 550.115L498.968 550.856L497.405 551.267L496.418 551.349L495.101 552.419L494.196 553.653L493.374 554.887L493.127 556.532L493.538 557.766L494.69 558.26L495.266 558.918V559.576L495.184 560.564L494.114 561.139L493.785 562.209V563.608C493.785 563.608 493.785 564.43 493.785 564.924C493.785 565.417 493.456 565.993 493.456 565.993L493.291 566.405L492.222 566.487L491.07 566.405C491.07 566.405 490.659 565.253 490.741 564.924C490.823 564.595 490.576 563.69 490.412 563.361C490.247 563.032 490.001 562.703 489.589 562.703C489.178 562.703 488.355 562.703 488.355 562.703L487.45 562.949L485.969 564.019L484.982 564.759L483.501 566.652L482.185 567.803L481.115 570.354L480.457 571.67L479.141 572.328L477.578 572.246L475.768 571.505L474.451 570.436L473.711 569.86H473.053C473.053 569.86 472.477 569.86 472.148 569.86C471.819 569.86 471.243 569.942 471.243 569.942L470.667 569.778C470.667 569.778 470.009 569.778 469.762 569.366C469.515 568.955 469.269 568.708 469.269 568.708L468.281 568.132C468.281 568.132 468.364 568.215 467.541 567.639C466.718 567.063 465.731 566.487 465.731 566.487C465.731 566.487 464.99 565.993 464.908 565.664C464.826 565.335 463.51 563.608 463.51 563.608L462.193 561.057L461.535 559L461.371 556.944L461.453 555.051L460.959 553.653L459.972 552.666C459.972 552.666 458.903 552.254 458.738 551.843C458.573 551.432 458.409 550.609 458.409 550.609L458.985 549.786C458.985 549.786 459.478 549.375 459.972 549.21C460.466 549.046 460.63 548.881 460.63 548.881C460.63 548.881 460.795 548.634 460.795 548.141C460.795 547.647 460.795 546.989 460.795 546.989L460.137 545.508C460.137 545.508 459.972 544.685 459.89 544.356C459.807 544.027 458.327 541.312 458.327 541.312L456.599 539.996L455.283 538.515L454.542 537.61L454.131 535.224L454.213 532.345L454.295 529.054L454.213 527.409Z" fill="#427FE0" fill-opacity="0.3"/>
<path d="M349.648 443.164L351.129 441.519L352.199 440.285L353.68 439.38L355.161 439.215L356.065 438.804H358.204L360.343 438.722L361.742 439.133C361.742 439.133 362.729 439.38 363.552 439.627C364.375 439.873 364.622 439.956 364.951 439.956C365.28 439.956 365.938 439.956 365.938 439.956L366.843 440.203L367.254 440.696L367.007 441.848C367.007 441.848 366.596 442.835 366.267 443C365.938 443.164 365.115 443.576 365.115 443.576L364.21 444.316C364.21 444.316 364.622 444.727 363.963 444.892C363.305 445.056 362.894 445.139 362.894 445.139L361.989 444.645V444.234L360.919 444.151H359.932L359.192 444.892L355.407 444.727L351.952 444.81L350.553 444.316L349.484 443.905L349.319 443.576L349.648 443.164Z" fill="#427FE0" fill-opacity="0.3"/>
<path d="M595.029 306.045L642.029 306.545" stroke="#427FE0" stroke-width="3.77565"/>
<path d="M579.029 287.545V252.045C579.029 249.836 580.82 248.045 583.029 248.045H617.529" stroke="#427FE0" stroke-width="3.77565"/>
<path d="M247 96V22C247 19.7909 248.791 18 251 18H294" stroke="#427FE0" stroke-width="3.77565"/>
<path d="M43.4865 491.545H46.6215V486.268H50.3748C53.5541 486.268 55.3203 484.127 55.3203 481.566C55.3203 478.982 53.5761 476.819 50.3748 476.819H43.4865V491.545ZM52.119 481.544C52.119 482.78 51.1917 483.575 49.9553 483.575H46.6215V479.512H49.9553C51.1917 479.512 52.119 480.329 52.119 481.544ZM55.9257 486.202C55.9257 489.624 58.3764 491.81 61.6219 491.81C63.2777 491.81 64.9336 491.324 66.0154 490.331L64.7791 488.52C64.0946 489.183 62.9245 489.58 61.931 489.58C60.1206 489.58 59.0387 488.454 58.8621 487.107H66.7882V486.489C66.7882 483.001 64.6245 480.616 61.4453 480.616C58.1998 480.616 55.9257 483.111 55.9257 486.202ZM61.4453 482.846C63.2998 482.846 64.0063 484.193 64.0726 485.209H58.818C58.9504 484.149 59.7011 482.846 61.4453 482.846ZM68.5927 491.545H71.3966V484.502C71.8603 483.818 73.0966 483.31 74.0239 483.31C74.333 483.31 74.5979 483.332 74.7966 483.376V480.638C73.472 480.638 72.1473 481.389 71.3966 482.338V480.881H68.5927V491.545ZM79.9045 491.81C81.0746 491.81 81.8253 491.501 82.2447 491.125L81.6486 489.006C81.4941 489.16 81.0967 489.315 80.6772 489.315C80.059 489.315 79.7058 488.807 79.7058 488.145V483.332H81.8694V480.881H79.7058V477.967H76.8798V480.881H75.1135V483.332H76.8798V488.896C76.8798 490.794 77.9395 491.81 79.9045 491.81ZM90.7865 491.545H93.5905V483.972C93.5905 481.897 92.4645 480.616 90.1242 480.616C88.38 480.616 87.0553 481.455 86.3709 482.272V476.819H83.567V491.545H86.3709V484.37C86.8566 483.729 87.7177 483.111 88.7995 483.111C90.0138 483.111 90.7865 483.575 90.7865 485.054V491.545Z" fill="#082258"/>
<path d="M583.029 348.045V367.545C583.029 369.754 584.82 371.545 587.029 371.545H630.529" stroke="#427FE0" stroke-width="3.77565"/>
<path d="M668.471 422.47C669.862 423.861 671.893 424.81 674.719 424.81C678.693 424.81 680.614 422.779 680.614 420.085C680.614 416.818 677.523 416.089 675.094 415.537C673.394 415.14 672.158 414.831 672.158 413.837C672.158 412.954 672.909 412.336 674.322 412.336C675.757 412.336 677.346 412.844 678.538 413.947L680.283 411.651C678.825 410.305 676.883 409.598 674.542 409.598C671.076 409.598 668.957 411.585 668.957 414.036C668.957 417.325 672.048 417.988 674.454 418.54C676.154 418.937 677.435 419.312 677.435 420.416C677.435 421.255 676.596 422.072 674.874 422.072C672.842 422.072 671.231 421.167 670.193 420.085L668.471 422.47ZM682.331 426.201L681.911 428.718C682.265 428.806 682.971 428.872 683.302 428.872C685.135 428.828 686.548 428.298 687.343 426.289L692.354 413.881H689.33L686.548 421.299L683.766 413.881H680.763L685.091 424.699L684.693 425.605C684.428 426.179 683.943 426.377 683.214 426.377C682.949 426.377 682.574 426.311 682.331 426.201ZM700.715 424.545H703.541V409.819H700.715V415.25C699.876 414.168 698.684 413.616 697.426 413.616C694.71 413.616 692.701 415.736 692.701 419.224C692.701 422.779 694.732 424.81 697.426 424.81C698.706 424.81 699.876 424.236 700.715 423.198V424.545ZM700.715 421.101C700.23 421.807 699.236 422.315 698.287 422.315C696.697 422.315 695.593 421.057 695.593 419.224C695.593 417.37 696.697 416.111 698.287 416.111C699.236 416.111 700.23 416.619 700.715 417.325V421.101ZM713.298 424.545H716.102V417.016C716.102 414.941 714.976 413.616 712.636 413.616C710.892 413.616 709.589 414.455 708.905 415.272V413.881H706.101V424.545H708.905V417.37C709.368 416.729 710.23 416.111 711.333 416.111C712.526 416.111 713.298 416.619 713.298 418.098V424.545ZM717.981 419.202C717.981 422.624 720.432 424.81 723.677 424.81C725.333 424.81 726.989 424.324 728.071 423.331L726.834 421.52C726.15 422.183 724.98 422.58 723.986 422.58C722.176 422.58 721.094 421.454 720.918 420.107H728.844V419.489C728.844 416.001 726.68 413.616 723.501 413.616C720.255 413.616 717.981 416.111 717.981 419.202ZM723.501 415.846C725.355 415.846 726.062 417.193 726.128 418.209H720.873C721.006 417.149 721.757 415.846 723.501 415.846ZM730.692 426.201L730.273 428.718C730.626 428.806 731.333 428.872 731.664 428.872C733.496 428.828 734.909 428.298 735.704 426.289L740.716 413.881H737.691L734.909 421.299L732.127 413.881H729.125L733.452 424.699L733.055 425.605C732.79 426.179 732.304 426.377 731.575 426.377C731.31 426.377 730.935 426.311 730.692 426.201Z" fill="#082258"/>
<path d="M642.78 370.193C642.78 374.829 646.312 377.832 650.618 377.832C653.289 377.832 655.387 376.728 656.888 375.05V369.42H649.867V372.114H653.797V373.902C653.157 374.476 651.964 375.028 650.618 375.028C647.946 375.028 646.003 372.975 646.003 370.193C646.003 367.411 647.946 365.358 650.618 365.358C652.163 365.358 653.422 366.175 654.106 367.212L656.711 365.799C655.585 364.055 653.664 362.576 650.618 362.576C646.312 362.576 642.78 365.534 642.78 370.193ZM664.035 377.81C667.568 377.81 669.687 375.249 669.687 372.202C669.687 369.177 667.568 366.616 664.035 366.616C660.525 366.616 658.405 369.177 658.405 372.202C658.405 375.249 660.525 377.81 664.035 377.81ZM664.035 375.315C662.291 375.315 661.32 373.88 661.32 372.202C661.32 370.546 662.291 369.111 664.035 369.111C665.779 369.111 666.773 370.546 666.773 372.202C666.773 373.88 665.779 375.315 664.035 375.315ZM671.547 377.545H674.35V362.819H671.547V377.545ZM684.24 377.545H687.066V362.819H684.24V368.25C683.401 367.168 682.209 366.616 680.95 366.616C678.235 366.616 676.226 368.736 676.226 372.224C676.226 375.779 678.257 377.81 680.95 377.81C682.231 377.81 683.401 377.236 684.24 376.198V377.545ZM684.24 374.101C683.754 374.807 682.761 375.315 681.811 375.315C680.222 375.315 679.118 374.057 679.118 372.224C679.118 370.37 680.222 369.111 681.811 369.111C682.761 369.111 683.754 369.619 684.24 370.325V374.101ZM702.141 377.81C705.497 377.81 707.351 376.022 708.411 374.189L705.717 372.886C705.099 374.101 703.775 375.028 702.141 375.028C699.58 375.028 697.637 372.975 697.637 370.193C697.637 367.411 699.58 365.358 702.141 365.358C703.775 365.358 705.099 366.307 705.717 367.499L708.411 366.175C707.373 364.342 705.497 362.576 702.141 362.576C697.835 362.576 694.413 365.667 694.413 370.193C694.413 374.719 697.835 377.81 702.141 377.81ZM714.936 377.81C718.468 377.81 720.588 375.249 720.588 372.202C720.588 369.177 718.468 366.616 714.936 366.616C711.425 366.616 709.306 369.177 709.306 372.202C709.306 375.249 711.425 377.81 714.936 377.81ZM714.936 375.315C713.191 375.315 712.22 373.88 712.22 372.202C712.22 370.546 713.191 369.111 714.936 369.111C716.68 369.111 717.673 370.546 717.673 372.202C717.673 373.88 716.68 375.315 714.936 375.315ZM728.85 377.545H731.653V370.657C731.653 367.588 729.424 366.616 726.995 366.616C725.317 366.616 723.639 367.146 722.336 368.294L723.396 370.171C724.301 369.332 725.361 368.912 726.509 368.912C727.922 368.912 728.85 369.619 728.85 370.701V372.18C728.143 371.319 726.885 370.877 725.472 370.877C723.772 370.877 721.762 371.783 721.762 374.277C721.762 376.662 723.772 377.81 725.472 377.81C726.863 377.81 728.121 377.302 728.85 376.441V377.545ZM728.85 374.984C728.386 375.602 727.503 375.911 726.598 375.911C725.494 375.911 724.588 375.337 724.588 374.344C724.588 373.328 725.494 372.732 726.598 372.732C727.503 372.732 728.386 373.041 728.85 373.659V374.984ZM733.287 376.154C734.413 377.192 736.201 377.81 738.055 377.81C741.014 377.81 742.67 376.353 742.67 374.388C742.67 371.738 740.219 371.253 738.387 370.899C737.194 370.657 736.355 370.414 736.355 369.751C736.355 369.133 737.018 368.758 738.033 368.758C739.336 368.758 740.55 369.31 741.191 369.994L742.294 368.073C741.257 367.234 739.822 366.616 738.011 366.616C735.207 366.616 733.64 368.184 733.64 369.972C733.64 372.511 736.002 372.953 737.835 373.306C739.049 373.549 739.976 373.814 739.976 374.564C739.976 375.227 739.402 375.646 738.188 375.646C736.863 375.646 735.274 374.918 734.501 374.189L733.287 376.154ZM748.091 377.81C749.261 377.81 750.012 377.501 750.432 377.125L749.835 375.006C749.681 375.16 749.284 375.315 748.864 375.315C748.246 375.315 747.893 374.807 747.893 374.145V369.332H750.056V366.881H747.893V363.967H745.067V366.881H743.3V369.332H745.067V374.896C745.067 376.794 746.126 377.81 748.091 377.81Z" fill="#082258"/>
<path d="M664.486 312.545H672.479C675.283 312.545 676.762 310.779 676.762 308.571C676.762 306.716 675.503 305.193 673.936 304.95C675.327 304.663 676.475 303.427 676.475 301.572C676.475 299.607 675.04 297.819 672.236 297.819H664.486V312.545ZM667.622 303.736V300.49H671.551C672.611 300.49 673.274 301.197 673.274 302.102C673.274 303.051 672.611 303.736 671.551 303.736H667.622ZM667.622 309.873V306.407H671.662C672.898 306.407 673.561 307.202 673.561 308.129C673.561 309.189 672.854 309.873 671.662 309.873H667.622ZM678.839 312.545H681.643V305.502C682.107 304.818 683.343 304.31 684.27 304.31C684.579 304.31 684.844 304.332 685.043 304.376V301.638C683.718 301.638 682.394 302.389 681.643 303.338V301.881H678.839V312.545ZM687.965 300.314C688.892 300.314 689.643 299.563 689.643 298.636C689.643 297.708 688.892 296.958 687.965 296.958C687.06 296.958 686.287 297.708 686.287 298.636C686.287 299.563 687.06 300.314 687.965 300.314ZM686.574 312.545H689.378V301.881H686.574V312.545ZM691.01 311.154C692.136 312.192 693.925 312.81 695.779 312.81C698.738 312.81 700.394 311.353 700.394 309.388C700.394 306.738 697.943 306.253 696.11 305.899C694.918 305.657 694.079 305.414 694.079 304.751C694.079 304.133 694.742 303.758 695.757 303.758C697.06 303.758 698.274 304.31 698.914 304.994L700.018 303.073C698.981 302.234 697.545 301.616 695.735 301.616C692.931 301.616 691.364 303.184 691.364 304.972C691.364 307.511 693.726 307.953 695.558 308.306C696.773 308.549 697.7 308.814 697.7 309.564C697.7 310.227 697.126 310.646 695.912 310.646C694.587 310.646 692.997 309.918 692.225 309.189L691.01 311.154ZM702.238 312.545H705.042V311.198C705.881 312.236 707.051 312.81 708.332 312.81C711.026 312.81 713.057 310.779 713.057 307.224C713.057 303.736 711.048 301.616 708.332 301.616C707.074 301.616 705.881 302.168 705.042 303.25V297.819H702.238V312.545ZM705.042 309.123V305.347C705.506 304.641 706.544 304.111 707.449 304.111C709.083 304.111 710.164 305.37 710.164 307.224C710.164 309.079 709.083 310.315 707.449 310.315C706.544 310.315 705.506 309.807 705.042 309.123ZM721.357 312.545H724.161V305.657C724.161 302.588 721.931 301.616 719.502 301.616C717.824 301.616 716.146 302.146 714.844 303.294L715.903 305.171C716.809 304.332 717.868 303.912 719.016 303.912C720.429 303.912 721.357 304.619 721.357 305.701V307.18C720.65 306.319 719.392 305.877 717.979 305.877C716.279 305.877 714.27 306.783 714.27 309.277C714.27 311.662 716.279 312.81 717.979 312.81C719.37 312.81 720.628 312.302 721.357 311.441V312.545ZM721.357 309.984C720.893 310.602 720.01 310.911 719.105 310.911C718.001 310.911 717.096 310.337 717.096 309.344C717.096 308.328 718.001 307.732 719.105 307.732C720.01 307.732 720.893 308.041 721.357 308.659V309.984ZM733.918 312.545H736.722V305.016C736.722 302.941 735.596 301.616 733.256 301.616C731.512 301.616 730.209 302.455 729.525 303.272V301.881H726.721V312.545H729.525V305.37C729.989 304.729 730.85 304.111 731.954 304.111C733.146 304.111 733.918 304.619 733.918 306.098V312.545ZM738.601 307.202C738.601 310.624 741.052 312.81 744.297 312.81C745.953 312.81 747.609 312.324 748.691 311.331L747.455 309.52C746.77 310.183 745.6 310.58 744.607 310.58C742.796 310.58 741.714 309.454 741.538 308.107H749.464V307.489C749.464 304.001 747.3 301.616 744.121 301.616C740.875 301.616 738.601 304.111 738.601 307.202ZM744.121 303.846C745.975 303.846 746.682 305.193 746.748 306.209H741.493C741.626 305.149 742.377 303.846 744.121 303.846Z" fill="#082258"/>
<path d="M631.471 252.47C632.862 253.861 634.893 254.81 637.719 254.81C641.693 254.81 643.614 252.779 643.614 250.085C643.614 246.818 640.523 246.089 638.094 245.537C636.394 245.14 635.158 244.831 635.158 243.837C635.158 242.954 635.909 242.336 637.322 242.336C638.757 242.336 640.346 242.844 641.538 243.947L643.283 241.651C641.825 240.305 639.883 239.598 637.542 239.598C634.076 239.598 631.957 241.585 631.957 244.036C631.957 247.325 635.048 247.988 637.454 248.54C639.154 248.937 640.435 249.312 640.435 250.416C640.435 251.255 639.596 252.072 637.874 252.072C635.842 252.072 634.231 251.167 633.193 250.085L631.471 252.47ZM652.635 254.545H655.439V243.881H652.635V251.101C652.149 251.719 651.288 252.315 650.207 252.315C649.014 252.315 648.242 251.829 648.242 250.35V243.881H645.438V251.454C645.438 253.529 646.542 254.81 648.882 254.81C650.626 254.81 651.907 254.015 652.635 253.198V254.545ZM665.2 254.545H668.004V247.016C668.004 244.941 666.878 243.616 664.537 243.616C662.793 243.616 661.491 244.455 660.806 245.272V243.881H658.002V254.545H660.806V247.37C661.27 246.729 662.131 246.111 663.235 246.111C664.427 246.111 665.2 246.619 665.2 248.098V254.545ZM669.64 253.154C670.766 254.192 672.554 254.81 674.409 254.81C677.367 254.81 679.023 253.353 679.023 251.388C679.023 248.738 676.572 248.253 674.74 247.899C673.548 247.657 672.709 247.414 672.709 246.751C672.709 246.133 673.371 245.758 674.387 245.758C675.689 245.758 676.903 246.31 677.544 246.994L678.648 245.073C677.61 244.234 676.175 243.616 674.364 243.616C671.561 243.616 669.993 245.184 669.993 246.972C669.993 249.511 672.355 249.953 674.188 250.306C675.402 250.549 676.329 250.814 676.329 251.564C676.329 252.227 675.755 252.646 674.541 252.646C673.216 252.646 671.627 251.918 670.854 251.189L669.64 253.154ZM688.087 254.545H690.891V246.972C690.891 244.897 689.765 243.616 687.425 243.616C685.681 243.616 684.356 244.455 683.672 245.272V239.819H680.868V254.545H683.672V247.37C684.157 246.729 685.019 246.111 686.1 246.111C687.315 246.111 688.087 246.575 688.087 248.054V254.545ZM694.845 242.314C695.772 242.314 696.523 241.563 696.523 240.636C696.523 239.708 695.772 238.958 694.845 238.958C693.94 238.958 693.167 239.708 693.167 240.636C693.167 241.563 693.94 242.314 694.845 242.314ZM693.454 254.545H696.258V243.881H693.454V254.545ZM706.015 254.545H708.819V247.016C708.819 244.941 707.693 243.616 705.353 243.616C703.608 243.616 702.306 244.455 701.621 245.272V243.881H698.818V254.545H701.621V247.37C702.085 246.729 702.946 246.111 704.05 246.111C705.242 246.111 706.015 246.619 706.015 248.098V254.545ZM710.698 249.202C710.698 252.624 713.148 254.81 716.394 254.81C718.05 254.81 719.706 254.324 720.787 253.331L719.551 251.52C718.867 252.183 717.697 252.58 716.703 252.58C714.893 252.58 713.811 251.454 713.634 250.107H721.56V249.489C721.56 246.001 719.397 243.616 716.217 243.616C712.972 243.616 710.698 246.111 710.698 249.202ZM716.217 245.846C718.072 245.846 718.778 247.193 718.845 248.209H713.59C713.722 247.149 714.473 245.846 716.217 245.846ZM735.88 254.81C739.236 254.81 741.09 253.022 742.15 251.189L739.457 249.886C738.838 251.101 737.514 252.028 735.88 252.028C733.319 252.028 731.376 249.975 731.376 247.193C731.376 244.411 733.319 242.358 735.88 242.358C737.514 242.358 738.838 243.307 739.457 244.499L742.15 243.175C741.112 241.342 739.236 239.576 735.88 239.576C731.575 239.576 728.153 242.667 728.153 247.193C728.153 251.719 731.575 254.81 735.88 254.81ZM748.675 254.81C752.207 254.81 754.327 252.249 754.327 249.202C754.327 246.177 752.207 243.616 748.675 243.616C745.164 243.616 743.045 246.177 743.045 249.202C743.045 252.249 745.164 254.81 748.675 254.81ZM748.675 252.315C746.931 252.315 745.959 250.88 745.959 249.202C745.959 247.546 746.931 246.111 748.675 246.111C750.419 246.111 751.412 247.546 751.412 249.202C751.412 250.88 750.419 252.315 748.675 252.315ZM762.589 254.545H765.393V247.657C765.393 244.588 763.163 243.616 760.734 243.616C759.056 243.616 757.378 244.146 756.076 245.294L757.135 247.171C758.041 246.332 759.1 245.912 760.248 245.912C761.661 245.912 762.589 246.619 762.589 247.701V249.18C761.882 248.319 760.624 247.877 759.211 247.877C757.511 247.877 755.502 248.783 755.502 251.277C755.502 253.662 757.511 254.81 759.211 254.81C760.602 254.81 761.86 254.302 762.589 253.441V254.545ZM762.589 251.984C762.125 252.602 761.242 252.911 760.337 252.911C759.233 252.911 758.328 252.337 758.328 251.344C758.328 250.328 759.233 249.732 760.337 249.732C761.242 249.732 762.125 250.041 762.589 250.659V251.984ZM767.026 253.154C768.152 254.192 769.94 254.81 771.795 254.81C774.753 254.81 776.409 253.353 776.409 251.388C776.409 248.738 773.958 248.253 772.126 247.899C770.934 247.657 770.095 247.414 770.095 246.751C770.095 246.133 770.757 245.758 771.773 245.758C773.075 245.758 774.289 246.31 774.93 246.994L776.034 245.073C774.996 244.234 773.561 243.616 771.75 243.616C768.947 243.616 767.379 245.184 767.379 246.972C767.379 249.511 769.741 249.953 771.574 250.306C772.788 250.549 773.715 250.814 773.715 251.564C773.715 252.227 773.141 252.646 771.927 252.646C770.602 252.646 769.013 251.918 768.24 251.189L767.026 253.154ZM781.831 254.81C783.001 254.81 783.751 254.501 784.171 254.125L783.575 252.006C783.42 252.16 783.023 252.315 782.603 252.315C781.985 252.315 781.632 251.807 781.632 251.145V246.332H783.795V243.881H781.632V240.967H778.806V243.881H777.04V246.332H778.806V251.896C778.806 253.794 779.866 254.81 781.831 254.81Z" fill="#082258"/>
<path d="M310.457 25H316.264C320.878 25 324.079 22.0857 324.079 17.648C324.079 13.2103 320.878 10.2739 316.264 10.2739H310.457V25ZM313.592 22.2402V13.0337H316.264C319.288 13.0337 320.878 15.0428 320.878 17.648C320.878 20.1428 319.178 22.2402 316.264 22.2402H313.592ZM332.42 25H335.224V18.1116C335.224 15.0428 332.994 14.0713 330.565 14.0713C328.887 14.0713 327.209 14.6012 325.907 15.7493L326.967 17.6259C327.872 16.7869 328.932 16.3675 330.08 16.3675C331.493 16.3675 332.42 17.074 332.42 18.1558V19.635C331.713 18.774 330.455 18.3324 329.042 18.3324C327.342 18.3324 325.333 19.2376 325.333 21.7324C325.333 24.1169 327.342 25.2649 329.042 25.2649C330.433 25.2649 331.691 24.7571 332.42 23.8961V25ZM332.42 22.4389C331.956 23.0571 331.073 23.3662 330.168 23.3662C329.064 23.3662 328.159 22.7922 328.159 21.7987C328.159 20.7831 329.064 20.187 330.168 20.187C331.073 20.187 331.956 20.4961 332.42 21.1143V22.4389ZM337.784 25H340.588V17.9571C341.052 17.2727 342.288 16.7649 343.215 16.7649C343.524 16.7649 343.789 16.7869 343.988 16.8311V14.0934C342.663 14.0934 341.339 14.8441 340.588 15.7934V14.3363H337.784V25ZM354.88 25H357.861L361.106 14.3363H358.192L356.205 21.5117L353.865 14.3363H351.37L349.03 21.5117L347.043 14.3363H344.128L347.374 25H350.376L352.628 17.7363L354.88 25ZM363.658 12.7687C364.585 12.7687 365.336 12.0181 365.336 11.0908C365.336 10.1635 364.585 9.41286 363.658 9.41286C362.752 9.41286 361.98 10.1635 361.98 11.0908C361.98 12.0181 362.752 12.7687 363.658 12.7687ZM362.267 25H365.071V14.3363H362.267V25ZM374.828 25H377.632V17.4714C377.632 15.396 376.506 14.0713 374.165 14.0713C372.421 14.0713 371.118 14.9103 370.434 15.7272V14.3363H367.63V25H370.434V17.8246C370.898 17.1844 371.759 16.5662 372.863 16.5662C374.055 16.5662 374.828 17.074 374.828 18.5532V25Z" fill="#082258"/>
<path d="M582.547 567H585.704V552.274H582.547V558.058H575.592V552.274H572.457V567H575.592V560.818H582.547V567ZM593.265 567.265C596.797 567.265 598.917 564.704 598.917 561.657C598.917 558.632 596.797 556.071 593.265 556.071C589.754 556.071 587.635 558.632 587.635 561.657C587.635 564.704 589.754 567.265 593.265 567.265ZM593.265 564.77C591.52 564.77 590.549 563.335 590.549 561.657C590.549 560.001 591.52 558.566 593.265 558.566C595.009 558.566 596.002 560.001 596.002 561.657C596.002 563.335 595.009 564.77 593.265 564.77ZM600.776 567H603.58V565.653C604.419 566.691 605.589 567.265 606.869 567.265C609.563 567.265 611.594 565.234 611.594 561.679C611.594 558.191 609.585 556.071 606.869 556.071C605.611 556.071 604.419 556.623 603.58 557.705V552.274H600.776V567ZM603.58 563.578V559.803C604.044 559.096 605.081 558.566 605.986 558.566C607.62 558.566 608.702 559.825 608.702 561.679C608.702 563.534 607.62 564.77 605.986 564.77C605.081 564.77 604.044 564.262 603.58 563.578ZM619.894 567H622.698V560.112C622.698 557.043 620.468 556.071 618.04 556.071C616.362 556.071 614.684 556.601 613.381 557.749L614.441 559.626C615.346 558.787 616.406 558.367 617.554 558.367C618.967 558.367 619.894 559.074 619.894 560.156V561.635C619.188 560.774 617.929 560.332 616.516 560.332C614.816 560.332 612.807 561.238 612.807 563.732C612.807 566.117 614.816 567.265 616.516 567.265C617.907 567.265 619.166 566.757 619.894 565.896V567ZM619.894 564.439C619.431 565.057 618.547 565.366 617.642 565.366C616.538 565.366 615.633 564.792 615.633 563.799C615.633 562.783 616.538 562.187 617.642 562.187C618.547 562.187 619.431 562.496 619.894 563.114V564.439ZM625.258 567H628.062V559.957C628.526 559.273 629.762 558.765 630.69 558.765C630.999 558.765 631.264 558.787 631.462 558.831V556.093C630.138 556.093 628.813 556.844 628.062 557.793V556.336H625.258V567ZM636.57 567.265C637.74 567.265 638.491 566.956 638.911 566.581L638.314 564.461C638.16 564.616 637.762 564.77 637.343 564.77C636.725 564.77 636.372 564.262 636.372 563.6V558.787H638.535V556.336H636.372V553.422H633.546V556.336H631.779V558.787H633.546V564.351C633.546 566.249 634.605 567.265 636.57 567.265Z" fill="#082258"/>
<path d="M72.0293 410.045V461.045" stroke="#427FE0" stroke-width="3.77565"/>
<circle cx="71.7803" cy="410.296" r="11.751" fill="#427FE0"/>
<circle cx="246.751" cy="95.751" r="11.751" fill="#427FE0"/>
<circle cx="377.751" cy="424.751" r="11.751" fill="#427FE0"/>
<path d="M378.457 375H381.592V369.723H385.346C388.525 369.723 390.291 367.582 390.291 365.021C390.291 362.438 388.547 360.274 385.346 360.274H378.457V375ZM387.09 364.999C387.09 366.235 386.162 367.03 384.926 367.03H381.592V362.967H384.926C386.162 362.967 387.09 363.784 387.09 364.999ZM397.919 375H400.723V368.112C400.723 365.043 398.493 364.071 396.064 364.071C394.386 364.071 392.708 364.601 391.406 365.749L392.466 367.626C393.371 366.787 394.43 366.367 395.579 366.367C396.992 366.367 397.919 367.074 397.919 368.156V369.635C397.212 368.774 395.954 368.332 394.541 368.332C392.841 368.332 390.832 369.238 390.832 371.732C390.832 374.117 392.841 375.265 394.541 375.265C395.932 375.265 397.19 374.757 397.919 373.896V375ZM397.919 372.439C397.455 373.057 396.572 373.366 395.667 373.366C394.563 373.366 393.658 372.792 393.658 371.799C393.658 370.783 394.563 370.187 395.667 370.187C396.572 370.187 397.455 370.496 397.919 371.114V372.439ZM403.283 375H406.087V367.957C406.551 367.273 407.787 366.765 408.714 366.765C409.023 366.765 409.288 366.787 409.487 366.831V364.093C408.162 364.093 406.838 364.844 406.087 365.793V364.336H403.283V375ZM417.421 375H420.225V368.112C420.225 365.043 417.995 364.071 415.566 364.071C413.888 364.071 412.21 364.601 410.908 365.749L411.968 367.626C412.873 366.787 413.933 366.367 415.081 366.367C416.494 366.367 417.421 367.074 417.421 368.156V369.635C416.714 368.774 415.456 368.332 414.043 368.332C412.343 368.332 410.334 369.238 410.334 371.732C410.334 374.117 412.343 375.265 414.043 375.265C415.434 375.265 416.692 374.757 417.421 373.896V375ZM417.421 372.439C416.957 373.057 416.074 373.366 415.169 373.366C414.065 373.366 413.16 372.792 413.16 371.799C413.16 370.783 414.065 370.187 415.169 370.187C416.074 370.187 416.957 370.496 417.421 371.114V372.439ZM436.01 375H438.836V367.295C438.836 365.109 437.666 364.071 435.701 364.071C434.067 364.071 432.654 365.043 432.036 366.014C431.638 364.8 430.645 364.071 429.077 364.071C427.444 364.071 426.031 365.087 425.589 365.727V364.336H422.785V375H425.589V367.825C426.009 367.229 426.825 366.566 427.797 366.566C428.945 366.566 429.387 367.273 429.387 368.266V375H432.213V367.803C432.61 367.229 433.427 366.566 434.42 366.566C435.568 366.566 436.01 367.273 436.01 368.266V375ZM447.768 375H450.572V368.112C450.572 365.043 448.342 364.071 445.913 364.071C444.235 364.071 442.557 364.601 441.255 365.749L442.315 367.626C443.22 366.787 444.28 366.367 445.428 366.367C446.841 366.367 447.768 367.074 447.768 368.156V369.635C447.061 368.774 445.803 368.332 444.39 368.332C442.69 368.332 440.681 369.238 440.681 371.732C440.681 374.117 442.69 375.265 444.39 375.265C445.781 375.265 447.039 374.757 447.768 373.896V375ZM447.768 372.439C447.304 373.057 446.421 373.366 445.516 373.366C444.412 373.366 443.507 372.792 443.507 371.799C443.507 370.783 444.412 370.187 445.516 370.187C446.421 370.187 447.304 370.496 447.768 371.114V372.439ZM456.709 375.265C457.879 375.265 458.63 374.956 459.049 374.581L458.453 372.461C458.298 372.616 457.901 372.77 457.482 372.77C456.863 372.77 456.51 372.262 456.51 371.6V366.787H458.674V364.336H456.51V361.422H453.684V364.336H451.918V366.787H453.684V372.351C453.684 374.249 454.744 375.265 456.709 375.265ZM463.948 375.265C465.118 375.265 465.869 374.956 466.288 374.581L465.692 372.461C465.538 372.616 465.14 372.77 464.721 372.77C464.103 372.77 463.749 372.262 463.749 371.6V366.787H465.913V364.336H463.749V361.422H460.923V364.336H459.157V366.787H460.923V372.351C460.923 374.249 461.983 375.265 463.948 375.265ZM474.013 375H476.817V368.112C476.817 365.043 474.587 364.071 472.159 364.071C470.481 364.071 468.803 364.601 467.5 365.749L468.56 367.626C469.465 366.787 470.525 366.367 471.673 366.367C473.086 366.367 474.013 367.074 474.013 368.156V369.635C473.307 368.774 472.048 368.332 470.635 368.332C468.935 368.332 466.926 369.238 466.926 371.732C466.926 374.117 468.935 375.265 470.635 375.265C472.026 375.265 473.285 374.757 474.013 373.896V375ZM474.013 372.439C473.55 373.057 472.666 373.366 471.761 373.366C470.657 373.366 469.752 372.792 469.752 371.799C469.752 370.783 470.657 370.187 471.761 370.187C472.666 370.187 473.55 370.496 474.013 371.114V372.439Z" fill="#082258"/>
<path d="M213.768 400H217.19L211.516 385.274H207.586L201.89 400H205.334L206.261 397.461H212.84L213.768 400ZM209.551 387.99L211.979 394.745H207.1L209.551 387.99ZM225.593 400H228.419V385.274H225.593V390.705C224.754 389.623 223.561 389.071 222.303 389.071C219.587 389.071 217.578 391.191 217.578 394.679C217.578 398.234 219.609 400.265 222.303 400.265C223.583 400.265 224.754 399.691 225.593 398.653V400ZM225.593 396.556C225.107 397.262 224.113 397.77 223.164 397.77C221.574 397.77 220.47 396.512 220.47 394.679C220.47 392.825 221.574 391.566 223.164 391.566C224.113 391.566 225.107 392.074 225.593 392.78V396.556ZM230.294 394.657C230.294 398.079 232.744 400.265 235.99 400.265C237.646 400.265 239.302 399.779 240.383 398.786L239.147 396.975C238.463 397.638 237.293 398.035 236.299 398.035C234.489 398.035 233.407 396.909 233.23 395.562H241.156V394.944C241.156 391.456 238.993 389.071 235.813 389.071C232.568 389.071 230.294 391.566 230.294 394.657ZM235.813 391.301C237.668 391.301 238.374 392.648 238.441 393.664H233.186C233.318 392.604 234.069 391.301 235.813 391.301ZM242.961 400H245.765V385.274H242.961V400ZM254.727 400H257.531V393.112C257.531 390.043 255.301 389.071 252.872 389.071C251.194 389.071 249.516 389.601 248.214 390.749L249.274 392.626C250.179 391.787 251.238 391.367 252.387 391.367C253.8 391.367 254.727 392.074 254.727 393.156V394.635C254.02 393.774 252.762 393.332 251.349 393.332C249.649 393.332 247.64 394.238 247.64 396.732C247.64 399.117 249.649 400.265 251.349 400.265C252.74 400.265 253.998 399.757 254.727 398.896V400ZM254.727 397.439C254.263 398.057 253.38 398.366 252.475 398.366C251.371 398.366 250.466 397.792 250.466 396.799C250.466 395.783 251.371 395.187 252.475 395.187C253.38 395.187 254.263 395.496 254.727 396.114V397.439ZM261.482 387.769C262.409 387.769 263.16 387.018 263.16 386.091C263.16 385.164 262.409 384.413 261.482 384.413C260.577 384.413 259.804 385.164 259.804 386.091C259.804 387.018 260.577 387.769 261.482 387.769ZM260.091 400H262.895V389.336H260.091V400ZM272.784 400H275.61V385.274H272.784V390.705C271.945 389.623 270.753 389.071 269.495 389.071C266.779 389.071 264.77 391.191 264.77 394.679C264.77 398.234 266.801 400.265 269.495 400.265C270.775 400.265 271.945 399.691 272.784 398.653V400ZM272.784 396.556C272.299 397.262 271.305 397.77 270.356 397.77C268.766 397.77 267.662 396.512 267.662 394.679C267.662 392.825 268.766 391.566 270.356 391.566C271.305 391.566 272.299 392.074 272.784 392.78V396.556ZM277.486 394.657C277.486 398.079 279.936 400.265 283.182 400.265C284.838 400.265 286.494 399.779 287.575 398.786L286.339 396.975C285.655 397.638 284.484 398.035 283.491 398.035C281.681 398.035 280.599 396.909 280.422 395.562H288.348V394.944C288.348 391.456 286.184 389.071 283.005 389.071C279.76 389.071 277.486 391.566 277.486 394.657ZM283.005 391.301C284.86 391.301 285.566 392.648 285.633 393.664H280.378C280.51 392.604 281.261 391.301 283.005 391.301Z" fill="#082258"/>
<path d="M593.478 460.265C596.834 460.265 598.688 458.477 599.748 456.644L597.055 455.342C596.436 456.556 595.112 457.483 593.478 457.483C590.917 457.483 588.974 455.43 588.974 452.648C588.974 449.866 590.917 447.813 593.478 447.813C595.112 447.813 596.436 448.762 597.055 449.954L599.748 448.63C598.711 446.797 596.834 445.031 593.478 445.031C589.173 445.031 585.751 448.122 585.751 452.648C585.751 457.174 589.173 460.265 593.478 460.265ZM607.73 460H610.534V453.112C610.534 450.043 608.304 449.071 605.875 449.071C604.197 449.071 602.519 449.601 601.217 450.749L602.277 452.626C603.182 451.787 604.242 451.367 605.39 451.367C606.803 451.367 607.73 452.074 607.73 453.156V454.635C607.023 453.774 605.765 453.332 604.352 453.332C602.652 453.332 600.643 454.238 600.643 456.732C600.643 459.117 602.652 460.265 604.352 460.265C605.743 460.265 607.001 459.757 607.73 458.896V460ZM607.73 457.439C607.266 458.057 606.383 458.366 605.478 458.366C604.374 458.366 603.469 457.792 603.469 456.799C603.469 455.783 604.374 455.187 605.478 455.187C606.383 455.187 607.266 455.496 607.73 456.114V457.439ZM620.292 460H623.096V452.471C623.096 450.396 621.97 449.071 619.629 449.071C617.885 449.071 616.583 449.91 615.898 450.727V449.336H613.094V460H615.898V452.825C616.362 452.184 617.223 451.566 618.327 451.566C619.519 451.566 620.292 452.074 620.292 453.553V460ZM625.659 460H628.463V458.653C629.302 459.691 630.472 460.265 631.752 460.265C634.446 460.265 636.477 458.234 636.477 454.679C636.477 451.191 634.468 449.071 631.752 449.071C630.494 449.071 629.302 449.623 628.463 450.705V445.274H625.659V460ZM628.463 456.578V452.803C628.926 452.096 629.964 451.566 630.869 451.566C632.503 451.566 633.585 452.825 633.585 454.679C633.585 456.534 632.503 457.77 630.869 457.77C629.964 457.77 628.926 457.262 628.463 456.578ZM637.69 454.657C637.69 458.079 640.141 460.265 643.386 460.265C645.042 460.265 646.698 459.779 647.78 458.786L646.543 456.975C645.859 457.638 644.689 458.035 643.695 458.035C641.885 458.035 640.803 456.909 640.626 455.562H648.553V454.944C648.553 451.456 646.389 449.071 643.21 449.071C639.964 449.071 637.69 451.566 637.69 454.657ZM643.21 451.301C645.064 451.301 645.771 452.648 645.837 453.664H640.582C640.715 452.604 641.465 451.301 643.21 451.301ZM650.357 460H653.161V452.957C653.625 452.273 654.861 451.765 655.788 451.765C656.097 451.765 656.362 451.787 656.561 451.831V449.093C655.236 449.093 653.912 449.844 653.161 450.793V449.336H650.357V460ZM658.092 460H660.896V452.957C661.36 452.273 662.596 451.765 663.523 451.765C663.832 451.765 664.097 451.787 664.296 451.831V449.093C662.971 449.093 661.647 449.844 660.896 450.793V449.336H658.092V460ZM672.23 460H675.034V453.112C675.034 450.043 672.804 449.071 670.375 449.071C668.697 449.071 667.019 449.601 665.717 450.749L666.777 452.626C667.682 451.787 668.742 451.367 669.89 451.367C671.303 451.367 672.23 452.074 672.23 453.156V454.635C671.523 453.774 670.265 453.332 668.852 453.332C667.152 453.332 665.143 454.238 665.143 456.732C665.143 459.117 667.152 460.265 668.852 460.265C670.243 460.265 671.501 459.757 672.23 458.896V460ZM672.23 457.439C671.766 458.057 670.883 458.366 669.978 458.366C668.874 458.366 667.969 457.792 667.969 456.799C667.969 455.783 668.874 455.187 669.978 455.187C670.883 455.187 671.766 455.496 672.23 456.114V457.439Z" fill="#082258"/>
<path d="M548.262 501H551.42V486.274H547.004L543.427 495.458L539.851 486.274H535.457V501H538.592V490.403L542.743 501H544.112L548.262 490.403V501ZM553.373 495.657C553.373 499.079 555.824 501.265 559.069 501.265C560.725 501.265 562.381 500.779 563.463 499.786L562.226 497.975C561.542 498.638 560.372 499.035 559.378 499.035C557.568 499.035 556.486 497.909 556.309 496.562H564.235V495.944C564.235 492.456 562.072 490.071 558.892 490.071C555.647 490.071 553.373 492.566 553.373 495.657ZM558.892 492.301C560.747 492.301 561.453 493.648 561.52 494.664H556.265C556.398 493.604 557.148 492.301 558.892 492.301ZM566.04 501H568.844V486.274H566.04V501ZM571.403 501H574.207V499.653C575.046 500.691 576.216 501.265 577.497 501.265C580.19 501.265 582.222 499.234 582.222 495.679C582.222 492.191 580.212 490.071 577.497 490.071C576.238 490.071 575.046 490.623 574.207 491.705V486.274H571.403V501ZM574.207 497.578V493.803C574.671 493.096 575.708 492.566 576.614 492.566C578.247 492.566 579.329 493.825 579.329 495.679C579.329 497.534 578.247 498.77 576.614 498.77C575.708 498.77 574.671 498.262 574.207 497.578ZM589.064 501.265C592.597 501.265 594.716 498.704 594.716 495.657C594.716 492.632 592.597 490.071 589.064 490.071C585.554 490.071 583.434 492.632 583.434 495.657C583.434 498.704 585.554 501.265 589.064 501.265ZM589.064 498.77C587.32 498.77 586.349 497.335 586.349 495.657C586.349 494.001 587.32 492.566 589.064 492.566C590.809 492.566 591.802 494.001 591.802 495.657C591.802 497.335 590.809 498.77 589.064 498.77ZM603.773 501H606.577V490.336H603.773V497.556C603.287 498.174 602.426 498.77 601.345 498.77C600.152 498.77 599.38 498.284 599.38 496.805V490.336H596.576V497.909C596.576 499.984 597.68 501.265 600.02 501.265C601.764 501.265 603.045 500.47 603.773 499.653V501ZM609.14 501H611.944V493.957C612.408 493.273 613.644 492.765 614.572 492.765C614.881 492.765 615.146 492.787 615.344 492.831V490.093C614.02 490.093 612.695 490.844 611.944 491.793V490.336H609.14V501ZM624.073 501H626.877V493.471C626.877 491.396 625.751 490.071 623.411 490.071C621.666 490.071 620.364 490.91 619.679 491.727V490.336H616.876V501H619.679V493.825C620.143 493.184 621.004 492.566 622.108 492.566C623.3 492.566 624.073 493.074 624.073 494.553V501ZM628.756 495.657C628.756 499.079 631.206 501.265 634.452 501.265C636.108 501.265 637.764 500.779 638.845 499.786L637.609 497.975C636.925 498.638 635.755 499.035 634.761 499.035C632.951 499.035 631.869 497.909 631.692 496.562H639.618V495.944C639.618 492.456 637.455 490.071 634.275 490.071C631.03 490.071 628.756 492.566 628.756 495.657ZM634.275 492.301C636.13 492.301 636.836 493.648 636.903 494.664H631.648C631.78 493.604 632.531 492.301 634.275 492.301Z" fill="#082258"/>
<path d="M258.457 501H266.449C269.253 501 270.733 499.234 270.733 497.026C270.733 495.171 269.474 493.648 267.907 493.405C269.298 493.118 270.446 491.882 270.446 490.027C270.446 488.062 269.01 486.274 266.207 486.274H258.457V501ZM261.592 492.191V488.945H265.522C266.582 488.945 267.244 489.652 267.244 490.557C267.244 491.506 266.582 492.191 265.522 492.191H261.592ZM261.592 498.329V494.862H265.633C266.869 494.862 267.531 495.657 267.531 496.584C267.531 497.644 266.825 498.329 265.633 498.329H261.592ZM272.125 495.657C272.125 499.079 274.576 501.265 277.822 501.265C279.477 501.265 281.133 500.779 282.215 499.786L280.979 497.975C280.294 498.638 279.124 499.035 278.131 499.035C276.32 499.035 275.238 497.909 275.062 496.562H282.988V495.944C282.988 492.456 280.824 490.071 277.645 490.071C274.399 490.071 272.125 492.566 272.125 495.657ZM277.645 492.301C279.499 492.301 280.206 493.648 280.272 494.664H275.018C275.15 493.604 275.901 492.301 277.645 492.301ZM291.99 501H294.794V493.471C294.794 491.396 293.668 490.071 291.327 490.071C289.583 490.071 288.281 490.91 287.596 491.727V490.336H284.792V501H287.596V493.825C288.06 493.184 288.921 492.566 290.025 492.566C291.217 492.566 291.99 493.074 291.99 494.553V501ZM304.687 501H307.513V486.274H304.687V491.705C303.848 490.623 302.656 490.071 301.397 490.071C298.682 490.071 296.673 492.191 296.673 495.679C296.673 499.234 298.704 501.265 301.397 501.265C302.678 501.265 303.848 500.691 304.687 499.653V501ZM304.687 497.556C304.201 498.262 303.208 498.77 302.258 498.77C300.669 498.77 299.565 497.512 299.565 495.679C299.565 493.825 300.669 492.566 302.258 492.566C303.208 492.566 304.201 493.074 304.687 493.78V497.556ZM311.464 488.769C312.391 488.769 313.142 488.018 313.142 487.091C313.142 486.164 312.391 485.413 311.464 485.413C310.558 485.413 309.786 486.164 309.786 487.091C309.786 488.018 310.558 488.769 311.464 488.769ZM310.073 501H312.877V490.336H310.073V501ZM315.215 503.738C316.54 504.908 317.975 505.327 319.808 505.327C322.435 505.327 325.57 504.334 325.57 500.271V490.336H322.744V491.705C321.883 490.623 320.735 490.071 319.454 490.071C316.761 490.071 314.752 492.014 314.752 495.503C314.752 499.057 316.783 500.934 319.454 500.934C320.757 500.934 321.905 500.316 322.744 499.256V500.338C322.744 502.435 321.154 503.031 319.808 503.031C318.461 503.031 317.335 502.656 316.474 501.706L315.215 503.738ZM322.744 497.225C322.28 497.909 321.265 498.439 320.337 498.439C318.748 498.439 317.644 497.335 317.644 495.503C317.644 493.67 318.748 492.566 320.337 492.566C321.265 492.566 322.28 493.074 322.744 493.78V497.225ZM333.076 501.265C336.608 501.265 338.728 498.704 338.728 495.657C338.728 492.632 336.608 490.071 333.076 490.071C329.565 490.071 327.446 492.632 327.446 495.657C327.446 498.704 329.565 501.265 333.076 501.265ZM333.076 498.77C331.331 498.77 330.36 497.335 330.36 495.657C330.36 494.001 331.331 492.566 333.076 492.566C334.82 492.566 335.813 494.001 335.813 495.657C335.813 497.335 334.82 498.77 333.076 498.77Z" fill="#082258"/>
<path d="M290.457 538H298.449C301.253 538 302.733 536.234 302.733 534.026C302.733 532.171 301.474 530.648 299.907 530.405C301.298 530.118 302.446 528.882 302.446 527.027C302.446 525.062 301.01 523.274 298.207 523.274H290.457V538ZM293.592 529.191V525.945H297.522C298.582 525.945 299.244 526.652 299.244 527.557C299.244 528.506 298.582 529.191 297.522 529.191H293.592ZM293.592 535.329V531.862H297.633C298.869 531.862 299.531 532.657 299.531 533.584C299.531 534.644 298.825 535.329 297.633 535.329H293.592ZM311.212 538H314.016V531.112C314.016 528.043 311.786 527.071 309.358 527.071C307.68 527.071 306.002 527.601 304.699 528.749L305.759 530.626C306.664 529.787 307.724 529.367 308.872 529.367C310.285 529.367 311.212 530.074 311.212 531.156V532.635C310.506 531.774 309.248 531.332 307.835 531.332C306.135 531.332 304.125 532.238 304.125 534.732C304.125 537.117 306.135 538.265 307.835 538.265C309.225 538.265 310.484 537.757 311.212 536.896V538ZM311.212 535.439C310.749 536.057 309.866 536.366 308.961 536.366C307.857 536.366 306.951 535.792 306.951 534.799C306.951 533.783 307.857 533.187 308.961 533.187C309.866 533.187 310.749 533.496 311.212 534.114V535.439ZM316.577 538H319.381V523.274H316.577V538ZM321.94 538H324.744V523.274H321.94V538ZM333.706 538H336.51V531.112C336.51 528.043 334.28 527.071 331.852 527.071C330.174 527.071 328.496 527.601 327.193 528.749L328.253 530.626C329.158 529.787 330.218 529.367 331.366 529.367C332.779 529.367 333.706 530.074 333.706 531.156V532.635C333 531.774 331.741 531.332 330.328 531.332C328.628 531.332 326.619 532.238 326.619 534.732C326.619 537.117 328.628 538.265 330.328 538.265C331.719 538.265 332.978 537.757 333.706 536.896V538ZM333.706 535.439C333.243 536.057 332.359 536.366 331.454 536.366C330.35 536.366 329.445 535.792 329.445 534.799C329.445 533.783 330.35 533.187 331.454 533.187C332.359 533.187 333.243 533.496 333.706 534.114V535.439ZM339.071 538H341.874V530.957C342.338 530.273 343.574 529.765 344.502 529.765C344.811 529.765 345.076 529.787 345.274 529.831V527.093C343.95 527.093 342.625 527.844 341.874 528.793V527.336H339.071V538ZM353.208 538H356.012V531.112C356.012 528.043 353.782 527.071 351.354 527.071C349.676 527.071 347.998 527.601 346.695 528.749L347.755 530.626C348.66 529.787 349.72 529.367 350.868 529.367C352.281 529.367 353.208 530.074 353.208 531.156V532.635C352.502 531.774 351.243 531.332 349.83 531.332C348.13 531.332 346.121 532.238 346.121 534.732C346.121 537.117 348.13 538.265 349.83 538.265C351.221 538.265 352.48 537.757 353.208 536.896V538ZM353.208 535.439C352.745 536.057 351.862 536.366 350.956 536.366C349.852 536.366 348.947 535.792 348.947 534.799C348.947 533.783 349.852 533.187 350.956 533.187C351.862 533.187 352.745 533.496 353.208 534.114V535.439ZM362.149 538.265C363.319 538.265 364.07 537.956 364.49 537.581L363.893 535.461C363.739 535.616 363.341 535.77 362.922 535.77C362.304 535.77 361.951 535.262 361.951 534.6V529.787H364.114V527.336H361.951V524.422H359.125V527.336H357.358V529.787H359.125V535.351C359.125 537.249 360.184 538.265 362.149 538.265Z" fill="#082258"/>
<path d="M317.751 565.648C317.751 570.284 321.283 573.287 325.588 573.287C328.26 573.287 330.357 572.183 331.859 570.505V564.875H324.838V567.569H328.768V569.357C328.127 569.931 326.935 570.483 325.588 570.483C322.917 570.483 320.974 568.43 320.974 565.648C320.974 562.866 322.917 560.813 325.588 560.813C327.134 560.813 328.392 561.63 329.077 562.667L331.682 561.254C330.556 559.51 328.635 558.031 325.588 558.031C321.283 558.031 317.751 560.99 317.751 565.648ZM333.376 567.657C333.376 571.079 335.827 573.265 339.072 573.265C340.728 573.265 342.384 572.779 343.466 571.786L342.229 569.975C341.545 570.638 340.375 571.035 339.381 571.035C337.571 571.035 336.489 569.909 336.312 568.562H344.238V567.944C344.238 564.456 342.075 562.071 338.895 562.071C335.65 562.071 333.376 564.566 333.376 567.657ZM338.895 564.301C340.75 564.301 341.457 565.648 341.523 566.664H336.268C336.401 565.604 337.151 564.301 338.895 564.301ZM345.358 567.657C345.358 571.079 347.809 573.265 351.055 573.265C352.71 573.265 354.366 572.779 355.448 571.786L354.212 569.975C353.527 570.638 352.357 571.035 351.364 571.035C349.553 571.035 348.471 569.909 348.295 568.562H356.221V567.944C356.221 564.456 354.057 562.071 350.878 562.071C347.633 562.071 345.358 564.566 345.358 567.657ZM350.878 564.301C352.733 564.301 353.439 565.648 353.505 566.664H348.251C348.383 565.604 349.134 564.301 350.878 564.301ZM358.025 573H360.829V558.274H358.025V573ZM368.334 573.265C371.867 573.265 373.986 570.704 373.986 567.657C373.986 564.632 371.867 562.071 368.334 562.071C364.824 562.071 362.704 564.632 362.704 567.657C362.704 570.704 364.824 573.265 368.334 573.265ZM368.334 570.77C366.59 570.77 365.619 569.335 365.619 567.657C365.619 566.001 366.59 564.566 368.334 564.566C370.079 564.566 371.072 566.001 371.072 567.657C371.072 569.335 370.079 570.77 368.334 570.77ZM383.043 573H385.847V565.471C385.847 563.396 384.721 562.071 382.381 562.071C380.637 562.071 379.334 562.91 378.65 563.727V562.336H375.846V573H378.65V565.825C379.113 565.184 379.974 564.566 381.078 564.566C382.27 564.566 383.043 565.074 383.043 566.553V573ZM388.19 575.738C389.514 576.908 390.949 577.327 392.782 577.327C395.409 577.327 398.544 576.334 398.544 572.271V562.336H395.718V563.705C394.857 562.623 393.709 562.071 392.429 562.071C389.735 562.071 387.726 564.014 387.726 567.503C387.726 571.057 389.757 572.934 392.429 572.934C393.731 572.934 394.879 572.316 395.718 571.256V572.338C395.718 574.435 394.129 575.031 392.782 575.031C391.435 575.031 390.309 574.656 389.448 573.706L388.19 575.738ZM395.718 569.225C395.255 569.909 394.239 570.439 393.312 570.439C391.722 570.439 390.618 569.335 390.618 567.503C390.618 565.67 391.722 564.566 393.312 564.566C394.239 564.566 395.255 565.074 395.718 565.78V569.225Z" fill="#082258"/>
<circle cx="576.78" cy="286.296" r="11.751" fill="#427FE0"/>
<circle cx="582.78" cy="347.296" r="11.751" fill="#427FE0"/>
<circle cx="594.78" cy="305.296" r="11.751" fill="#427FE0"/>
<circle cx="549.78" cy="416.296" r="11.751" fill="#427FE0"/>
<circle cx="505.751" cy="430.751" r="11.751" fill="#427FE0"/>
<circle cx="526.25" cy="407.25" r="7.25" fill="#427FE0"/>
<circle cx="463.75" cy="471.75" r="11.75" fill="#427FE0"/>
<circle cx="487.751" cy="555.751" r="11.751" fill="#427FE0"/>
<circle cx="435.25" cy="465.25" r="7.25" fill="#427FE0"/>
<circle cx="451.25" cy="452.25" r="7.25" fill="#427FE0"/>
<circle cx="444.25" cy="483.25" r="7.25" fill="#427FE0"/>
<path d="M550.029 416.545H654.034" stroke="#427FE0" stroke-width="3.77565"/>
</svg>
