<svg width="292" height="248" viewBox="0 0 292 248" fill="none" xmlns="http://www.w3.org/2000/svg">
<path d="M216.863 241.306H248.931" stroke="#427FE0" stroke-width="1.68165"/>
<path d="M234.233 172.493V160.022C234.233 159.038 233.435 158.241 232.451 158.241H217.753" stroke="#427FE0" stroke-width="1.68165"/>
<path d="M225.548 185.187V193.649C225.548 194.633 226.346 195.431 227.33 195.431H254.276" stroke="#427FE0" stroke-width="1.68165"/>
<path d="M206.619 203.225V211.688C206.619 212.671 207.416 213.469 208.4 213.469H235.346" stroke="#427FE0" stroke-width="1.68165"/>
<path d="M168.315 182.515V170.934C168.315 169.95 167.517 169.153 166.533 169.153H133.352" stroke="#427FE0" stroke-width="1.68165"/>
<path d="M201.051 193.872H180.786C179.802 193.872 179.004 194.67 179.004 195.654V212.801C179.004 213.785 178.207 214.583 177.223 214.583H156.958" stroke="#427FE0" stroke-width="1.68165"/>
<path d="M193.702 200.553H186.658C185.674 200.553 184.876 201.35 184.876 202.334V228.167C184.876 229.151 184.078 229.949 183.094 229.949H169.651" stroke="#427FE0" stroke-width="1.68165"/>
<path d="M197.488 208.347V245.092C197.488 246.076 196.691 246.874 195.707 246.874H182.79" stroke="#427FE0" stroke-width="1.68165"/>
<path d="M83.4304 32.3845L84.415 31.9181L85.3478 31.5035L86.2287 31.2444L87.1097 31.089H88.3534L89.3898 31.3999L90.6335 32.1254L91.929 33.3173L92.9654 34.5609L93.6908 35.9601L94.3127 37.2556L95.4527 38.7584L96.6446 39.3802L98.6656 39.8466L101.205 39.6911L103.537 39.5357H104.78L105.506 39.2766L105.765 39.0693L105.869 37.8774L105.713 36.9965L105.402 36.3746C105.402 36.3746 105.247 36.0637 105.039 36.0637C104.832 36.0637 104.21 35.9083 104.21 35.9083L103.692 35.701L103.485 35.0791L103.692 33.3173L104.107 32.1772L104.832 30.8299L105.92 29.4826L106.646 28.5498L106.853 27.9798L107.32 27.7207L108.408 27.617L109.133 27.6689H109.6L109.859 27.3061L109.6 26.5806L109.133 25.5442L109.081 24.3524L109.289 23.2641L109.755 22.2277L110.791 21.1913L112.346 20.2586L114.523 19.7404L116.336 19.4813L118.461 19.274L119.964 19.1185L122.036 18.9112L123.85 18.6003L125.146 17.823L125.975 16.7348L126.286 15.6984L126.182 14.4029L125.819 13.6774L125.197 12.9001L124.472 12.2783L123.902 12.071L123.021 12.1228L122.399 12.071L122.036 11.7601L122.088 11.0864L122.606 10.4646L123.177 9.99818L123.902 9.84272L124.679 9.99818L126.13 10.7755L127.788 12.071L128.825 12.641L129.499 13.3665L129.809 13.6774H130.224L130.483 13.0038L130.431 12.1228L130.328 11.3973L130.69 11.2419L131.105 11.5528L131.52 12.3819L131.882 13.0556L131.986 13.4701L132.452 13.7811H133.437L134.214 14.092L135.717 14.7656L136.909 15.3875L138.101 15.5429L143.127 15.5948L143.49 15.6466L143.749 16.2166L144.06 17.0457L144.734 17.6676L145.615 18.0303L146.91 18.0821L148.517 18.1339L149.398 18.2376L150.123 18.3412L150.486 18.0303L150.589 17.6676L151.263 17.4603L151.989 17.5121L152.559 17.5639L152.714 17.8748L152.869 18.704L153.077 19.3776L153.699 19.6367L154.269 19.7404L154.839 19.6886L155.253 19.5331L155.564 18.9112L155.771 18.2894L156.186 17.9785L156.963 17.6676L157.741 17.6157L158.466 17.823L159.088 18.1339L159.451 18.6003L159.502 19.4813L159.295 21.0359L159.14 22.7459L158.829 24.4042V24.8706L158.621 25.1815L158.362 25.4406L157.274 25.5442L154.994 25.4406H153.647L153.025 25.5442L152.714 25.9588L152.196 28.5498L151.678 31.089L150.745 32.9027L149.19 34.9755L147.895 36.3228L147.066 36.9965L146.651 37.3592L146.755 37.722L147.947 37.5147L149.449 37.722L151.315 38.2402L153.595 39.2247L158.259 42.0749L160.694 43.7331L162.456 44.8213L164.736 45.8059L166.861 46.5832L168.623 47.516L169.815 48.5005L171.369 49.9515L173.027 51.1952L174.116 52.0243L175.204 52.5425L175.774 52.8534L175.981 53.7344L176.81 55.3926L177.484 56.2218L178.831 57.1027L180.282 57.4654H183.34L185.775 57.4136L187.071 57.3618L187.382 57.2063L187.693 56.1699L188.055 54.2526L188.625 51.9725L189.714 49.537L190.75 47.0496L191.475 44.8213L191.786 42.5412L191.994 39.4838L192.045 36.0119L193.03 29.1198L193.289 26.9952L193.393 25.3888V24.3524L193.704 23.8342L193.963 23.6269L194.636 23.5232L195.103 23.316L195.207 22.7459L195.466 19.9995L195.88 17.5121L196.709 15.3357L197.383 13.6256L198.212 11.9155L198.575 10.9309L198.886 10.2055L199.093 9.7909L199.663 9.47998L200.803 9.5318L201.684 10.1018L202.461 11.19L203.083 12.8483L203.342 14.5065L203.446 15.6984V16.9939L203.55 17.4603L203.809 17.6157L204.741 17.5121L205.571 17.4603L205.881 17.5121L206.296 17.5639L206.4 18.0303L206.141 18.704L205.933 19.3258V20.8286L206.037 21.9168L206.607 23.4714L207.384 25.3369L208.317 27.5134L208.887 29.2235L209.25 31.0372L209.353 33.0581V34.7682L209.405 35.6492L209.561 36.2192L210.131 36.3746H211.374L212.411 36.1155C212.411 36.1155 213.136 36.0119 213.344 36.0119C213.551 36.0119 214.587 35.9601 214.587 35.9601L215.572 36.2192L216.349 36.841L217.178 37.9811L218.111 39.6393L219.096 41.2457L219.51 42.1785L219.769 43.6295L219.821 45.7541L220.08 48.5524L220.287 50.0552L220.443 51.1434L221.065 52.5943L221.738 53.268L222.308 53.9417L223.397 54.3044L223.811 54.8226L224.174 56.5845L224.381 58.8128L224.433 63.0102L224.589 65.4976L225.107 67.8813L226.195 69.695L227.594 71.5087L229.356 73.0633L230.548 73.7888L231.532 74.0997H232.31L232.621 74.1515L232.88 74.6179L233.139 76.0689L233.605 76.6389L234.642 77.2607L236.352 78.2453L237.647 79.0744L238.787 80.3181L239.875 81.8727L240.756 84.1528L242.156 87.1584L243.555 89.8012L244.539 92.0813L245.576 94.6723L246.146 97.1597L246.042 97.937L246.198 98.3515L246.508 98.1961L246.612 97.3151L246.819 96.5897L247.234 96.4342L247.959 96.6415L248.322 97.056L248.789 98.3515L249.255 99.5434L249.618 100.476L249.825 100.994L250.343 101.098L250.654 100.165L250.499 98.507L250.602 97.2633L250.758 96.7969L251.431 96.6415H252.001L252.312 96.9524L252.468 98.0406L252.52 101.564L252.727 103.741L253.09 105.969L253.711 107.938L254.489 109.182L255.629 110.426L256.562 111.617L257.857 113.328L259.671 116.281L261.225 118.665L262.417 120.116L263.661 121.256L264.283 121.567L264.956 121.619C264.956 121.619 265.423 121.567 265.423 121.308C265.423 121.049 265.475 120.531 265.475 120.531C265.475 120.531 265.526 119.701 265.734 119.598C265.941 119.494 266.252 119.08 266.252 119.08L267.133 118.769H268.117L268.636 119.08L268.791 119.442L268.48 120.271L268.117 121.308L267.962 122.344L267.444 123.743L266.459 124.417L265.786 124.469L265.319 124.521C265.319 124.521 264.956 124.469 264.905 124.728C264.853 124.987 264.542 125.972 264.542 125.972L264.749 127.993L264.956 132.397L264.853 136.698L265.112 140.119L265.319 141.829L265.112 144.886L264.749 147.684L263.868 150.483L262.78 153.747L261.64 156.131L260.863 157.841L260.396 159.655L259.93 163.179L259.619 165.977L259.204 168.05L258.272 170.071L256.147 171.884L253.815 173.491L252.261 174.631L250.758 176.03L249.877 177.222L249.151 178.569L248.426 180.383L247.752 182.456L246.612 184.788L244.798 187.223L243.814 188.57L242.777 190.021L241.948 192.042L240.342 194.063L238.58 195.618L237.336 196.965L236.714 198.002L236.663 199.815L236.714 201.733L236.3 204.116L235.73 206.086L235.108 207.329L233.813 208.728L231.74 209.402L228.734 209.454L224.796 209.609L222.049 210.076L219.925 210.698L217.645 211.993L216.505 212.667L215.675 212.77L214.95 212.978L214.587 213.6L214.432 215.051L214.38 215.569L213.965 215.828H212.981L211.219 215.206L209.613 214.895C209.613 214.895 209.146 214.688 209.146 214.48C209.146 214.273 209.146 213.34 209.146 213.34L208.68 212.045L208.006 211.371L207.488 211.112L207.177 211.579L207.229 212.926L207.281 214.066L207.073 214.377L206.503 214.221L205.571 213.496L204.586 212.719L203.964 212.045L204.12 211.838H204.897L205.156 211.268L205.26 210.128L204.949 209.298L204.068 207.951L203.757 207.796L203.187 208.314L203.135 210.076L203.187 211.475L202.617 212.563L201.58 213.289L201.01 213.755H197.383L194.636 213.6L193.859 213.133C193.859 213.133 192.978 211.993 192.771 211.838C192.564 211.682 191.735 211.527 191.527 211.371C191.32 211.216 190.543 211.268 190.284 211.164C190.024 211.06 188.263 211.06 188.263 211.06L187.278 211.009L185.257 210.179L183.651 209.247L182.096 208.625L180.49 208.469C180.49 208.469 179.039 208.573 178.78 208.418C178.52 208.262 177.225 207.744 177.225 207.744L175.567 205.827L175.1 204.376L175.204 202.147L175.256 199.349L175.359 196.603L174.738 194.685C174.738 194.685 173.908 193.804 173.701 193.649C173.494 193.493 172.509 193.027 172.509 193.027L171.162 192.664L170.385 192.042L170.333 191.576V190.799L170.436 190.177L170.229 189.97L169.763 190.177L168.156 191.161L167.275 191.68C167.275 191.68 166.654 191.991 166.343 191.991C166.032 191.991 165.203 192.042 164.995 192.042C164.788 192.042 163.959 191.939 163.959 191.939L163.752 191.576L163.7 190.54L163.752 189.348L163.855 188.778L164.633 188.259L165.306 187.482L165.617 186.394L165.514 184.736L165.358 183.181L165.306 181.73L165.151 180.849L164.788 180.435L164.063 180.227L163.389 180.486L163.026 180.642L162.767 181.264L162.871 182.767L162.663 184.062L162.456 185.202L161.99 185.979L161.42 186.705L160.435 187.223L159.502 187.379L157.585 187.482L156.601 187.43L156.341 187.016L156.497 186.29L157.378 185.461L158.518 184.321L159.813 183.285L161.212 181.782L162.042 180.642L162.819 178.984L163.389 176.807L163.544 174.942L163.441 172.921L163.596 171.211L163.493 169.967L163.389 169.086L162.974 168.931L162.612 169.604L161.679 171.366L160.332 173.232L157.741 176.341L156.652 177.688L154.787 179.398L153.543 180.383L152.818 180.901L152.299 181.575L151.781 182.3L151.626 183.181L151.729 184.373V185.306L151.315 185.668L150.175 185.72L148.931 184.839L147.636 183.388L146.599 181.056L145.926 178.362L145.356 176.082L144.526 174.424L142.92 172.765L141.728 172.299L140.484 172.247L139.966 171.936L139.655 171.211L140.018 170.382C140.018 170.382 140.329 170.174 140.64 169.915C140.951 169.656 141.417 169.552 141.417 169.552L141.832 169.345L142.039 168.827L142.091 168.05L141.728 167.739L140.744 167.531L140.018 167.583L139.344 167.428C139.344 167.428 139.033 167.065 138.982 166.858C138.93 166.65 138.982 165.666 138.982 165.666L138.878 165.096L137.842 164.889L136.028 164.837L134.266 164.215L132.297 163.956L129.499 164.059H127.788L126.804 163.749L126.182 163.179L125.975 162.505L126.027 161.52C126.027 161.52 126.234 161.106 126.027 160.898C125.819 160.691 125.457 160.277 125.457 160.277L123.954 159.603L122.192 159.188L120.637 159.24L118.72 159.344L117.476 159.655L114.782 160.38L110.481 162.09L108.045 163.282L105.558 164.422L103.018 165.2L101.049 165.51H98.3028L96.8519 165.614L95.9709 166.08L95.09 167.065C95.09 167.065 94.7272 167.739 94.4681 167.739C94.209 167.739 91.929 168.309 91.929 168.309L88.4052 168.879L85.5551 169.915L82.4459 171.159L79.8549 172.662L78.0412 173.75L77.0566 174.994L76.3311 176.445L75.6056 177.792L75.2429 178.569L74.9319 179.035L73.5846 179.502L70.9936 180.176C70.9936 180.176 68.1953 180.383 67.7289 180.435C67.2626 180.486 64.1534 180.486 64.1534 180.486L61.8733 180.279L59.1786 180.435L57.1576 180.694L54.463 181.73L50.7838 183.388L48.8146 185.047L47.4673 186.031L46.6381 186.86L45.7054 188.259L44.5653 189.762L43.4771 190.54L42.4925 190.954L40.5234 191.006L35.1859 191.058L33.3722 191.006L31.0403 190.488L29.4339 189.348L27.672 188L26.791 187.43L24.77 187.275L23.06 186.394L22.2827 185.565L22.0754 184.943L22.1272 183.181L22.179 182.3C22.179 182.3 22.0236 181.886 22.2309 181.678C22.4381 181.471 23.4227 180.953 23.4227 180.953C23.4227 180.953 23.9927 180.849 24.2 180.694C24.4073 180.538 25.1328 180.124 25.1328 180.124L25.7028 179.398V177.377L25.651 176.03L25.2882 175.253L24.9255 174.372L24.9773 172.817L25.0291 170.122L24.9255 167.842V167.376L24.5628 166.599L23.0082 164.837L21.609 163.489L20.469 162.453L19.588 161.52L19.2771 160.795L18.9144 159.707C18.9144 159.707 18.8107 158.463 18.6553 158.204C18.4998 157.945 18.0334 156.701 18.0334 156.701C18.0334 156.701 17.4116 155.82 17.2043 155.613C16.997 155.406 15.857 154.11 15.857 154.11L14.976 153.177L14.6133 152.607C14.6133 152.607 14.3024 151.934 14.3542 151.726C14.406 151.519 14.5097 150.275 14.5097 150.275L14.3542 149.187L13.8878 148.721L12.7478 148.203L11.5041 147.373L10.7268 146.7L10.0013 145.871L9.53491 144.834L9.37946 143.435L9.32763 142.243L9.53491 141.466L9.37946 141.103L8.4467 141.051C8.4467 141.051 7.82485 140.896 7.56574 140.792C7.30666 140.689 6.8921 140.43 6.8921 140.43L6.32208 139.549V138.409V137.579L6.06297 136.906L5.54477 136.284L3.88651 135.092L1.96917 133.071L0.880958 131.776L0.25911 131.102L0.0518279 130.532L0 129.91L0.466393 129.444L1.34735 129.392L2.33191 129.806L3.26469 131.05L4.66381 132.346L5.85568 133.226L6.73664 133.486L7.46212 133.382L7.72123 132.916L7.77303 131.776L7.72123 130.117C7.72123 130.117 7.6694 129.392 7.56574 129.185C7.46212 128.977 7.56574 128.977 7.04755 128.666C6.52936 128.355 6.01114 128.252 6.01114 128.252L5.23383 128.304L4.76747 127.941L4.8711 124.365L4.8193 124.054L4.24928 123.64L3.52377 123.536L2.28011 122.707L1.2437 121.101L0.518221 119.391L0.25911 118.458L0.673676 117.473L1.34735 116.126L1.50281 114.779L1.65826 112.084L1.60643 106.746V104.363L1.76189 102.653L1.86554 101.875L2.021 101.357L2.28011 101.305L2.74647 101.513L3.16104 102.601L3.52377 103.948L3.99017 104.674L4.3529 104.725L4.8193 104.052L5.07838 102.808L5.75206 100.994L6.84027 98.8179L9.63857 96.1751L11.815 93.5841L13.1623 92.2886L14.976 90.8894L17.1007 89.7494L19.1216 89.2312H21.5054L23.3191 88.8166C23.3191 88.8166 24.6664 88.0912 24.8737 87.9875C25.081 87.8839 26.0656 86.8993 26.0656 86.8993L27.4647 85.9665L29.0711 85.5001L30.5221 84.671L31.8176 83.4273L32.4394 82.4946L33.5795 81.3027L35.0823 80.4736L36.3259 80.1627L37.9842 80.1108L40.1088 79.9554L42.7516 79.3854L44.8763 78.8153L46.9491 77.5717L49.1773 75.8616L51.5092 73.0633L52.8047 71.4051L53.8411 69.125L54.3593 67.104L54.5148 64.513L54.5666 61.7147L54.8257 59.5901L55.7067 57.4654L56.7431 56.0145L57.624 55.0299L58.2459 54.4081L58.7641 54.3562L59.2823 54.8226L60.4741 56.429L61.3033 57.2063L62.1842 57.9836L62.7542 58.3982C62.7542 58.3982 62.9615 58.6573 63.117 58.3982C63.2724 58.1391 63.4279 57.88 63.4279 57.88L63.5315 55.9108L63.2724 52.6462L63.3242 51.5579L63.7906 51.0397L65.1379 50.9361L67.1589 51.0397H68.299L68.7653 50.7806L68.9726 49.5888L69.0245 47.8787L68.9208 47.1014L68.3508 46.8941H67.7289L67.2108 46.6868C67.2108 46.6868 67.1071 46.2723 67.2626 46.0132C67.418 45.7541 68.2471 44.9768 68.2471 44.9768L69.1281 43.9922L69.6981 42.9558L69.9572 42.334C69.9572 42.334 70.0609 42.1267 70.2681 41.9194C70.4754 41.7121 71.1491 41.6603 71.1491 41.6603L73.1701 41.8158H74.1028L74.621 41.5048L74.6728 39.8984L74.621 38.862C74.621 38.862 74.5692 38.3956 74.7765 38.2402C74.9838 38.0847 75.2947 37.7738 75.502 37.7738C75.7092 37.7738 76.5384 37.8774 76.5384 37.8774L77.6784 38.0329L78.093 37.722V36.841L78.1448 35.7528L79.0776 34.9237L80.5285 33.9391L83.4304 32.3845Z" fill="#427FE0" fill-opacity="0.3"/>
<path d="M110.104 11.2742L110.764 10.6512L111.46 10.3947H112.339L113.109 10.6512L114.355 10.9077L115.894 10.9444L117.066 10.8711L117.946 10.468C117.946 10.468 118.275 10.1382 118.422 10.1016C118.569 10.065 118.898 10.0283 118.898 10.0283L119.448 10.1749L119.778 10.6146L119.814 11.6406L119.851 12.3734L119.595 12.8864L119.008 13.5093L118.459 13.7292C118.459 13.7292 118.092 13.8391 117.909 13.8391C117.726 13.8391 117.323 13.9491 117.323 13.9491L116.846 14.3521L115.857 14.9018L115.198 15.1216L114.538 15.1583L113.988 15.1216C113.988 15.1216 113.439 14.9018 113.292 14.7185C113.146 14.5353 112.596 13.8025 112.596 13.8025L111.973 13.3261L111.094 12.8864L110.397 12.3001L110.104 11.6039V11.2742V11.2742Z" fill="#427FE0" fill-opacity="0.3"/>
<path d="M155.064 28.6795H154.478L154.185 28.4596V27.9466L154.331 27.5802L154.551 27.397L154.954 27.4703L155.174 27.8733L155.247 28.3863L155.064 28.6795V28.6795Z" fill="#427FE0" fill-opacity="0.3"/>
<path d="M156.31 30.2553V29.3392L156.567 28.7529L156.97 28.2033L157.373 27.9468L157.996 27.9102L158.436 27.9834L159.022 28.1667L159.388 28.3865L159.572 28.7163L159.462 29.0094L159.132 29.3392L158.912 29.7423L158.839 30.2553L159.059 30.6583L159.388 31.0248L159.718 31.2813L159.901 31.611L159.865 32.1973C159.865 32.1973 159.828 32.6004 159.681 32.637C159.535 32.6737 159.388 32.8202 159.242 32.8202C159.095 32.8202 158.362 32.7836 158.362 32.7836L157.52 32.3805L156.823 31.8675L156.347 31.208L156.274 30.5484L156.31 30.2553V30.2553Z" fill="#427FE0" fill-opacity="0.3"/>
<path d="M175.657 49.5573L176.072 48.9355L176.875 48.5727L177.393 48.2618L177.989 48.0286L178.43 47.8731L178.896 47.7954L179.259 47.8731L179.518 48.0804L179.363 48.4691L179 48.6764L178.378 49.0391L177.808 49.2205L177.367 49.5055L176.797 49.8423L176.461 49.9978L176.046 50.0496L175.683 49.9719L175.528 49.7646L175.657 49.5573V49.5573Z" fill="#427FE0" fill-opacity="0.3"/>
<path d="M221.181 222.584L221.13 222.092L221.156 221.652L221.389 221.367H221.674L222.114 221.47L222.684 222.248L223.125 222.947L223.436 223.543L223.721 223.958L224.032 224.113L224.135 224.424L223.85 224.709L223.462 224.994L223.28 225.201L222.969 225.331C222.969 225.331 222.632 225.357 222.529 225.305C222.425 225.253 222.244 225.15 222.244 225.02C222.244 224.89 222.322 224.45 222.322 224.45C222.322 224.45 222.296 224.243 222.244 224.139C222.192 224.035 222.011 223.647 222.011 223.647L221.726 223.232L221.441 222.921L221.285 222.792L221.181 222.584V222.584Z" fill="#427FE0" fill-opacity="0.3"/>
<path d="M222.399 226.498L222.606 226.057L222.762 225.772L223.047 225.591H223.617L224.057 225.565L224.394 225.591L224.575 225.617L224.757 226.031L224.653 226.342L224.239 226.524L223.979 226.653L223.591 226.757H222.995L222.425 226.705L222.399 226.498H222.399Z" fill="#427FE0" fill-opacity="0.3"/>
<path d="M198.044 221.73L197.966 221.211L198.07 220.564L198.122 219.786C198.122 219.786 198.303 219.579 198.329 219.45C198.355 219.32 198.303 219.191 198.381 219.061C198.459 218.931 198.795 218.724 198.795 218.724C198.795 218.724 199.003 218.75 199.106 218.75C199.21 218.75 199.521 219.009 199.521 219.009L199.625 219.605C199.625 219.605 199.676 219.812 199.676 220.02C199.676 220.227 199.702 220.719 199.676 220.849C199.65 220.978 199.417 221.367 199.417 221.367L199.08 221.73C199.08 221.73 198.925 221.859 198.77 221.885C198.614 221.911 198.303 221.885 198.303 221.885L198.044 221.73V221.73Z" fill="#427FE0" fill-opacity="0.3"/>
<path d="M202.26 227.904L202.699 227.135C202.699 227.135 203.029 226.769 203.176 226.769C203.322 226.769 203.689 226.769 203.689 226.769L204.275 227.245L204.421 227.611L205.081 227.831L206.144 227.941L206.876 228.234L207.793 229.004L208.819 229.773L209.735 230.543L210.651 231.056L211.713 231.166C211.713 231.166 212.593 231.202 212.739 231.092C212.886 230.982 213.142 230.763 213.326 230.689C213.509 230.616 214.242 230.396 214.242 230.396L215.194 230.286L216.074 230.103L217.466 229.993L218.712 229.81L219.518 229.627L220.178 229.224L220.837 228.857H221.533L222.303 229.15L222.779 229.443L223.146 230.14L223.219 231.092L223.182 232.082L222.999 233.071L222.633 234.244L222.34 235.013L222.266 236.076L222.303 237.285L222.376 238.018L222.193 238.348L221.497 238.531L221.057 238.567L220.471 239.044L220.068 239.593L219.701 240.143L219.591 240.876L219.775 241.426L220.288 241.645L220.544 241.939V242.232L220.507 242.671L220.031 242.928L219.885 243.404V244.027C219.885 244.027 219.885 244.394 219.885 244.613C219.885 244.833 219.738 245.09 219.738 245.09L219.665 245.273L219.188 245.31L218.675 245.273C218.675 245.273 218.492 244.76 218.529 244.613C218.565 244.467 218.455 244.064 218.382 243.917C218.309 243.771 218.199 243.624 218.016 243.624C217.833 243.624 217.466 243.624 217.466 243.624L217.063 243.734L216.404 244.21L215.964 244.54L215.304 245.383L214.718 245.896L214.242 247.032L213.948 247.618L213.362 247.911L212.666 247.875L211.86 247.545L211.274 247.068L210.944 246.812H210.651C210.651 246.812 210.394 246.812 210.248 246.812C210.101 246.812 209.845 246.849 209.845 246.849L209.588 246.775C209.588 246.775 209.295 246.775 209.185 246.592C209.075 246.409 208.965 246.299 208.965 246.299L208.525 246.042C208.525 246.042 208.562 246.079 208.196 245.823C207.829 245.566 207.389 245.31 207.389 245.31C207.389 245.31 207.06 245.09 207.023 244.943C206.986 244.797 206.4 244.027 206.4 244.027L205.814 242.891L205.521 241.975L205.447 241.059L205.484 240.216L205.264 239.593L204.825 239.154C204.825 239.154 204.348 238.97 204.275 238.787C204.202 238.604 204.128 238.238 204.128 238.238L204.385 237.871C204.385 237.871 204.605 237.688 204.825 237.615C205.044 237.541 205.118 237.468 205.118 237.468C205.118 237.468 205.191 237.358 205.191 237.138C205.191 236.918 205.191 236.625 205.191 236.625L204.898 235.966C204.898 235.966 204.825 235.599 204.788 235.453C204.751 235.306 204.092 234.097 204.092 234.097L203.322 233.511L202.736 232.851L202.406 232.448L202.223 231.386L202.26 230.103L202.296 228.637L202.26 227.904V227.904Z" fill="#427FE0" fill-opacity="0.3"/>
<path d="M155.687 190.382L156.347 189.649L156.823 189.1L157.483 188.696L158.142 188.623L158.545 188.44H159.498L160.451 188.403L161.074 188.587C161.074 188.587 161.513 188.696 161.88 188.806C162.246 188.916 162.356 188.953 162.503 188.953C162.649 188.953 162.942 188.953 162.942 188.953L163.345 189.063L163.529 189.283L163.419 189.796C163.419 189.796 163.235 190.235 163.089 190.309C162.942 190.382 162.576 190.565 162.576 190.565L162.173 190.895C162.173 190.895 162.356 191.078 162.063 191.152C161.77 191.225 161.587 191.261 161.587 191.261L161.183 191.042V190.858L160.707 190.822H160.267L159.938 191.152L158.252 191.078L156.713 191.115L156.09 190.895L155.614 190.712L155.541 190.565L155.687 190.382V190.382Z" fill="#427FE0" fill-opacity="0.3"/>
<path d="M264.978 129.311L285.911 129.533" stroke="#427FE0" stroke-width="1.68165"/>
<path d="M257.852 121.071V105.259C257.852 104.275 258.649 103.478 259.633 103.478H274.999" stroke="#427FE0" stroke-width="1.68165"/>
<path d="M109.968 35.7577V2.79866C109.968 1.81473 110.766 1.01709 111.75 1.01709H130.902" stroke="#427FE0" stroke-width="1.68165"/>
<path d="M259.633 148.017V156.702C259.633 157.686 260.431 158.484 261.415 158.484H280.789" stroke="#427FE0" stroke-width="1.68165"/>
<path d="M32.0381 175.631V198.346" stroke="#427FE0" stroke-width="1.68165"/>
<circle cx="31.9272" cy="175.743" r="5.2338" fill="#427FE0"/>
<circle cx="109.858" cy="35.6469" r="5.2338" fill="#427FE0"/>
<circle cx="168.204" cy="182.181" r="5.2338" fill="#427FE0"/>
<circle cx="256.85" cy="120.514" r="5.2338" fill="#427FE0"/>
<circle cx="259.522" cy="147.683" r="5.2338" fill="#427FE0"/>
<circle cx="264.867" cy="128.976" r="5.2338" fill="#427FE0"/>
<circle cx="244.825" cy="178.415" r="5.2338" fill="#427FE0"/>
<circle cx="225.214" cy="184.853" r="5.2338" fill="#427FE0"/>
<circle cx="234.344" cy="174.386" r="3.2291" fill="#427FE0"/>
<circle cx="206.507" cy="203.114" r="5.23336" fill="#427FE0"/>
<circle cx="217.197" cy="240.527" r="5.2338" fill="#427FE0"/>
<circle cx="193.813" cy="200.219" r="3.2291" fill="#427FE0"/>
<circle cx="200.94" cy="194.429" r="3.2291" fill="#427FE0"/>
<circle cx="197.822" cy="208.236" r="3.2291" fill="#427FE0"/>
<path d="M244.936 178.526H291.259" stroke="#427FE0" stroke-width="1.68165"/>
</svg>
