<svg width="654" height="557" viewBox="0 0 654 557" fill="none" xmlns="http://www.w3.org/2000/svg">
<path d="M486.902 541.5H558.902" stroke="#427FE0" stroke-width="3.77565"/>
<path d="M525.902 387V359C525.902 356.791 524.111 355 521.902 355H488.902" stroke="#427FE0" stroke-width="3.77565"/>
<path d="M506.402 415.5V434.5C506.402 436.709 508.193 438.5 510.402 438.5H570.902" stroke="#427FE0" stroke-width="3.77565"/>
<path d="M463.902 456V475C463.902 477.209 465.693 479 467.902 479H528.402" stroke="#427FE0" stroke-width="3.77565"/>
<path d="M377.902 409.5V383.5C377.902 381.291 376.111 379.5 373.902 379.5H299.402" stroke="#427FE0" stroke-width="3.77565"/>
<path d="M451.402 435H405.902C403.693 435 401.902 436.791 401.902 439V477.5C401.902 479.709 400.111 481.5 397.902 481.5H352.402" stroke="#427FE0" stroke-width="3.77565"/>
<path d="M434.902 450H419.086C416.877 450 415.086 451.791 415.086 454V512C415.086 514.209 413.295 516 411.086 516H380.902" stroke="#427FE0" stroke-width="3.77565"/>
<path d="M187.319 72.4254L189.53 71.3783L191.624 70.4475L193.602 69.8658L195.58 69.5168H198.372L200.699 70.2149L203.491 71.8437L206.4 74.5197L208.727 77.312L210.356 80.4534L211.752 83.3621L214.311 86.7361L216.987 88.1323L221.525 89.1794L227.226 88.8304L232.462 88.4813H235.254L236.883 87.8996L237.465 87.4342L237.697 84.7582L237.348 82.7803L236.65 81.3842C236.65 81.3842 236.301 80.6861 235.836 80.6861C235.37 80.6861 233.974 80.3371 233.974 80.3371L232.811 79.8717L232.345 78.4755L232.811 74.5197L233.741 71.9601L235.37 68.935L237.814 65.91L239.442 63.8158L239.908 62.5359L240.955 61.9542L243.398 61.7215L245.027 61.8379H246.074L246.656 61.0234L246.074 59.3946L245.027 57.0676L244.911 54.3916L245.376 51.9483L246.423 49.6214L248.75 47.2945L252.241 45.2002L257.127 44.0367L261.199 43.455L265.97 42.9896L269.344 42.6406L273.998 42.1752L278.07 41.4771L280.978 39.7319L282.84 37.2886L283.538 34.9617L283.305 32.053L282.491 30.4241L281.095 28.6789L279.466 27.2827L278.186 26.8174L276.208 26.9337L274.812 26.8174L273.998 26.1193L274.114 24.6068L275.277 23.2106L276.557 22.1635L278.186 21.8144L279.931 22.1635L283.189 23.9087L286.912 26.8174L289.239 28.0972L290.752 29.726L291.45 30.4241H292.38L292.962 28.9116L292.846 26.9337L292.613 25.3048L293.428 24.9558L294.358 25.6539L295.289 27.5154L296.104 29.028L296.336 29.9587L297.383 30.6568H299.594L301.339 31.3549L304.713 32.8674L307.389 34.2636L310.065 34.6126L321.351 34.729L322.165 34.8453L322.747 36.1251L323.445 37.9867L324.958 39.3829L326.936 40.1973L329.844 40.3136L333.451 40.43L335.429 40.6627L337.058 40.8954L337.872 40.1973L338.105 39.3829L339.617 38.9175L341.246 39.0338L342.526 39.1502L342.875 39.8482L343.224 41.7098L343.69 43.2223L345.086 43.804L346.366 44.0367L347.645 43.9204L348.576 43.5714L349.274 42.1752L349.74 40.779L350.67 40.0809L352.416 39.3829L354.161 39.2665L355.79 39.7319L357.186 40.43L358 41.4771L358.117 43.455L357.651 46.9454L357.302 50.7849L356.604 54.508V55.5551L356.139 56.2532L355.557 56.8349L353.114 57.0676L347.994 56.8349H344.969L343.573 57.0676L342.875 57.9984L341.712 63.8158L340.548 69.5168L338.454 73.5889L334.964 78.2428L332.055 81.2678L330.193 82.7803L329.262 83.5948L329.495 84.4092L332.171 83.9438L335.545 84.4092L339.734 85.5727L344.853 87.7833L355.324 94.1824L360.793 97.9055L364.748 100.349L369.868 102.559L374.638 104.305L378.594 106.399L381.27 108.609L384.76 111.867L388.483 114.659L390.926 116.521L393.37 117.684L394.65 118.383L395.115 120.36L396.977 124.084L398.489 125.945L401.514 127.923L404.772 128.737H411.636L417.105 128.621L420.013 128.505L420.711 128.156L421.409 125.829L422.224 121.524L423.504 116.405L425.947 110.936L428.274 105.352L429.903 100.349L430.601 95.2295L431.066 88.365L431.183 80.5697L433.393 65.0956L433.975 60.3253L434.208 56.7186V54.3916L434.906 53.2282L435.487 52.7628L437 52.5301L438.047 52.0647L438.28 50.7849L438.861 44.6185L439.792 39.0338L441.654 34.1472L443.166 30.3078L445.028 26.4683L445.842 24.2577L446.54 22.6289L447.006 21.6981L448.286 21L450.845 21.1163L452.823 22.3962L454.568 24.8395L455.965 28.5626L456.546 32.2857L456.779 34.9617V37.8703L457.012 38.9175L457.593 39.2665L459.688 39.0338L461.549 38.9175L462.247 39.0338L463.178 39.1502L463.411 40.1973L462.829 41.7098L462.364 43.106V46.48L462.596 48.9233L463.876 52.4137L465.621 56.6022L467.716 61.4888L468.995 65.3283L469.81 69.4004L470.043 73.938V77.7774L470.159 79.7553L470.508 81.0351L471.788 81.3842H474.58L476.907 80.8024C476.907 80.8024 478.536 80.5697 479.001 80.5697C479.467 80.5697 481.794 80.4534 481.794 80.4534L484.004 81.0351L485.749 82.4313L487.611 84.9909L489.705 88.714L491.916 92.3208L492.847 94.4151L493.428 97.6728L493.545 102.443L494.126 108.726L494.592 112.1L494.941 114.543L496.337 117.801L497.849 119.313L499.129 120.826L501.573 121.64L502.503 122.804L503.318 126.76L503.783 131.762L503.9 141.187L504.249 146.771L505.412 152.123L507.855 156.195L510.997 160.268L514.953 163.758L517.629 165.387L519.839 166.085H521.584L522.282 166.201L522.864 167.248L523.446 170.506L524.493 171.786L526.82 173.182L530.659 175.393L533.568 177.254L536.128 180.047L538.571 183.537L540.549 188.656L543.69 195.404L546.832 201.338L549.042 206.457L551.369 212.275L552.649 217.859L552.416 219.605L552.765 220.535L553.463 220.186L553.696 218.208L554.161 216.58L555.092 216.231L556.721 216.696L557.536 217.627L558.583 220.535L559.63 223.211L560.444 225.306L560.91 226.469L562.073 226.702L562.771 224.608L562.422 220.884L562.655 218.092L563.004 217.045L564.516 216.696H565.796L566.494 217.394L566.843 219.837L566.96 227.749L567.425 232.635L568.24 237.638L569.636 242.06L571.381 244.852L573.941 247.644L576.035 250.32L578.943 254.16L583.016 260.791L586.506 266.143L589.182 269.401L591.974 271.961L593.37 272.659L594.883 272.775C594.883 272.775 595.93 272.659 595.93 272.077C595.93 271.495 596.047 270.332 596.047 270.332C596.047 270.332 596.163 268.47 596.628 268.238C597.094 268.005 597.792 267.074 597.792 267.074L599.77 266.376H601.98L603.144 267.074L603.493 267.889L602.795 269.75L601.98 272.077L601.631 274.404L600.468 277.545L598.257 279.058L596.745 279.174L595.697 279.291C595.697 279.291 594.883 279.174 594.767 279.756C594.65 280.338 593.952 282.548 593.952 282.548L594.418 287.086L594.883 296.975L594.65 306.632L595.232 314.311L595.697 318.151L595.232 325.015L594.418 331.298L592.44 337.581L589.996 344.91L587.437 350.262L585.692 354.102L584.644 358.174L583.597 366.086L582.899 372.368L581.969 377.022L579.874 381.56L575.104 385.632L569.868 389.239L566.378 391.798L563.004 394.94L561.026 397.616L559.397 400.641L557.768 404.713L556.256 409.367L553.696 414.602L549.624 420.071L547.413 423.096L545.086 426.353L543.225 430.891L539.618 435.429L535.662 438.919L532.87 441.944L531.474 444.271L531.357 448.343L531.474 452.648L530.543 458L529.263 462.421L527.867 465.213L524.958 468.355L520.305 469.867L513.556 469.984L504.714 470.333L498.548 471.38L493.777 472.776L488.658 475.685L486.098 477.197L484.237 477.43L482.608 477.895L481.794 479.291L481.445 482.549L481.328 483.713L480.397 484.294H478.187L474.231 482.898L470.624 482.2C470.624 482.2 469.577 481.735 469.577 481.269C469.577 480.804 469.577 478.71 469.577 478.71L468.53 475.801L467.018 474.289L465.854 473.707L465.156 474.754L465.272 477.779L465.389 480.339L464.923 481.037L463.643 480.688L461.549 479.059L459.339 477.314L457.942 475.801L458.291 475.336H460.037L460.618 474.056L460.851 471.496L460.153 469.635L458.175 466.61L457.477 466.261L456.197 467.424L456.081 471.38L456.197 474.521L454.917 476.965L452.59 478.593L451.311 479.64H443.166L437 479.291L435.255 478.244C435.255 478.244 433.277 475.685 432.811 475.336C432.346 474.987 430.484 474.638 430.019 474.289C429.554 473.94 427.809 474.056 427.227 473.823C426.645 473.59 422.689 473.59 422.689 473.59L420.479 473.474L415.941 471.613L412.334 469.518L408.844 468.122L405.237 467.773C405.237 467.773 401.979 468.006 401.398 467.657C400.816 467.308 397.907 466.144 397.907 466.144L394.184 461.839L393.137 458.582L393.37 453.579L393.486 447.296L393.719 441.13L392.323 436.825C392.323 436.825 390.461 434.847 389.996 434.498C389.53 434.149 387.32 433.102 387.32 433.102L384.295 432.287L382.549 430.891L382.433 429.844V428.099L382.666 426.703L382.2 426.237L381.153 426.703L377.547 428.913L375.569 430.077C375.569 430.077 374.172 430.775 373.474 430.775C372.776 430.775 370.915 430.891 370.449 430.891C369.984 430.891 368.122 430.658 368.122 430.658L367.657 429.844L367.541 427.517L367.657 424.841L367.89 423.561L369.635 422.398L371.147 420.652L371.846 418.209L371.613 414.486L371.264 410.996L371.147 407.738L370.798 405.76L369.984 404.829L368.355 404.364L366.843 404.946L366.028 405.295L365.446 406.691L365.679 410.065L365.214 412.974L364.748 415.533L363.701 417.278L362.421 418.907L360.211 420.071L358.117 420.42L353.812 420.652L351.601 420.536L351.019 419.605L351.368 417.977L353.346 416.115L355.906 413.555L358.815 411.228L361.956 407.854L363.818 405.295L365.563 401.572L366.843 396.685L367.192 392.496L366.959 387.959L367.308 384.119L367.075 381.327L366.843 379.349L365.912 379L365.097 380.513L363.003 384.469L359.978 388.657L354.161 395.638L351.717 398.663L347.529 402.502L344.737 404.713L343.108 405.876L341.944 407.389L340.781 409.018L340.432 410.996L340.664 413.672V415.766L339.734 416.58L337.174 416.697L334.382 414.719L331.473 411.461L329.146 406.225L327.634 400.175L326.354 395.056L324.492 391.333L320.885 387.61L318.209 386.563L315.417 386.446L314.254 385.748L313.556 384.119L314.37 382.258C314.37 382.258 315.068 381.793 315.766 381.211C316.464 380.629 317.511 380.396 317.511 380.396L318.442 379.931L318.908 378.768L319.024 377.022L318.209 376.324L315.999 375.859L314.37 375.975L312.858 375.626C312.858 375.626 312.159 374.812 312.043 374.346C311.927 373.881 312.043 371.67 312.043 371.67L311.81 370.391L309.483 369.925L305.411 369.809L301.456 368.413L297.034 367.831L290.752 368.064H286.912L284.702 367.365L283.305 366.086L282.84 364.573L282.956 362.363C282.956 362.363 283.422 361.432 282.956 360.966C282.491 360.501 281.676 359.57 281.676 359.57L278.302 358.058L274.347 357.127L270.856 357.243L266.551 357.476L263.759 358.174L257.709 359.803L248.052 363.642L242.584 366.318L236.999 368.878L231.298 370.623L226.877 371.321H220.711L217.453 371.554L215.475 372.601L213.497 374.812C213.497 374.812 212.683 376.324 212.101 376.324C211.519 376.324 206.4 377.604 206.4 377.604L198.488 378.884L192.089 381.211L185.108 384.003L179.291 387.377L175.219 389.82L173.008 392.613L171.379 395.871L169.751 398.896L168.936 400.641L168.238 401.688L165.213 402.735L159.396 404.248C159.396 404.248 153.113 404.713 152.066 404.829C151.019 404.946 144.038 404.946 144.038 404.946L138.919 404.48L132.868 404.829L128.331 405.411L122.281 407.738L114.02 411.461L109.599 415.184L106.574 417.395L104.712 419.256L102.618 422.398L100.059 425.772L97.6153 427.517L95.4047 428.448L90.9835 428.564L78.9997 428.68L74.9276 428.564L69.692 427.401L66.0852 424.841L62.1294 421.816L60.1515 420.536L55.614 420.187L51.7745 418.209L50.0293 416.348L49.5639 414.951L49.6803 410.996L49.7966 409.018C49.7966 409.018 49.4476 408.087 49.913 407.622C50.3783 407.156 52.5889 405.993 52.5889 405.993C52.5889 405.993 53.8688 405.76 54.3342 405.411C54.7995 405.062 56.4284 404.131 56.4284 404.131L57.7082 402.502V397.965L57.5919 394.94L56.7774 393.195L55.963 391.217L56.0794 387.726L56.1957 381.676L55.963 376.557V375.51L55.1486 373.765L51.6582 369.809L48.5168 366.784L45.9572 364.457L43.9793 362.363L43.2812 360.734L42.4667 358.29C42.4667 358.29 42.234 355.498 41.885 354.916C41.536 354.335 40.4888 351.542 40.4888 351.542C40.4888 351.542 39.0927 349.564 38.6273 349.099C38.1619 348.634 35.6023 345.725 35.6023 345.725L33.6243 343.631L32.8099 342.351C32.8099 342.351 32.1119 340.838 32.2282 340.373C32.3445 339.908 32.5773 337.115 32.5773 337.115L32.2282 334.672L31.1811 333.625L28.6214 332.461L25.8291 330.6L24.0839 329.087L22.455 327.226L21.4079 324.899L21.0589 321.757L20.9425 319.081L21.4079 317.336L21.0589 316.522L18.9646 316.405C18.9646 316.405 17.5684 316.056 16.9867 315.824C16.405 315.591 15.4742 315.009 15.4742 315.009L14.1944 313.031V310.472V308.61L13.6126 307.098L12.4492 305.701L8.72604 303.026L4.4212 298.488L1.97794 295.579L0.581757 294.067L0.116364 292.787L0 291.391L1.04715 290.344L3.02509 290.227L5.23562 291.158L7.32992 293.95L10.4712 296.859L13.1472 298.837L15.1252 299.419L16.754 299.186L17.3358 298.139L17.4521 295.579L17.3358 291.856C17.3358 291.856 17.2194 290.227 16.9867 289.762C16.754 289.297 16.9867 289.297 15.8232 288.598C14.6598 287.9 13.4963 287.668 13.4963 287.668L11.7511 287.784L10.704 286.97L10.9366 278.942L10.8203 278.244L9.54052 277.313L7.91162 277.08L5.11932 275.219L2.79236 271.612L1.16351 267.772L0.581757 265.678L1.51254 263.467L3.02509 260.442L3.37412 257.417L3.72314 251.367L3.60678 239.384V234.032L3.95581 230.192L4.18854 228.447L4.53757 227.284L5.11932 227.167L6.16641 227.633L7.0972 230.076L7.91162 233.101L8.95877 234.73L9.77319 234.846L10.8203 233.334L11.402 230.541L12.9146 226.469L15.3578 221.582L21.6406 215.649L26.5272 209.831L29.5522 206.923L33.6243 203.781L38.3946 201.222L42.9321 200.058H48.2841L52.3563 199.127C52.3563 199.127 55.3813 197.499 55.8467 197.266C56.3121 197.033 58.5227 194.823 58.5227 194.823L61.664 192.728L65.2708 191.681L68.5285 189.82L71.4372 187.027L72.8334 184.933L75.393 182.257L78.7671 180.396L81.5594 179.698L85.2825 179.581L90.0527 179.232L95.9864 177.952L100.757 176.672L105.411 173.88L110.413 170.041L115.649 163.758L118.558 160.035L120.885 154.916L122.048 150.378L122.397 144.561L122.514 138.278L123.095 133.508L125.073 128.737L127.4 125.48L129.378 123.269L130.774 121.873L131.938 121.757L133.101 122.804L135.777 126.411L137.639 128.156L139.617 129.901L140.896 130.832C140.896 130.832 141.362 131.413 141.711 130.832C142.06 130.25 142.409 129.668 142.409 129.668L142.642 125.247L142.06 117.917L142.176 115.474L143.223 114.31L146.248 114.078L150.786 114.31H153.346L154.393 113.729L154.858 111.053L154.974 107.213L154.742 105.468L153.462 105.003H152.066L150.902 104.537C150.902 104.537 150.67 103.606 151.019 103.025C151.368 102.443 153.229 100.698 153.229 100.698L155.207 98.4872L156.487 96.1603L157.069 94.7641C157.069 94.7641 157.301 94.2987 157.767 93.8333C158.232 93.3679 159.745 93.2516 159.745 93.2516L164.282 93.6006H166.376L167.54 92.9025L167.656 89.2958L167.54 86.9688C167.54 86.9688 167.424 85.9217 167.889 85.5727C168.354 85.2236 169.052 84.5256 169.518 84.5256C169.983 84.5256 171.845 84.7582 171.845 84.7582L174.404 85.1073L175.335 84.4092V82.4313L175.452 79.988L177.546 78.1265L180.803 75.9159L187.319 72.4254Z" fill="#427FE0" fill-opacity="0.3"/>
<path d="M247.207 25.0296L248.688 23.631L250.251 23.0551H252.225L253.953 23.631L256.75 24.2069L260.206 24.2892L262.838 24.1246L264.813 23.2197C264.813 23.2197 265.553 22.4792 265.882 22.397C266.211 22.3147 266.952 22.2324 266.952 22.2324L268.186 22.5615L268.926 23.5487L269.009 25.8523L269.091 27.4977L268.515 28.6495L267.199 30.0481L265.965 30.5417C265.965 30.5417 265.142 30.7885 264.73 30.7885C264.319 30.7885 263.414 31.0353 263.414 31.0353L262.345 31.9403L260.123 33.1743L258.643 33.6679L257.162 33.7502L255.928 33.6679C255.928 33.6679 254.694 33.1743 254.365 32.763C254.035 32.3516 252.801 30.7062 252.801 30.7062L251.403 29.6367L249.428 28.6495L247.865 27.3332L247.207 25.77V25.0296V25.0296Z" fill="#427FE0" fill-opacity="0.3"/>
<path d="M348.151 64.108H346.835L346.177 63.6143V62.4626L346.506 61.6399L346.999 61.2285L347.904 61.3931L348.398 62.298L348.563 63.4498L348.151 64.108V64.108Z" fill="#427FE0" fill-opacity="0.3"/>
<path d="M350.949 67.6451V65.5884L351.525 64.2721L352.43 63.038L353.335 62.4622L354.734 62.3799L355.721 62.5444L357.037 62.9558L357.86 63.4494L358.272 64.1898L358.025 64.848L357.284 65.5884L356.791 66.4934L356.626 67.6451L357.12 68.5501L357.86 69.3728L358.601 69.9487L359.012 70.6891L358.93 72.0055C358.93 72.0055 358.847 72.9104 358.518 72.9927C358.189 73.075 357.86 73.404 357.531 73.404C357.202 73.404 355.557 73.3218 355.557 73.3218L353.664 72.4168L352.101 71.265L351.032 69.7842L350.867 68.3033L350.949 67.6451V67.6451Z" fill="#427FE0" fill-opacity="0.3"/>
<path d="M394.389 110.983L395.319 109.587L397.123 108.773L398.286 108.074L399.624 107.551L400.613 107.202L401.66 107.027L402.475 107.202L403.056 107.667L402.707 108.54L401.893 109.005L400.497 109.82L399.217 110.227L398.228 110.867L396.948 111.623L396.192 111.972L395.261 112.088L394.447 111.914L394.098 111.449L394.389 110.983V110.983Z" fill="#427FE0" fill-opacity="0.3"/>
<path d="M496.599 499.466L496.482 498.36L496.541 497.371L497.064 496.731H497.704L498.693 496.964L499.973 498.709L500.962 500.28L501.66 501.618L502.3 502.549L502.998 502.898L503.231 503.596L502.591 504.236L501.718 504.876L501.311 505.341L500.613 505.632C500.613 505.632 499.857 505.69 499.624 505.574C499.391 505.457 498.984 505.225 498.984 504.934C498.984 504.643 499.158 503.654 499.158 503.654C499.158 503.654 499.1 503.189 498.984 502.956C498.868 502.723 498.46 501.851 498.46 501.851L497.82 500.92L497.181 500.222L496.831 499.931L496.599 499.466V499.466Z" fill="#427FE0" fill-opacity="0.3"/>
<path d="M499.333 508.251L499.798 507.262L500.147 506.622L500.787 506.214H502.067L503.056 506.156L503.812 506.214L504.22 506.273L504.627 507.203L504.394 507.901L503.463 508.309L502.882 508.6L502.009 508.832H500.671L499.391 508.716L499.333 508.251H499.333Z" fill="#427FE0" fill-opacity="0.3"/>
<path d="M454.115 511.409L455.103 509.681C455.103 509.681 455.843 508.858 456.172 508.858C456.501 508.858 457.324 508.858 457.324 508.858L458.64 509.928L458.969 510.751L460.45 511.244L462.836 511.491L464.481 512.149L466.538 513.877L468.842 515.605L470.899 517.332L472.955 518.484L475.341 518.731C475.341 518.731 477.316 518.813 477.645 518.566C477.974 518.319 478.55 517.826 478.961 517.661C479.372 517.497 481.018 517.003 481.018 517.003L483.157 516.756L485.131 516.345L488.257 516.098L491.055 515.687L492.865 515.275L494.345 514.371L495.826 513.548H497.389L499.117 514.206L500.187 514.864L501.009 516.427L501.174 518.566L501.092 520.788L500.68 523.009L499.858 525.641L499.199 527.369L499.035 529.755L499.117 532.47L499.282 534.115L498.87 534.856L497.307 535.267L496.32 535.349L495.004 536.419L494.099 537.653L493.276 538.887L493.029 540.532L493.44 541.766L494.592 542.26L495.168 542.918V543.576L495.086 544.564L494.016 545.139L493.687 546.209V547.608C493.687 547.608 493.687 548.43 493.687 548.924C493.687 549.417 493.358 549.993 493.358 549.993L493.194 550.405L492.124 550.487L490.972 550.405C490.972 550.405 490.561 549.253 490.643 548.924C490.726 548.595 490.479 547.69 490.314 547.361C490.15 547.032 489.903 546.703 489.492 546.703C489.08 546.703 488.257 546.703 488.257 546.703L487.353 546.949L485.872 548.019L484.884 548.759L483.404 550.652L482.087 551.803L481.018 554.354L480.36 555.67L479.043 556.328L477.48 556.246L475.67 555.505L474.354 554.436L473.613 553.86H472.955C472.955 553.86 472.379 553.86 472.05 553.86C471.721 553.86 471.145 553.942 471.145 553.942L470.569 553.778C470.569 553.778 469.911 553.778 469.664 553.366C469.418 552.955 469.171 552.708 469.171 552.708L468.184 552.132C468.184 552.132 468.266 552.215 467.443 551.639C466.62 551.063 465.633 550.487 465.633 550.487C465.633 550.487 464.893 549.993 464.811 549.664C464.728 549.335 463.412 547.608 463.412 547.608L462.096 545.057L461.437 543L461.273 540.944L461.355 539.051L460.862 537.653L459.874 536.666C459.874 536.666 458.805 536.254 458.64 535.843C458.476 535.432 458.311 534.609 458.311 534.609L458.887 533.786C458.887 533.786 459.381 533.375 459.874 533.21C460.368 533.046 460.533 532.881 460.533 532.881C460.533 532.881 460.697 532.634 460.697 532.141C460.697 531.647 460.697 530.989 460.697 530.989L460.039 529.508C460.039 529.508 459.874 528.685 459.792 528.356C459.71 528.027 458.229 525.312 458.229 525.312L456.501 523.996L455.185 522.515L454.445 521.61L454.033 519.224L454.115 516.345L454.198 513.054L454.115 511.409V511.409Z" fill="#427FE0" fill-opacity="0.3"/>
<path d="M349.551 427.164L351.032 425.519L352.101 424.285L353.582 423.38L355.063 423.215L355.968 422.804H358.107L360.246 422.722L361.644 423.133C361.644 423.133 362.632 423.38 363.454 423.627C364.277 423.873 364.524 423.956 364.853 423.956C365.182 423.956 365.84 423.956 365.84 423.956L366.745 424.203L367.157 424.696L366.91 425.848C366.91 425.848 366.498 426.835 366.169 427C365.84 427.164 365.017 427.576 365.017 427.576L364.113 428.316C364.113 428.316 364.524 428.727 363.866 428.892C363.208 429.056 362.796 429.139 362.796 429.139L361.891 428.645V428.234L360.822 428.151H359.834L359.094 428.892L355.31 428.727L351.854 428.81L350.456 428.316L349.386 427.905L349.222 427.576L349.551 427.164V427.164Z" fill="#427FE0" fill-opacity="0.3"/>
<path d="M594.932 290.045L641.932 290.545" stroke="#427FE0" stroke-width="3.77565"/>
<path d="M578.932 271.545V236.045C578.932 233.836 580.723 232.045 582.932 232.045H617.432" stroke="#427FE0" stroke-width="3.77565"/>
<path d="M582.932 332.045V351.545C582.932 353.754 584.723 355.545 586.932 355.545H630.432" stroke="#427FE0" stroke-width="3.77565"/>
<circle cx="576.683" cy="270.296" r="11.751" fill="#427FE0"/>
<circle cx="582.683" cy="331.296" r="11.751" fill="#427FE0"/>
<circle cx="594.683" cy="289.296" r="11.751" fill="#427FE0"/>
<circle cx="549.683" cy="400.296" r="11.751" fill="#427FE0"/>
<circle cx="505.653" cy="414.751" r="11.751" fill="#427FE0"/>
<circle cx="526.152" cy="391.25" r="7.25" fill="#427FE0"/>
<circle cx="463.652" cy="455.75" r="11.75" fill="#427FE0"/>
<circle cx="487.653" cy="539.751" r="11.751" fill="#427FE0"/>
<path d="M443.402 467.5V550C443.402 552.209 441.611 554 439.402 554H410.402" stroke="#427FE0" stroke-width="3.77565"/>
<path d="M444.65 497.546L444.476 496.383L444.708 494.928L444.825 493.183C444.825 493.183 445.232 492.718 445.29 492.427C445.348 492.136 445.232 491.845 445.406 491.554C445.581 491.263 446.337 490.798 446.337 490.798C446.337 490.798 446.803 490.856 447.035 490.856C447.268 490.856 447.966 491.438 447.966 491.438L448.199 492.776C448.199 492.776 448.315 493.241 448.315 493.707C448.315 494.172 448.373 495.277 448.315 495.568C448.257 495.859 447.733 496.732 447.733 496.732L446.977 497.546C446.977 497.546 446.628 497.837 446.279 497.895C445.93 497.953 445.232 497.895 445.232 497.895L444.65 497.546V497.546Z" fill="#427FE0" fill-opacity="0.3"/>
<path d="M246.902 80V6C246.902 3.79086 248.693 2 250.902 2H293.902" stroke="#427FE0" stroke-width="3.77565"/>
<path d="M71.9316 394.045V445.045" stroke="#427FE0" stroke-width="3.77565"/>
<circle cx="71.6826" cy="394.296" r="11.751" fill="#427FE0"/>
<circle cx="246.653" cy="79.751" r="11.751" fill="#427FE0"/>
<circle cx="377.653" cy="408.751" r="11.751" fill="#427FE0"/>
<circle cx="435.152" cy="449.25" r="7.25" fill="#427FE0"/>
<circle cx="451.152" cy="436.25" r="7.25" fill="#427FE0"/>
<circle cx="444.152" cy="467.25" r="7.25" fill="#427FE0"/>
<path d="M549.932 400.545H653.936" stroke="#427FE0" stroke-width="3.77565"/>
</svg>
